<svg width="479" height="479" viewBox="0 0 479 479" fill="none" xmlns="http://www.w3.org/2000/svg">
<g opacity="0.1">
<path d="M219.842 133.365C217.664 133.365 215.075 132.859 212.107 131.912C202.162 128.85 192.658 121.114 184.702 109.559L184.639 109.464C173.967 95.2879 155.118 90.6151 139.932 98.2873C114.516 109.843 84.932 115.147 51.6544 114.484C48.5918 114.484 46.2238 115.494 44.4242 117.389C41.0775 119.63 39.8777 123.072 39.8777 125.503C39.8777 155.466 59.5791 181.576 87.8999 189.091C101.981 192.216 114.831 190.859 126.04 185.018C138.543 194.016 150.477 198.594 161.654 198.594C170.526 198.594 178.135 195.879 185.523 190.101C187.701 188.459 189.185 185.807 189.627 182.808C190.069 179.808 189.343 176.84 187.733 174.725C184.323 170.115 177.819 169.137 172.294 172.546C168.884 175.262 158.37 183.439 132.891 162.285C128.629 159.16 123.135 159.065 118.967 162.254C110.443 168.442 102.55 170.021 92.4464 167.242C78.2702 163.99 66.683 151.551 62.6417 135.669C94.4354 135.196 123.135 129.039 148.172 117.326C154.55 114.168 161.464 115.873 165.379 121.841C176.43 137.595 189.28 147.73 204.498 152.782C208.918 154.582 213.275 155.371 218.264 155.371C222.747 155.371 226.441 152.15 228.462 147.857V186.691C226.536 184.765 223.821 183.628 220.6 183.628H213.528C192.374 183.628 175.83 200.52 175.83 222.116C175.83 237.05 184.576 250.5 197.899 256.341L213.307 264.613C198.026 266.728 186.028 279.325 186.028 295.207C186.028 316.076 196.005 334.23 213.37 344.997L227.641 354.279L227.672 413.604C228.746 419.982 233.387 424.087 239.449 424.087C245.922 424.087 250.468 419.54 250.468 413.068V377.548V372.244C253.499 377.169 255.141 383.168 255.141 389.483C255.141 395.955 259.687 400.502 266.16 400.502C272.979 400.502 277.179 394.787 277.179 389.483C277.179 370.665 267.833 353.49 252.11 343.608L250.468 342.597V311.309V292.081V284.598L252.015 285.419C260.729 290.471 266.16 299.658 266.16 309.383C266.16 316.455 263.255 323.527 258.456 328.39C254.036 332.81 254.036 339.44 258.456 343.829C260.855 346.26 264.107 347.112 266.16 347.112C269.285 347.112 271.685 346.102 273.863 343.86C283.114 334.641 288.166 322.138 288.166 308.625C288.166 290.408 278.473 273.958 262.908 265.749L261.329 264.928C261.929 264.739 262.529 264.613 263.097 264.234L280.778 256.562C294.354 250.626 303.1 236.829 303.1 221.579C303.51 211.823 299.943 202.541 293.091 195.405C285.956 188.017 275.884 183.755 265.402 183.755H258.298C255.109 183.755 252.394 184.891 250.468 186.786V150.477C251.036 151.424 251.573 152.34 252.426 153.066C254.762 155.055 258.14 155.844 260.698 155.371C265.244 155.371 270.39 154.424 274.084 152.908C288.671 148.867 301.932 138.416 313.614 121.746C317.339 116.126 324.917 114.168 330.915 117.357C356.931 129.229 384.936 135.227 416.32 135.669C412.341 151.077 400.912 163.264 386.326 167.274C376.727 169.989 368.487 168.41 360.025 162.254C355.763 159.033 350.238 159.065 345.881 162.348C321.696 182.492 310.646 175.167 306.636 172.483C304.489 170.873 301.711 170.084 298.459 170.589C295.459 171.031 292.775 172.515 291.197 174.662C289.618 176.809 288.892 179.808 289.303 182.808C289.745 185.839 291.26 188.491 293.533 190.164C302.089 195.91 309.667 198.562 317.276 198.562C328.421 198.562 340.324 194.016 352.795 185.049C364.098 191.648 377.012 193.006 391.156 189.027C419.382 181.576 439.084 155.466 439.084 125.471C439.084 122.377 438.105 120.009 435.8 117.768C433.527 115.494 430.275 114.484 428.065 114.484H427.938C394.534 114.989 364.13 109.685 339.85 98.2873C324.411 90.6151 305.626 95.2879 295.049 109.464C285.703 121.967 276.768 129.071 266.981 131.881L265.181 132.323C262.971 132.923 261.203 133.365 259.087 133.365C255.93 133.365 253.12 134.628 251.163 136.901C250.815 137.28 250.721 137.816 250.468 138.258V105.928C264.013 101.602 273.232 89.0365 273.232 74.4499C273.232 55.7903 258.109 40.667 239.481 40.667C220.821 40.667 205.698 55.7903 205.698 74.4499C205.698 89.0365 214.949 101.602 228.493 105.928V140.721C226.946 137.153 224.357 134.186 219.842 133.365ZM228.462 274.811V290.439C228.367 291.071 227.799 291.386 227.799 292.049V328.579L225.368 327.064C214.664 320.623 208.003 308.404 208.003 295.175C208.003 289.902 212.17 285.766 217.443 285.766C223.947 285.798 228.462 281.283 228.462 274.811C228.462 273.958 228.146 273.264 227.988 272.506L228.462 272.758V274.811ZM228.462 247.469L207.75 236.513C202.035 233.987 198.626 228.304 198.594 220.853C198.026 217.285 199.099 213.717 201.499 210.907C204.372 207.592 208.76 205.635 213.559 205.635H220.632C223.852 205.635 226.567 204.498 228.493 202.604L228.462 247.469ZM250.468 202.604C252.394 204.498 255.109 205.635 258.298 205.635H265.402C274.021 205.635 281.094 213.023 281.094 222.116C281.094 228.178 277.526 233.734 271.969 236.513L254.004 244.343C252.647 244.88 251.447 245.732 250.5 246.742V202.604H250.468Z" fill="white"/>
</g>
</svg>
