<svg width="32" height="32" viewBox="0 0 32 32" fill="none" xmlns="http://www.w3.org/2000/svg">
<path d="M20.0978 7.37283C20.0978 6.5007 20.8048 5.7937 21.6769 5.7937C22.549 5.7937 23.256 6.5007 23.256 7.37283V7.99715H20.0978V7.37283Z" fill="#3A9489"/>
<path d="M0.80867 9.99561C0.80867 8.73294 1.83207 7.7095 3.09766 7.7095H23.3787C27.6887 7.69796 31.1913 11.1863 31.2 15.4962V15.5019V21.6079C31.2029 22.467 30.5053 23.1675 29.6432 23.1704H29.6375H28.8014C28.2739 24.9664 26.6249 26.2032 24.7481 26.2061C22.8713 26.2147 21.2166 24.9751 20.6977 23.1704H11.3254C10.7978 24.9664 9.14883 26.2032 7.27207 26.2061C5.39531 26.2147 3.74054 24.9751 3.22161 23.1704H2.36251C1.50054 23.1704 0.802898 22.4727 0.800013 21.6136C0.800013 21.6108 0.800013 21.6079 0.800013 21.6079L0.80867 9.99561ZM24.7568 23.7412C25.7196 23.7268 26.498 22.9513 26.5124 21.9884C26.5095 21.0198 25.7254 20.2356 24.7568 20.2327C23.7939 20.2472 23.0184 21.0255 23.004 21.9884C23.0069 22.9542 23.791 23.7383 24.7568 23.7412ZM22.3121 16.0093H28.8187V15.5019C28.8187 12.5181 26.4029 10.0994 23.4191 10.0965H22.3005L22.3121 16.0093ZM10.1521 16.0439C10.1521 16.188 10.2703 16.3063 10.4144 16.3063H11.3917C11.5388 16.3063 11.654 16.188 11.654 16.0439V14.4093H13.2915C13.4386 14.4093 13.5539 14.2911 13.5539 14.147V13.1668C13.5539 13.0197 13.4386 12.9045 13.2915 12.9045H11.654V11.267C11.654 11.1199 11.5388 11.0046 11.3917 11.0046H10.4144C10.2703 11.0046 10.1521 11.1199 10.1521 11.267V12.9045H8.51461C8.37047 12.9045 8.25226 13.0197 8.25226 13.1668V14.147C8.25226 14.2911 8.37047 14.4093 8.51461 14.4093H10.1521V16.0439ZM7.28073 23.7297V23.7412C8.2436 23.7412 9.02489 22.9628 9.02777 22C9.02777 21.0371 8.24649 20.2558 7.28361 20.2558H7.28073C6.32648 20.2702 5.55388 21.0428 5.53946 22C5.54811 22.9571 6.32359 23.7268 7.28073 23.7297Z" fill="#3A9489"/>
</svg>
