<svg width="40" height="40" viewBox="0 0 40 40" fill="none" xmlns="http://www.w3.org/2000/svg">
<path d="M35 19.9998C35 11.7156 28.2842 4.99984 20 4.99984C11.7157 4.99984 4.99996 11.7156 4.99996 19.9998C4.99996 28.2841 11.7157 34.9998 20 34.9998C28.2842 34.9998 35 28.2841 35 19.9998ZM14.663 27.6707H14.6647V27.6691C14.6647 27.6691 14.6662 27.6671 14.6647 27.6659C14.1124 28.4017 13.0701 28.5514 12.3339 27.9995C11.5977 27.4473 11.4482 26.4035 12.0003 25.6672L12.7978 26.2645C12.0193 25.6804 12.0004 25.6663 12.0003 25.6655L12.0035 25.6623C12.0049 25.6605 12.0067 25.658 12.0084 25.6558C12.0118 25.6514 12.0152 25.6455 12.0198 25.6395C12.0291 25.6275 12.0413 25.612 12.0556 25.5939C12.0843 25.5577 12.1241 25.5104 12.1728 25.4523C12.2706 25.3359 12.4088 25.1768 12.5862 24.9917C12.9397 24.623 13.4566 24.1378 14.1243 23.6522C15.4542 22.685 17.4575 21.6665 20 21.6665C22.5424 21.6665 24.5457 22.685 25.8756 23.6522C26.5434 24.1378 27.0603 24.623 27.4137 24.9917C27.5911 25.1768 27.7294 25.3359 27.8271 25.4523C27.8759 25.5104 27.9156 25.5577 27.9443 25.5939C27.9586 25.612 27.9708 25.6275 27.9801 25.6395C27.9847 25.6455 27.9881 25.6514 27.9915 25.6558C27.9932 25.658 27.995 25.6605 27.9964 25.6623L27.9996 25.6655C27.9995 25.6663 27.9806 25.6804 27.2021 26.2645L27.9996 25.6672C28.5517 26.4035 28.4023 27.4473 27.666 27.9995C26.9296 28.5516 25.8858 28.4021 25.3336 27.6659V27.6675L25.3352 27.6707L25.3304 27.6642C25.3204 27.6517 25.3026 27.6271 25.275 27.5942C25.2199 27.5285 25.1298 27.4267 25.0081 27.2996C24.7626 27.0435 24.3936 26.6948 23.916 26.3475C22.9542 25.648 21.6241 24.9998 20 24.9998C18.3758 24.9998 17.0457 25.648 16.0839 26.3475C15.6064 26.6948 15.2373 27.0435 14.9918 27.2996C14.8701 27.4267 14.7801 27.5285 14.7249 27.5942C14.6973 27.6271 14.6795 27.6517 14.6696 27.6642C14.6671 27.6673 14.6644 27.669 14.663 27.6707ZM16.6666 13.3332C17.5871 13.3332 18.3333 14.0794 18.3333 14.9998C18.3333 15.9203 17.5871 16.6665 16.6666 16.6665H13.3333C12.4128 16.6665 11.6666 15.9203 11.6666 14.9998C11.6666 14.0794 12.4128 13.3332 13.3333 13.3332H16.6666ZM26.6666 13.3332C27.5871 13.3332 28.3333 14.0794 28.3333 14.9998C28.3333 15.9203 27.5871 16.6665 26.6666 16.6665H23.3333C22.4128 16.6665 21.6666 15.9203 21.6666 14.9998C21.6666 14.0794 22.4128 13.3332 23.3333 13.3332H26.6666ZM38.3333 19.9998C38.3333 30.1251 30.1252 38.3332 20 38.3332C9.87474 38.3332 1.66663 30.1251 1.66663 19.9998C1.66663 9.87462 9.87474 1.6665 20 1.6665C30.1252 1.6665 38.3333 9.87462 38.3333 19.9998Z" fill="#3A9489"/>
</svg>
