<svg width="40" height="40" viewBox="0 0 40 40" fill="none" xmlns="http://www.w3.org/2000/svg">
<path d="M35 19.9998C35 11.7156 28.2843 4.99984 20 4.99984C11.7157 4.99984 5.00002 11.7156 5.00002 19.9998C5.00002 28.2841 11.7157 34.9998 20 34.9998C28.2843 34.9998 35 28.2841 35 19.9998ZM26.6667 23.3332C27.5872 23.3332 28.3334 24.0794 28.3334 24.9998C28.3334 25.9203 27.5872 26.6665 26.6667 26.6665H13.3334C12.4129 26.6665 11.6667 25.9203 11.6667 24.9998C11.6667 24.0794 12.4129 23.3332 13.3334 23.3332H26.6667ZM16.6667 13.3332C17.5872 13.3332 18.3334 14.0794 18.3334 14.9998C18.3334 15.9203 17.5872 16.6665 16.6667 16.6665H13.3334C12.4129 16.6665 11.6667 15.9203 11.6667 14.9998C11.6667 14.0794 12.4129 13.3332 13.3334 13.3332H16.6667ZM26.6667 13.3332C27.5872 13.3332 28.3334 14.0794 28.3334 14.9998C28.3334 15.9203 27.5872 16.6665 26.6667 16.6665H23.3334C22.4129 16.6665 21.6667 15.9203 21.6667 14.9998C21.6667 14.0794 22.4129 13.3332 23.3334 13.3332H26.6667ZM38.3334 19.9998C38.3334 30.1251 30.1252 38.3332 20 38.3332C9.8748 38.3332 1.66669 30.1251 1.66669 19.9998C1.66669 9.87462 9.8748 1.6665 20 1.6665C30.1252 1.6665 38.3334 9.87462 38.3334 19.9998Z" fill="#3A9489"/>
</svg>
