<svg width="32" height="32" viewBox="0 0 32 32" fill="none" xmlns="http://www.w3.org/2000/svg">
<path fill-rule="evenodd" clip-rule="evenodd" d="M9.33191 4.46782C9.95508 4.11098 10.6925 4.13187 11.2939 4.42527C14.2389 5.86194 17.7657 5.86344 20.7119 4.4293C21.3201 4.13324 22.0666 4.11599 22.6927 4.4837L27.3146 7.19812C27.7341 7.45142 27.9984 7.91554 28 8.40669L28 8.40866C28.0022 16.3475 23.6399 23.8411 16.7657 27.7955C16.2966 28.0652 15.7038 28.0653 15.2346 27.7957C8.33854 23.8287 3.97237 16.301 4.00013 8.33713C4.00172 7.84598 4.266 7.3819 4.68559 7.12861L4.69876 7.12065L9.33191 4.46782ZM14.2502 11.7499C14.2502 11.2063 14.2502 10.9345 14.339 10.7201C14.4574 10.4343 14.6845 10.2071 14.9704 10.0887C15.1848 9.99992 15.4566 9.99992 16.0002 9.99992C16.5438 9.99992 16.8156 9.99992 17.03 10.0887C17.3158 10.2071 17.5429 10.4343 17.6614 10.7201C17.7502 10.9345 17.7502 11.2063 17.7502 11.7499V12.8606C17.7502 12.887 17.7502 12.9002 17.7584 12.9084C17.7666 12.9166 17.7798 12.9166 17.8062 12.9166H18.9168C19.4604 12.9166 19.7322 12.9166 19.9466 13.0054C20.2325 13.1238 20.4596 13.3509 20.578 13.6368C20.6668 13.8512 20.6668 14.123 20.6668 14.6666C20.6668 15.2102 20.6668 15.482 20.578 15.6964C20.4596 15.9822 20.2325 16.2094 19.9466 16.3278C19.7322 16.4166 19.4604 16.4166 18.9168 16.4166H17.8062C17.7798 16.4166 17.7666 16.4166 17.7584 16.4248C17.7502 16.433 17.7502 16.4462 17.7502 16.4726V17.5833C17.7502 18.1269 17.7502 18.3987 17.6614 18.6131C17.5429 18.8989 17.3158 19.126 17.03 19.2444C16.8156 19.3333 16.5438 19.3333 16.0002 19.3333C15.4566 19.3333 15.1848 19.3333 14.9704 19.2444C14.6845 19.126 14.4574 18.8989 14.339 18.6131C14.2502 18.3987 14.2502 18.1269 14.2502 17.5833V16.4726C14.2502 16.4462 14.2502 16.433 14.242 16.4248C14.2338 16.4166 14.2206 16.4166 14.1942 16.4166H13.0835C12.5399 16.4166 12.2681 16.4166 12.0537 16.3278C11.7678 16.2094 11.5407 15.9822 11.4223 15.6964C11.3335 15.482 11.3335 15.2102 11.3335 14.6666C11.3335 14.123 11.3335 13.8512 11.4223 13.6368C11.5407 13.3509 11.7678 13.1238 12.0537 13.0054C12.2681 12.9166 12.5399 12.9166 13.0835 12.9166H14.1942C14.2206 12.9166 14.2338 12.9166 14.242 12.9084C14.2502 12.9002 14.2502 12.887 14.2502 12.8606V11.7499Z" fill="#3A9489"/>
</svg>
