<svg width="32" height="32" viewBox="0 0 32 32" fill="none" xmlns="http://www.w3.org/2000/svg">
<g clip-path="url(#clip0_2105_7009)">
<path d="M32 13.293V24.5186C32 28.1926 29.0109 31.1816 25.3369 31.1816H6.66309C2.98908 31.1816 0 28.1926 0 24.5186V13.293H32ZM14.1748 16C14.0069 16 13.8701 16.1368 13.8701 16.3047V19.2031H10.9717C10.8039 19.2031 10.6671 19.3401 10.667 19.5078V23.1582C10.667 23.3261 10.8038 23.4629 10.9717 23.4629H13.8701V26.3613C13.8701 26.5292 14.0069 26.667 14.1748 26.667H17.8252C17.9931 26.667 18.1299 26.5292 18.1299 26.3613V23.4629H21.0283C21.1962 23.4629 21.333 23.3261 21.333 23.1582V19.5078C21.3329 19.3401 21.1961 19.2031 21.0283 19.2031H18.1299V16.3047C18.1299 16.1368 17.9931 16 17.8252 16H14.1748Z" fill="#3A9489"/>
<path d="M25.3366 5.51726H22.9049V4.33632C22.9049 2.39625 21.3265 0.817871 19.3865 0.817871H12.7018C10.7618 0.817871 9.18339 2.39625 9.18339 4.33632V5.51726H6.66264C3.25669 5.51726 0.439751 8.08626 0.046875 11.3883H31.9524C31.5594 8.08632 28.7426 5.51726 25.3366 5.51726ZM21.0002 5.51726H11.0881V4.33632C11.0881 3.44656 11.812 2.72269 12.7018 2.72269H19.3865C20.2762 2.72269 21.0001 3.44656 21.0001 4.33632V5.51726H21.0002Z" fill="#3A9489"/>
</g>
<defs>
<clipPath id="clip0_2105_7009">
<rect width="32" height="32" fill="white"/>
</clipPath>
</defs>
</svg>
