<svg width="32" height="32" viewBox="0 0 32 32" fill="none" xmlns="http://www.w3.org/2000/svg">
<path d="M16 2C13.8527 1.99151 11.7331 2.48461 9.81 3.44C9.68249 3.49145 9.56696 3.56865 9.47063 3.66677C9.3743 3.76488 9.29924 3.88181 9.25014 4.01024C9.20104 4.13867 9.17895 4.27585 9.18526 4.41321C9.19156 4.55056 9.22613 4.68514 9.28679 4.80853C9.34745 4.93193 9.43291 5.04148 9.53783 5.13036C9.64274 5.21924 9.76486 5.28552 9.89654 5.32508C10.0282 5.36463 10.1667 5.3766 10.3032 5.36024C10.4397 5.34388 10.5714 5.29955 10.69 5.23C12.5202 4.32691 14.5505 3.90553 16.5889 4.00568C18.6273 4.10583 20.6065 4.72422 22.3393 5.80237C24.0722 6.88052 25.5014 8.3828 26.4919 10.1672C27.4824 11.9516 28.0015 13.9591 28 16C28 20.88 25.38 26.32 21 27C20.5349 27.1111 20.051 27.1186 19.5826 27.0218C19.1143 26.925 18.673 26.7264 18.29 26.44C17.4198 25.4784 16.9572 24.2162 17 22.92C18.6646 22.6797 20.187 21.8482 21.2888 20.5775C22.3906 19.3068 22.998 17.6818 23 16V10C23 9.73478 22.8946 9.48043 22.7071 9.29289C22.5196 9.10536 22.2652 9 22 9H19C18.7348 9 18.4804 9.10536 18.2929 9.29289C18.1054 9.48043 18 9.73478 18 10C18 10.2652 18.1054 10.5196 18.2929 10.7071C18.4804 10.8946 18.7348 11 19 11H21V16C21 17.3261 20.4732 18.5979 19.5355 19.5355C18.5979 20.4732 17.3261 21 16 21C14.6739 21 13.4021 20.4732 12.4645 19.5355C11.5268 18.5979 11 17.3261 11 16V11H13C13.2652 11 13.5196 10.8946 13.7071 10.7071C13.8946 10.5196 14 10.2652 14 10C14 9.73478 13.8946 9.48043 13.7071 9.29289C13.5196 9.10536 13.2652 9 13 9H10C9.73478 9 9.48043 9.10536 9.29289 9.29289C9.10536 9.48043 9 9.73478 9 10V16C9.00197 17.6818 9.60941 19.3068 10.7112 20.5775C11.813 21.8482 13.3354 22.6797 15 22.92C15.13 25.22 15.78 26.92 16.94 27.92C17.8449 28.6762 19.0024 29.062 20.18 29C20.5478 29.0004 20.9152 28.977 21.28 28.93C26.94 28.11 30 21.65 30 16C30 12.287 28.525 8.72602 25.8995 6.10051C23.274 3.475 19.713 2 16 2Z" fill="white"/>
<path d="M7.00015 22C6.57118 22.0065 6.14593 22.0807 5.74015 22.22C4.36935 19.96 3.78309 17.3106 4.07241 14.6833C4.36173 12.0559 5.51043 9.59757 7.34015 7.69C7.44244 7.59801 7.52465 7.4859 7.58164 7.36069C7.63862 7.23548 7.66916 7.09985 7.67134 6.9623C7.67352 6.82474 7.64729 6.68822 7.5943 6.56127C7.54131 6.43431 7.4627 6.31965 7.36337 6.22447C7.26405 6.12928 7.14615 6.05561 7.01706 6.00807C6.88796 5.96053 6.75045 5.94013 6.61311 5.94816C6.47578 5.95619 6.34157 5.99247 6.2189 6.05473C6.09622 6.11699 5.98771 6.20389 5.90015 6.31C3.75833 8.54217 2.41615 11.4209 2.08326 14.4965C1.75038 17.572 2.44554 20.6713 4.06015 23.31C3.44275 23.9895 3.07788 24.8607 3.02679 25.7773C2.9757 26.694 3.24149 27.6003 3.77955 28.3442C4.31762 29.0881 5.0952 29.6243 5.98179 29.8627C6.86838 30.1011 7.81 30.0273 8.6486 29.6537C9.48721 29.28 10.1717 28.6292 10.5873 27.8106C11.0029 26.9919 11.1242 26.0552 10.9309 25.1577C10.7376 24.2602 10.2415 23.4565 9.52571 22.8816C8.80998 22.3066 7.91823 21.9953 7.00015 22ZM7.00015 28C6.60459 28 6.21791 27.8827 5.88901 27.6629C5.56012 27.4432 5.30377 27.1308 5.15239 26.7654C5.00102 26.3999 4.96141 25.9978 5.03858 25.6098C5.11575 25.2219 5.30624 24.8655 5.58594 24.5858C5.86565 24.3061 6.22201 24.1156 6.60997 24.0384C6.99793 23.9613 7.40007 24.0009 7.76552 24.1522C8.13097 24.3036 8.44333 24.56 8.66309 24.8889C8.88286 25.2178 9.00015 25.6044 9.00015 26C9.00015 26.5304 8.78944 27.0391 8.41437 27.4142C8.03929 27.7893 7.53059 28 7.00015 28Z" fill="white"/>
</svg>
