<svg width="18" height="18" viewBox="0 0 18 18" fill="none" xmlns="http://www.w3.org/2000/svg">
<path fill-rule="evenodd" clip-rule="evenodd" d="M1.5 6C1.5 3.92893 3.17893 2.25 5.25 2.25H12.75C14.8211 2.25 16.5 3.92893 16.5 6V9C16.5 9.41421 16.1642 9.75 15.75 9.75C15.3358 9.75 15 9.41421 15 9V6C15 4.75736 13.9926 3.75 12.75 3.75H5.25C4.00736 3.75 3 4.75736 3 6V12.75C3 13.9926 4.00736 15 5.25 15H9C9.41421 15 9.75 15.3358 9.75 15.75C9.75 16.1642 9.41421 16.5 9 16.5H5.25C3.17893 16.5 1.5 14.8211 1.5 12.75V6Z" fill="#DCF5F0"/>
<path fill-rule="evenodd" clip-rule="evenodd" d="M6 1.5C6.41421 1.5 6.75 1.83579 6.75 2.25V4.5C6.75 4.91421 6.41421 5.25 6 5.25C5.58579 5.25 5.25 4.91421 5.25 4.5V2.25C5.25 1.83579 5.58579 1.5 6 1.5Z" fill="#DCF5F0"/>
<path fill-rule="evenodd" clip-rule="evenodd" d="M4.5 7.5C4.5 7.08579 4.83579 6.75 5.25 6.75H12.75C13.1642 6.75 13.5 7.08579 13.5 7.5C13.5 7.91421 13.1642 8.25 12.75 8.25H5.25C4.83579 8.25 4.5 7.91421 4.5 7.5Z" fill="#DCF5F0"/>
<path fill-rule="evenodd" clip-rule="evenodd" d="M12 1.5C12.4142 1.5 12.75 1.83579 12.75 2.25V4.5C12.75 4.91421 12.4142 5.25 12 5.25C11.5858 5.25 11.25 4.91421 11.25 4.5V2.25C11.25 1.83579 11.5858 1.5 12 1.5Z" fill="#DCF5F0"/>
<path fill-rule="evenodd" clip-rule="evenodd" d="M13.5 12C12.6716 12 12 12.6716 12 13.5C12 14.3284 12.6716 15 13.5 15C14.3284 15 15 14.3284 15 13.5C15 12.6716 14.3284 12 13.5 12ZM10.5 13.5C10.5 11.8431 11.8431 10.5 13.5 10.5C15.1569 10.5 16.5 11.8431 16.5 13.5C16.5 15.1569 15.1569 16.5 13.5 16.5C11.8431 16.5 10.5 15.1569 10.5 13.5Z" fill="#DCF5F0"/>
</svg>
