<svg width="32" height="32" viewBox="0 0 32 32" fill="none" xmlns="http://www.w3.org/2000/svg">
<path d="M21.4803 21.193C20.5778 21.193 19.7547 20.6594 19.3857 19.8363L19.3233 19.7001L17.2344 24.8769L19.7887 23.8892L20.9467 26.3698L22.4453 22.6575L21.8379 21.1589C21.7187 21.1816 21.5995 21.193 21.4803 21.193Z" fill="#3A9489"/>
<path d="M26.7348 19.8368C26.3658 20.6599 25.5427 21.1935 24.6402 21.1935C24.2428 21.1935 23.8455 21.0856 23.4992 20.8869L23.2211 20.728L23.0508 21.1424L25.1681 26.376L26.3261 23.8954L28.8748 24.8831L26.7858 19.7233L26.7348 19.8368Z" fill="#3A9489"/>
<path d="M19.2068 25.3369L15.205 26.8809L18.2872 19.2405C17.7991 19.0986 17.362 18.8091 17.0555 18.3891C16.6752 17.8668 16.5332 17.2027 16.6638 16.5726L16.766 16.0901L16.3913 15.7325C15.9145 15.3011 15.642 14.6824 15.642 14.0353C15.642 13.3882 15.9145 12.7694 16.3913 12.338L16.7603 12.0031L16.6638 11.4922C16.5332 10.8622 16.6752 10.198 17.0555 9.6758C17.4358 9.15357 18.0205 8.81299 18.6619 8.74487L19.1614 8.69379L19.3828 8.22832C19.7517 7.40525 20.5748 6.87734 21.4774 6.87734C21.8747 6.87734 22.2664 6.97952 22.6126 7.17819L23.01 7.40525V6.92275V4.58408C23.01 3.5226 22.1529 2.65979 21.0857 2.65979H4.57877C3.51729 2.65979 2.66016 3.5226 2.66016 4.58408V27.4088C2.66016 28.476 3.51729 29.3331 4.57877 29.3331H21.08C22.1472 29.3331 23.0043 28.476 23.0043 27.4088V25.6605V24.2925L21.0176 29.2253L19.2068 25.3369ZM6.27034 7.33145H18.2532V8.46673H6.27034V7.33145ZM6.27034 11.3844H15.1085V12.5197H6.27034V11.3844ZM6.27034 15.4317H15.1085V16.5669H6.27034V15.4317ZM6.26466 19.4846H16.5219V20.6199H6.26466V19.4846ZM6.26466 23.5319H15.1028V24.6671H6.26466V23.5319Z" fill="#3A9489"/>
<path d="M28.9592 13.1725L28.5903 12.8375C28.2894 12.5594 28.1532 12.145 28.2326 11.7477L28.3348 11.2538C28.471 10.584 28.0056 9.94259 27.3244 9.8688L26.8306 9.81203C26.4219 9.76662 26.0699 9.51119 25.8996 9.13654L25.6953 8.68243C25.4172 8.05803 24.6565 7.81395 24.0662 8.14885L23.6348 8.39861C23.2772 8.60296 22.8401 8.60296 22.4825 8.39861L22.0511 8.14885C21.455 7.80827 20.7001 8.05803 20.4219 8.68243L20.2176 9.13654C20.0473 9.51119 19.6954 9.76662 19.2867 9.81203L18.7871 9.8688C18.106 9.94259 17.6405 10.5897 17.7767 11.2595L17.8789 11.7477C17.9641 12.1507 17.8278 12.5651 17.5213 12.8432L17.1523 13.1781C16.6471 13.6379 16.6471 14.4326 17.1523 14.8924L17.5213 15.2273C17.8278 15.5054 17.9584 15.9198 17.8789 16.3228L17.7767 16.811C17.6348 17.4808 18.106 18.1279 18.7871 18.2017L19.2867 18.2585C19.6954 18.3039 20.0473 18.5593 20.2176 18.934L20.4219 19.3881C20.7001 20.0125 21.4607 20.2623 22.0567 19.916L22.4881 19.6662C22.8457 19.4619 23.2828 19.4619 23.6404 19.6662L24.0718 19.916C24.6679 20.2566 25.4228 20.0125 25.7066 19.3881L25.911 18.934C26.0813 18.5593 26.4332 18.2982 26.8419 18.2585L27.3358 18.2017C28.0169 18.1279 28.4824 17.4865 28.3462 16.8167L28.244 16.3285C28.1588 15.9255 28.2951 15.5111 28.6016 15.2387L28.9706 14.9038C29.4644 14.4269 29.4644 13.6322 28.9592 13.1725ZM23.0558 16.9927C21.4153 16.9927 20.087 15.6644 20.087 14.0239C20.087 12.3834 21.4153 11.0552 23.0558 11.0552C24.6963 11.0552 26.0245 12.3834 26.0245 14.0239C26.0245 15.6644 24.6963 16.9927 23.0558 16.9927Z" fill="#3A9489"/>
</svg>
