<svg width="24" height="24" viewBox="0 0 24 24" fill="none" xmlns="http://www.w3.org/2000/svg">
<path d="M17.7098 16.2921C18.1004 16.6826 18.1004 17.3158 17.7098 17.7063C17.3193 18.0968 16.6861 18.0968 16.2956 17.7063L6.29875 7.70943C5.90823 7.3189 5.90823 6.68574 6.29875 6.29521C6.68928 5.90469 7.32244 5.90469 7.71297 6.29521L17.7098 16.2921Z" fill="#5D5D5D"/>
<path d="M16.2878 6.29603C16.6783 5.90551 17.3115 5.90551 17.702 6.29603C18.0925 6.68656 18.0925 7.31972 17.702 7.71025L7.70515 17.7071C7.31463 18.0976 6.68146 18.0976 6.29094 17.7071C5.90042 17.3166 5.90042 16.6834 6.29094 16.2929L16.2878 6.29603Z" fill="#5D5D5D"/>
</svg>
