<svg width="20" height="20" viewBox="0 0 20 20" fill="none" xmlns="http://www.w3.org/2000/svg">
<g clip-path="url(#clip0_42_636)">
<path fill-rule="evenodd" clip-rule="evenodd" d="M0 9.99986C0 17.5486 1.765 19.1665 10 19.1665C18.235 19.1665 20 17.5486 20 9.99986C20 7.92519 19.8667 6.29851 19.5023 5.03028C18.5696 5.96547 17.3924 7.09005 16.1139 8.09173C14.3007 9.51244 12.1046 10.8332 10 10.8332C7.89543 10.8332 5.69935 9.51244 3.88606 8.09173C2.60755 7.09005 1.43044 5.96547 0.497629 5.03027C0.133318 6.29851 0 7.92519 0 9.99986ZM6.66667 13.3332C6.20643 13.3332 5.83333 13.7063 5.83333 14.1665C5.83333 14.6268 6.20643 14.9999 6.66667 14.9999H13.3333C13.7936 14.9999 14.1667 14.6268 14.1667 14.1665C14.1667 13.7063 13.7936 13.3332 13.3333 13.3332H6.66667Z" fill="#3A9489"/>
<path d="M15.0861 6.77959C16.5045 5.66828 17.7997 4.3891 18.7761 3.39393C17.4526 1.39351 14.847 0.833008 9.99999 0.833008C5.15299 0.833008 2.54741 1.39351 1.22388 3.39393C2.20034 4.3891 3.49549 5.66828 4.91394 6.77959C6.70064 8.17944 8.50458 9.16634 9.99999 9.16634C11.4954 9.16634 13.2993 8.17944 15.0861 6.77959Z" fill="#3A9489"/>
</g>
<defs>
<clipPath id="clip0_42_636">
<rect width="20" height="20" fill="white"/>
</clipPath>
</defs>
</svg>
