<svg width="20" height="20" viewBox="0 0 20 20" fill="none" xmlns="http://www.w3.org/2000/svg">
<g clip-path="url(#clip0_42_624)">
<path d="M18.4334 12.8069L16.434 10.8049C15.5054 9.87507 13.9975 9.79949 13.0659 10.7324L12.102 11.6976C12.0704 11.6976 11.8701 12.0261 11.4413 11.9007C10.8976 11.7416 10.4219 11.1819 8.83744 9.59529C8.44065 9.19798 8.19757 8.85303 8.11492 8.56995C8.06114 8.38572 8.04848 8.17807 8.31772 7.90844L9.28167 6.94319C10.2075 6.01625 10.1435 4.50617 9.20927 3.57066L7.20987 1.56864C6.2757 0.633212 4.76751 0.569064 3.84172 1.49611L1.45018 3.89074C1.04868 4.27731 0.84123 4.80866 0.833546 5.47017C0.803179 8.07696 4.18779 12.7044 5.75005 14.2686C7.44059 15.9613 11.9644 19.1665 14.5338 19.1663C15.1363 19.1663 15.6948 19.002 16.112 18.5766L18.5059 16.1794C19.4145 15.2696 19.382 13.7567 18.4334 12.8069Z" fill="#3A9489"/>
</g>
<defs>
<clipPath id="clip0_42_624">
<rect width="20" height="20" fill="white"/>
</clipPath>
</defs>
</svg>
