<svg width="20" height="20" viewBox="0 0 20 20" fill="none" xmlns="http://www.w3.org/2000/svg">
<path d="M10 0.833008C14.2823 0.833008 17.7665 4.31729 17.7666 8.59961C17.7666 11.0422 15.6172 13.9419 14.3359 15.4531C14.3046 15.4903 11.1556 19.167 10 19.167C9.04407 19.1667 6.49302 16.4171 5.6748 15.4541C4.38953 13.9412 2.2334 11.0386 2.2334 8.59961C2.23356 4.31735 5.71772 0.833104 10 0.833008ZM10 5.83301C8.6194 5.83301 7.50018 6.95245 7.5 8.33301C7.5 9.71372 8.61929 10.833 10 10.833C11.3807 10.833 12.5 9.71372 12.5 8.33301C12.4998 6.95245 11.3806 5.83301 10 5.83301Z" fill="#3A9489"/>
</svg>
