<svg width="60" height="60" viewBox="0 0 60 60" fill="none" xmlns="http://www.w3.org/2000/svg">
<rect width="60" height="60" rx="15" fill="#DCF5F0"/>
<path d="M18.0766 11.7526C17.8832 11.7884 17.4536 11.9459 17.1241 12.0963C16.3507 12.4615 15.5343 13.2493 15.1906 13.9583C14.7179 14.9394 14.7466 13.7864 14.7466 29.9997C14.7466 46.2131 14.7179 45.0601 15.1906 46.0412C15.5343 46.7502 16.3507 47.538 17.117 47.896C17.4464 48.0536 17.9119 48.2111 18.141 48.2541C18.4347 48.3114 22.1013 48.3329 30.0289 48.3329C42.7046 48.3329 41.9884 48.3544 42.9695 47.8602C43.6642 47.5165 44.4806 46.7001 44.81 46.0412C45.2827 45.0673 45.254 46.2274 45.254 29.9997C45.254 13.7792 45.2827 14.9322 44.81 13.9583C44.4878 13.3066 43.5997 12.4329 42.9337 12.1106C41.9813 11.6451 42.633 11.6666 29.9645 11.6738C23.0036 11.6809 18.2914 11.7096 18.0766 11.7526ZM38.8159 16.3931C39.6467 16.6509 40.3342 17.3384 40.5705 18.1548C40.6564 18.4628 40.6779 18.8638 40.6564 20.2388C40.6349 21.9289 40.6349 21.9432 40.4416 22.3442C40.062 23.1105 39.3101 23.6762 38.4579 23.841C37.9351 23.9412 22.0655 23.9412 21.5427 23.841C20.6977 23.6834 19.9385 23.1033 19.559 22.3371C19.3656 21.9504 19.3656 21.9289 19.3442 20.2388C19.3227 18.8638 19.3442 18.4628 19.4301 18.1548C19.6664 17.3527 20.3539 16.6509 21.156 16.3931C21.5713 16.2642 21.8936 16.2571 29.9716 16.2571C38.1428 16.2499 38.3791 16.2571 38.8159 16.3931ZM24.1924 26.992C24.5218 27.0851 24.9014 27.4575 24.9873 27.7797C25.0231 27.9158 25.0589 28.2094 25.0589 28.4314V28.8396L25.6247 28.8611C26.0615 28.8826 26.2406 28.9255 26.3981 29.0401C27.0999 29.5629 27.0999 30.4366 26.3981 30.9594C26.2406 31.0739 26.0615 31.1169 25.6247 31.1384L25.0589 31.1599V31.5681C25.0589 32.1553 24.9515 32.4561 24.6364 32.7425C24.2497 33.0935 23.8773 33.1436 23.4261 32.9216C22.9177 32.6709 22.7673 32.3916 22.7673 31.7185V31.1599L22.1657 31.1384C21.5141 31.1098 21.3135 31.0167 21.0199 30.6156C20.8122 30.3363 20.8122 29.6632 21.0199 29.3839C21.3135 28.9828 21.5141 28.8897 22.1657 28.8611L22.7673 28.8396V28.281C22.7673 27.615 22.9177 27.3285 23.4118 27.0779C23.7699 26.8989 23.8487 26.8917 24.1924 26.992ZM38.6154 29.4197C38.9807 29.6417 39.1955 30.0714 39.1454 30.4867C39.1096 30.8448 38.9377 31.1098 38.5939 31.3389C38.3648 31.5036 38.3218 31.5036 36.1447 31.5036C34.247 31.5036 33.8889 31.4893 33.6812 31.389C33.3232 31.2172 33.1298 30.9021 33.094 30.4366C33.0582 29.9353 33.2515 29.613 33.7242 29.3695C34.0393 29.212 34.0751 29.2048 36.1949 29.2263C38.3075 29.2478 38.3504 29.2478 38.6154 29.4197ZM22.3018 36.1657C22.5095 36.223 22.7673 36.4235 23.2543 36.8961L23.9131 37.5478L24.5791 36.889C25.3167 36.1514 25.5674 36.0296 26.0544 36.1585C26.5915 36.3018 26.9209 36.7028 26.9209 37.2256C26.9209 37.6767 26.8135 37.8629 26.1546 38.5361L25.5316 39.1663L26.1546 39.7965C26.8135 40.4697 26.9209 40.6559 26.9209 41.107C26.9209 41.6298 26.5915 42.0309 26.0544 42.1741C25.5674 42.303 25.3167 42.1812 24.5791 41.4436L23.9131 40.7848L23.2543 41.4365C22.5095 42.1669 22.2015 42.3102 21.7146 42.1812C21.335 42.081 21.1417 41.9234 20.9769 41.6012C20.669 41.0068 20.7908 40.6845 21.643 39.8252L22.3018 39.1663L21.643 38.5003C20.7979 37.6481 20.669 37.3258 20.9698 36.7386C21.1417 36.4163 21.2491 36.3161 21.6 36.1872C21.9366 36.0726 21.9509 36.0726 22.3018 36.1657ZM38.6154 36.2946C38.9807 36.5166 39.1955 36.9463 39.1454 37.3616C39.1096 37.7197 38.9377 37.9847 38.5939 38.2138C38.3648 38.3786 38.3218 38.3786 36.1447 38.3786C34.247 38.3786 33.8889 38.3642 33.6812 38.264C33.3232 38.0921 33.1298 37.777 33.094 37.3115C33.0582 36.8102 33.2515 36.488 33.7242 36.2445C34.0393 36.0869 34.0751 36.0798 36.1949 36.1012C38.3075 36.1227 38.3504 36.1227 38.6154 36.2946ZM38.5939 40.1116C38.9377 40.3479 39.1096 40.6129 39.1454 40.971C39.1955 41.3863 38.9807 41.816 38.6154 42.038C38.3504 42.2099 38.3075 42.2099 36.1949 42.2314C34.0751 42.2529 34.0393 42.2457 33.7242 42.0881C33.2515 41.8447 33.0582 41.5224 33.094 41.0211C33.1298 40.5628 33.316 40.2477 33.6669 40.0758C33.8674 39.9755 34.2255 39.9541 36.1304 39.9541C38.3218 39.9541 38.3648 39.9541 38.5939 40.1116Z" fill="#3A9489"/>
<path d="M18.0766 11.7526C17.8832 11.7884 17.4536 11.9459 17.1241 12.0963C16.3507 12.4615 15.5343 13.2493 15.1906 13.9583C14.7179 14.9394 14.7466 13.7864 14.7466 29.9997C14.7466 46.2131 14.7179 45.0601 15.1906 46.0412C15.5343 46.7502 16.3507 47.538 17.117 47.896C17.4464 48.0536 17.9119 48.2111 18.141 48.2541C18.4347 48.3114 22.1013 48.3329 30.0289 48.3329C42.7046 48.3329 41.9884 48.3544 42.9695 47.8602C43.6642 47.5165 44.4806 46.7001 44.81 46.0412C45.2827 45.0673 45.254 46.2274 45.254 29.9997C45.254 13.7792 45.2827 14.9322 44.81 13.9583C44.4878 13.3066 43.5997 12.4329 42.9337 12.1106C41.9813 11.6451 42.633 11.6666 29.9645 11.6738C23.0036 11.6809 18.2914 11.7096 18.0766 11.7526ZM38.8159 16.3931C39.6467 16.6509 40.3342 17.3384 40.5705 18.1548C40.6564 18.4628 40.6779 18.8638 40.6564 20.2388C40.6349 21.9289 40.6349 21.9432 40.4416 22.3442C40.062 23.1105 39.3101 23.6762 38.4579 23.841C37.9351 23.9412 22.0655 23.9412 21.5427 23.841C20.6977 23.6834 19.9385 23.1033 19.559 22.3371C19.3656 21.9504 19.3656 21.9289 19.3442 20.2388C19.3227 18.8638 19.3442 18.4628 19.4301 18.1548C19.6664 17.3527 20.3539 16.6509 21.156 16.3931C21.5713 16.2642 21.8936 16.2571 29.9716 16.2571C38.1428 16.2499 38.3791 16.2571 38.8159 16.3931ZM24.1924 26.992C24.5218 27.0851 24.9014 27.4575 24.9873 27.7797C25.0231 27.9158 25.0589 28.2094 25.0589 28.4314V28.8396L25.6247 28.8611C26.0615 28.8826 26.2406 28.9255 26.3981 29.0401C27.0999 29.5629 27.0999 30.4366 26.3981 30.9594C26.2406 31.0739 26.0615 31.1169 25.6247 31.1384L25.0589 31.1599V31.5681C25.0589 32.1553 24.9515 32.4561 24.6364 32.7425C24.2497 33.0935 23.8773 33.1436 23.4261 32.9216C22.9177 32.6709 22.7673 32.3916 22.7673 31.7185V31.1599L22.1657 31.1384C21.5141 31.1098 21.3135 31.0167 21.0199 30.6156C20.8122 30.3363 20.8122 29.6632 21.0199 29.3839C21.3135 28.9828 21.5141 28.8897 22.1657 28.8611L22.7673 28.8396V28.281C22.7673 27.615 22.9177 27.3285 23.4118 27.0779C23.7699 26.8989 23.8487 26.8917 24.1924 26.992ZM38.6154 29.4197C38.9807 29.6417 39.1955 30.0714 39.1454 30.4867C39.1096 30.8448 38.9377 31.1098 38.5939 31.3389C38.3648 31.5036 38.3218 31.5036 36.1447 31.5036C34.247 31.5036 33.8889 31.4893 33.6812 31.389C33.3232 31.2172 33.1298 30.9021 33.094 30.4366C33.0582 29.9353 33.2515 29.613 33.7242 29.3695C34.0393 29.212 34.0751 29.2048 36.1949 29.2263C38.3075 29.2478 38.3504 29.2478 38.6154 29.4197ZM22.3018 36.1657C22.5095 36.223 22.7673 36.4235 23.2543 36.8961L23.9131 37.5478L24.5791 36.889C25.3167 36.1514 25.5674 36.0296 26.0544 36.1585C26.5915 36.3018 26.9209 36.7028 26.9209 37.2256C26.9209 37.6767 26.8135 37.8629 26.1546 38.5361L25.5316 39.1663L26.1546 39.7965C26.8135 40.4697 26.9209 40.6559 26.9209 41.107C26.9209 41.6298 26.5915 42.0309 26.0544 42.1741C25.5674 42.303 25.3167 42.1812 24.5791 41.4436L23.9131 40.7848L23.2543 41.4365C22.5095 42.1669 22.2015 42.3102 21.7146 42.1812C21.335 42.081 21.1417 41.9234 20.9769 41.6012C20.669 41.0068 20.7908 40.6845 21.643 39.8252L22.3018 39.1663L21.643 38.5003C20.7979 37.6481 20.669 37.3258 20.9698 36.7386C21.1417 36.4163 21.2491 36.3161 21.6 36.1872C21.9366 36.0726 21.9509 36.0726 22.3018 36.1657ZM38.6154 36.2946C38.9807 36.5166 39.1955 36.9463 39.1454 37.3616C39.1096 37.7197 38.9377 37.9847 38.5939 38.2138C38.3648 38.3786 38.3218 38.3786 36.1447 38.3786C34.247 38.3786 33.8889 38.3642 33.6812 38.264C33.3232 38.0921 33.1298 37.777 33.094 37.3115C33.0582 36.8102 33.2515 36.488 33.7242 36.2445C34.0393 36.0869 34.0751 36.0798 36.1949 36.1012C38.3075 36.1227 38.3504 36.1227 38.6154 36.2946ZM38.5939 40.1116C38.9377 40.3479 39.1096 40.6129 39.1454 40.971C39.1955 41.3863 38.9807 41.816 38.6154 42.038C38.3504 42.2099 38.3075 42.2099 36.1949 42.2314C34.0751 42.2529 34.0393 42.2457 33.7242 42.0881C33.2515 41.8447 33.0582 41.5224 33.094 41.0211C33.1298 40.5628 33.316 40.2477 33.6669 40.0758C33.8674 39.9755 34.2255 39.9541 36.1304 39.9541C38.3218 39.9541 38.3648 39.9541 38.5939 40.1116Z" fill="url(#paint0_linear_53_6129)"/>
<defs>
<linearGradient id="paint0_linear_53_6129" x1="14.7462" y1="30.0021" x2="45.2544" y2="30.0021" gradientUnits="userSpaceOnUse">
<stop stop-color="#087669"/>
<stop offset="1" stop-color="#18A494"/>
</linearGradient>
</defs>
</svg>
