<svg width="32" height="32" viewBox="0 0 32 32" fill="none" xmlns="http://www.w3.org/2000/svg">
<path d="M10.8662 20.5C16.1326 20.5 20.3998 16.8062 20.3998 12.25C20.3998 7.69375 16.1326 4 10.8662 4C5.59976 4 1.33253 7.69375 1.33253 12.25C1.33253 14.0594 2.00631 15.7328 3.14759 17.0969C2.98717 17.5375 2.74883 17.9266 2.49674 18.2547C2.27673 18.5453 2.05214 18.7703 1.88714 18.925C1.80463 19 1.73588 19.0609 1.69005 19.0984C1.66713 19.1172 1.64879 19.1312 1.63963 19.1359L1.63046 19.1453C1.37837 19.3375 1.26836 19.675 1.3692 19.9797C1.47004 20.2844 1.74963 20.5 2.06589 20.5C3.06509 20.5 4.07346 20.2375 4.91224 19.9141C5.33392 19.75 5.7281 19.5672 6.07186 19.3797C7.47899 20.0922 9.1153 20.5 10.8662 20.5ZM21.8666 12.25C21.8666 17.5141 17.3243 21.4797 11.9433 21.9531C13.0571 25.4406 16.7514 28 21.1332 28C22.8841 28 24.5204 27.5922 25.9321 26.8797C26.2759 27.0672 26.6655 27.25 27.0872 27.4141C27.9259 27.7375 28.9343 28 29.9335 28C30.2498 28 30.5339 27.7891 30.6302 27.4797C30.7264 27.1703 30.621 26.8328 30.3644 26.6406L30.3552 26.6312C30.346 26.6219 30.3277 26.6125 30.3048 26.5938C30.2589 26.5562 30.1902 26.5 30.1077 26.4203C29.9427 26.2656 29.7181 26.0406 29.4981 25.75C29.246 25.4219 29.0076 25.0281 28.8472 24.5922C29.9885 23.2328 30.6623 21.5594 30.6623 19.7453C30.6623 15.3953 26.7709 11.8281 21.8345 11.5187C21.8528 11.7578 21.862 12.0016 21.862 12.2453L21.8666 12.25Z" fill="#3A9489"/>
</svg>
