<svg width="32" height="32" viewBox="0 0 32 32" fill="none" xmlns="http://www.w3.org/2000/svg">
<path d="M10.3537 3.89758C8.89473 4.17918 7.78947 5.4784 7.78947 7.04V9.29918C7.78947 10.5984 8.25051 11.808 9.05263 12.7424V9.6C9.05263 7.1296 11.0358 5.12 13.4737 5.12H18.5263C20.9642 5.12 22.9474 7.1296 22.9474 9.6V12.7424C23.7495 11.808 24.2105 10.5984 24.2105 9.29918V7.04C24.2105 3.15519 21.0968 0 17.2632 0H14.7368C12.4947 0 10.6379 1.70238 10.3537 3.89758ZM21.6463 14.08C20.3408 14.1592 18.9502 13.8592 18.2926 13.5231C17.6737 13.2736 17.1432 13.056 16 13.056C13.5671 13.0762 13.5522 14.0971 10.9474 14.08L10.3537 14.08C11.2706 20.8635 20.7311 20.8602 21.6463 14.08ZM21.6842 9.6C21.6842 7.83359 20.2695 6.4 18.5263 6.4H13.4737C11.7305 6.4 10.3158 7.83359 10.3158 9.6V12.8H10.9474C13.3797 12.7796 13.3955 11.7589 16 11.776C18.6048 11.7589 18.6198 12.7795 21.0526 12.8L21.6842 12.8V9.6ZM22.3158 28.16C23.1455 28.1438 23.1454 26.896 22.3158 26.88C21.4861 26.8961 21.4862 28.144 22.3158 28.16ZM23.5095 20.9088L22.9474 20.7872V25.7152C23.68 25.984 24.2105 26.688 24.2105 27.52C24.1387 30.0516 20.4915 30.0508 20.4211 27.5199C20.4211 26.688 20.9516 25.984 21.6842 25.7152V20.512L20.4211 20.2368C20.4182 22.508 18.156 24.3498 16 24.32C13.829 24.3414 11.5904 22.5198 11.5789 20.2368L10.3158 20.512V24.4096C11.4021 24.6976 12.2105 25.6896 12.2105 26.88V28.8C12.2105 29.152 11.9263 29.44 11.5789 29.44H10.9474C10.1191 29.423 10.1162 28.1771 10.9474 28.16L10.9474 26.88C10.9474 26.176 10.3789 25.6 9.68421 25.6C8.98949 25.6 8.42105 26.176 8.42105 26.88V28.16C9.25335 28.1759 9.24807 29.425 8.42101 29.44H7.78947C7.44211 29.44 7.15789 29.152 7.15789 28.8V26.88C7.15789 25.6896 7.96633 24.6976 9.05263 24.4096V20.7872L8.49052 20.9088C5.88842 21.472 4 23.84 4 26.5408V31.36C4 31.712 4.28422 32 4.63158 32H27.3684C27.7158 32 28 31.712 28 31.36V26.5408C28 23.84 26.1116 21.472 23.5095 20.9088ZM13.6758 20.0704C13.3916 19.968 13.1137 19.8464 12.8421 19.7056V20.48C13.1098 21.9528 14.5202 23.0449 16 23.04C17.7432 23.0562 19.3899 21.5062 19.1578 19.7056C17.5027 20.5866 15.4357 20.7277 13.6758 20.0704Z" fill="#3A9489"/>
</svg>
