<svg width="16" height="16" viewBox="0 0 16 16" fill="none" xmlns="http://www.w3.org/2000/svg">
<path d="M3.419 13.7345C3.29765 9.90262 6.84034 9.02538 6.84034 9.02538C6.84034 9.02538 4.41664 15.6 8.89583 15.6C11.5833 15.6 14.2709 13.8083 14.2709 11.1208C14.2709 9.50597 13.4048 7.82621 12.7134 6.7426C12.494 6.39866 11.9669 6.54825 11.9534 6.95601C11.8546 9.93596 9.79167 10.225 9.79167 10.225C9.79167 10.225 10.6875 8.45124 10.6875 6.65956C10.6875 4.06757 8.14471 1.64675 6.71946 0.493443C6.42393 0.254306 5.99352 0.506917 6.05358 0.882303C6.75354 5.25708 1.72913 6.13718 1.72913 11.1388C1.72913 12.5487 2.22229 13.4606 2.69115 14.009C2.94374 14.3044 3.4313 14.123 3.419 13.7345Z" fill="#FF5858"/>
</svg>
