<svg width="16" height="16" viewBox="0 0 16 16" fill="none" xmlns="http://www.w3.org/2000/svg">
<path d="M3.41936 13.7345C3.29802 9.90262 6.8407 9.02538 6.8407 9.02538C6.8407 9.02538 4.41701 15.6 8.8962 15.6C11.5837 15.6 14.2712 13.8083 14.2712 11.1208C14.2712 9.50597 13.4051 7.82621 12.7138 6.7426C12.4943 6.39866 11.9673 6.54825 11.9538 6.95601C11.855 9.93596 9.79203 10.225 9.79203 10.225C9.79203 10.225 10.6879 8.45124 10.6879 6.65956C10.6879 4.06757 8.14508 1.64675 6.71982 0.493443C6.4243 0.254306 5.99389 0.506917 6.05395 0.882303C6.75391 5.25708 1.72949 6.13718 1.72949 11.1388C1.72949 12.5487 2.22266 13.4606 2.69152 14.009C2.94411 14.3044 3.43167 14.123 3.41936 13.7345Z" fill="white"/>
</svg>
