<svg width="20" height="20" viewBox="0 0 20 20" fill="none" xmlns="http://www.w3.org/2000/svg">
<g clip-path="url(#clip0_48_1291)">
<path fill-rule="evenodd" clip-rule="evenodd" d="M0 10.0008C0 17.5496 1.765 19.1675 10 19.1675C18.235 19.1675 20 17.5496 20 10.0008C20 7.92617 19.8667 6.29948 19.5023 5.03126C18.5696 5.96645 17.3924 7.09102 16.1139 8.09271C14.3007 9.51342 12.1046 10.8342 10 10.8342C7.89543 10.8342 5.69935 9.51342 3.88606 8.09271C2.60755 7.09102 1.43044 5.96645 0.497629 5.03125C0.133318 6.29948 0 7.92617 0 10.0008ZM6.66667 13.3342C6.20643 13.3342 5.83333 13.7072 5.83333 14.1675C5.83333 14.6277 6.20643 15.0008 6.66667 15.0008H13.3333C13.7936 15.0008 14.1667 14.6277 14.1667 14.1675C14.1667 13.7072 13.7936 13.3342 13.3333 13.3342H6.66667Z" fill="#FF5858"/>
<path d="M15.0861 6.78057C16.5045 5.66926 17.7997 4.39008 18.7761 3.39491C17.4526 1.39448 14.847 0.833984 9.99999 0.833984C5.15299 0.833984 2.54741 1.39448 1.22388 3.39491C2.20034 4.39008 3.49549 5.66926 4.91394 6.78057C6.70064 8.18042 8.50458 9.16732 9.99999 9.16732C11.4954 9.16732 13.2993 8.18042 15.0861 6.78057Z" fill="#FF5858"/>
</g>
<defs>
<clipPath id="clip0_48_1291">
<rect width="20" height="20" fill="white"/>
</clipPath>
</defs>
</svg>
