<svg width="20" height="20" viewBox="0 0 20 20" fill="none" xmlns="http://www.w3.org/2000/svg">
<path d="M10 0.832031C14.2823 0.832031 17.7665 4.31631 17.7666 8.59863C17.7666 11.0412 15.6172 13.9409 14.3359 15.4521C14.3046 15.4893 11.1556 19.166 10 19.166C9.04407 19.1657 6.49302 16.4162 5.6748 15.4531C4.38953 13.9402 2.2334 11.0376 2.2334 8.59863C2.23356 4.31637 5.71772 0.832128 10 0.832031ZM10 5.83203C8.6194 5.83203 7.50018 6.95147 7.5 8.33203C7.5 9.71274 8.61929 10.832 10 10.832C11.3807 10.832 12.5 9.71274 12.5 8.33203C12.4998 6.95147 11.3806 5.83203 10 5.83203Z" fill="#FF5858"/>
</svg>
