<svg width="20" height="20" viewBox="0 0 20 20" fill="none" xmlns="http://www.w3.org/2000/svg">
<g clip-path="url(#clip0_48_1285)">
<path d="M18.4335 12.8079L16.4341 10.8059C15.5055 9.87604 13.9975 9.80047 13.066 10.7334L12.102 11.6986C12.0704 11.6986 11.8701 12.0271 11.4413 11.9017C10.8976 11.7425 10.4219 11.1828 8.83747 9.59626C8.44068 9.19896 8.1976 8.85401 8.11495 8.57093C8.06117 8.38669 8.04851 8.17905 8.31775 7.90942L9.2817 6.94416C10.2075 6.01723 10.1435 4.50714 9.2093 3.57164L7.2099 1.56962C6.27573 0.634188 4.76754 0.570041 3.84175 1.49708L1.45021 3.89172C1.04871 4.27829 0.84126 4.80964 0.833577 5.47115C0.80321 8.07794 4.18782 12.7054 5.75008 14.2696C7.44062 15.9623 11.9644 19.1675 14.5338 19.1673C15.1364 19.1673 15.6949 19.003 16.112 18.5775L18.5059 16.1804C19.4145 15.2706 19.3821 13.7577 18.4335 12.8079Z" fill="#FF5858"/>
</g>
<defs>
<clipPath id="clip0_48_1285">
<rect width="20" height="20" fill="white"/>
</clipPath>
</defs>
</svg>
