<svg width="32" height="32" viewBox="0 0 32 32" fill="none" xmlns="http://www.w3.org/2000/svg">
<path d="M5.14591 18.7021L14.5574 27.4354C14.948 27.7978 15.4636 27.9997 16.0001 27.9997C16.5365 27.9997 17.0522 27.7978 17.4428 27.4354L26.8542 18.7021C28.4376 17.2371 29.3334 15.1819 29.3334 13.0335V12.7332C29.3334 9.11463 26.7032 6.02924 23.1147 5.43391C20.7397 5.04047 18.323 5.81182 16.6251 7.49946L16.0001 8.12068L15.3751 7.49946C13.6772 5.81182 11.2605 5.04047 8.8855 5.43391C5.29696 6.02924 2.66675 9.11463 2.66675 12.7332V13.0335C2.66675 15.1819 3.56258 17.2371 5.14591 18.7021Z" fill="#FF5858"/>
</svg>
