<svg width="24" height="24" viewBox="0 0 24 24" fill="none" xmlns="http://www.w3.org/2000/svg">
<g clip-path="url(#clip0_24_3277)">
<path d="M20.4301 12.8782L19.9013 13.4821L19.3724 12.8782C18.9849 12.4356 18.4262 12.1818 17.8396 12.1818C16.7163 12.1818 15.8025 13.0956 15.8025 14.2189C15.8025 15.5479 17.1808 17.1127 19.9013 18.8737C22.6217 17.1127 24 15.5479 24 14.2189C24 13.0956 23.0862 12.1818 21.9629 12.1818C21.3763 12.1818 20.8177 12.4356 20.4301 12.8782Z" fill="#3A9489"/>
<path d="M15.6423 17.1547C14.8157 16.1681 14.3966 15.1804 14.3966 14.2189C14.3966 12.3203 15.9411 10.7758 17.8396 10.7758C18.5888 10.7758 19.3108 11.0204 19.9013 11.4622C20.4917 11.0204 21.2138 10.7758 21.9629 10.7758C22.0722 10.7758 22.1803 10.7815 22.287 10.7915C22.5053 10.0935 22.6079 9.41882 22.6079 8.76535C22.6079 5.20283 19.7199 2.31482 16.1573 2.31482C14.2215 2.31482 12.4863 3.16863 11.3039 4.51886C10.1215 3.16863 8.38628 2.31482 6.45053 2.31482C2.88801 2.31487 0 5.20288 0 8.7654C0 12.3208 3.02172 16.4994 11.304 21.6851C13.3387 20.4111 15.0549 19.1981 16.4877 18.0401C16.1693 17.7425 15.8879 17.4478 15.6423 17.1547Z" fill="#3A9489"/>
</g>
<defs>
<clipPath id="clip0_24_3277">
<rect width="24" height="24" fill="white"/>
</clipPath>
</defs>
</svg>
