<svg width="32" height="32" viewBox="0 0 32 32" fill="none" xmlns="http://www.w3.org/2000/svg">
<path d="M9.62311 13.7143H7.3037V11.4286H9.62254L9.62311 13.7143ZM24.695 11.4286H22.3762V13.7143H24.6956L24.695 11.4286ZM17.1588 11.4286H14.8399V13.7143H17.1593L17.1588 11.4286ZM29.3327 5.14286V8H2.66602V5.14286C2.66602 3.56571 3.96456 2.28571 5.56457 2.28571H7.94137C8.20804 0.98284 9.37907 0 10.782 0C12.1848 0 13.3559 0.98284 13.6225 2.28571C13.6631 2.46858 13.6805 2.66284 13.6805 2.85714C13.6805 4.26855 12.6428 5.43998 11.2747 5.67428C10.9906 5.72001 10.782 5.95427 10.782 6.23427C10.782 6.58283 11.095 6.86286 11.4428 6.8057C13.3675 6.49142 14.8399 4.83998 14.8399 2.85714C14.8399 2.66284 14.8283 2.47426 14.7935 2.28571H18.3761C18.6428 0.98284 19.8138 0 21.2167 0C22.6196 0 23.7906 0.98284 24.0573 2.28571C24.0979 2.46858 24.1153 2.66284 24.1153 2.85714C24.1153 4.26855 23.0776 5.43998 21.7095 5.67428C21.4254 5.72001 21.2167 5.95427 21.2167 6.23427C21.2167 6.58283 21.5298 6.86286 21.8776 6.8057C23.8023 6.49142 25.2747 4.83998 25.2747 2.85714C25.2747 2.66284 25.2631 2.47426 25.2283 2.28571H26.4341C28.0341 2.28571 29.3327 3.56571 29.3327 5.14286ZM9.14717 2.28571H12.4167C12.179 1.62284 11.5356 1.14286 10.782 1.14286C10.0283 1.14286 9.38487 1.62284 9.14717 2.28571ZM19.582 2.28571H22.8515C22.6138 1.62284 21.9704 1.14286 21.2167 1.14286C20.4631 1.14286 19.8197 1.62284 19.582 2.28571ZM2.66602 9.14286H29.3327V23.92L27.9298 22.5371L27.837 22.0629C27.6341 21.0629 27.1356 20.1486 26.4052 19.4229L24.695 17.7429C23.924 16.9828 22.9095 16.5714 21.8254 16.5714C20.7414 16.5714 19.7211 16.9828 18.9559 17.7429L18.1327 18.5485L16.411 16.8514C15.9182 16.3657 15.2631 16.0971 14.5675 16.0971C13.8718 16.0971 13.2168 16.3657 12.724 16.8514C11.7095 17.8571 11.7095 19.4857 12.724 20.4857L14.4863 22.2286C14.4341 22.28 14.382 22.3371 14.3414 22.4C13.2747 23.9714 13.495 26.08 14.8515 27.4286H5.56457C3.96456 27.4286 2.66602 26.1486 2.66602 24.5714V9.14286ZM21.2167 13.7143C21.2167 14.3446 21.737 14.8571 22.3762 14.8571H24.695C25.3342 14.8571 25.8544 14.3446 25.8544 13.7143V11.4286C25.8544 10.7983 25.3342 10.2857 24.695 10.2857H22.3762C21.737 10.2857 21.2167 10.7983 21.2167 11.4286V13.7143ZM13.6805 13.7143C13.6805 14.3446 14.2008 14.8571 14.8399 14.8571H17.1588C17.7979 14.8571 18.3182 14.3446 18.3182 13.7143V11.4286C18.3182 10.7983 17.7979 10.2857 17.1588 10.2857H14.8399C14.2008 10.2857 13.6805 10.7983 13.6805 11.4286V13.7143ZM6.14428 13.7143C6.14428 14.3446 6.66454 14.8571 7.3037 14.8571H9.62254C10.2617 14.8571 10.782 14.3446 10.782 13.7143V11.4286C10.782 10.7983 10.2617 10.2857 9.62254 10.2857H7.3037C6.66454 10.2857 6.14428 10.7983 6.14428 11.4286V13.7143ZM6.14428 18.8571C6.14428 19.1727 6.40356 19.4286 6.72399 19.4286H7.88341V20.5714C7.88341 20.887 8.14269 21.1429 8.46312 21.1429C8.78354 21.1429 9.04283 20.887 9.04283 20.5714V19.4286H10.2022C10.5227 19.4286 10.782 19.1727 10.782 18.8571C10.782 18.5416 10.5227 18.2857 10.2022 18.2857H9.04283V17.1429C9.04283 16.8273 8.78354 16.5714 8.46312 16.5714C8.14269 16.5714 7.88341 16.8273 7.88341 17.1429V18.2857H6.72399C6.40356 18.2857 6.14428 18.5416 6.14428 18.8571ZM21.1307 30.3838L22.7704 32L29.3327 25.5315L27.693 23.9152L21.1307 30.3838ZM26.6977 22.2878C26.5398 21.5097 26.1517 20.7949 25.5824 20.2337L23.8731 18.5488C22.7411 17.4331 20.9059 17.433 19.7739 18.5488L18.1342 20.1651L15.5928 17.6599C15.0268 17.102 14.1092 17.102 13.5432 17.6599C12.9772 18.2178 12.9772 19.1223 13.5432 19.6802L18.1342 24.2057C18.3597 24.4279 18.3638 24.7875 18.1383 25.0098C17.9088 25.2361 17.5399 25.2361 17.3185 25.0098L15.3058 23.0339C14.5598 24.133 14.6868 25.6482 15.6789 26.626L17.3882 28.319C17.958 28.8726 18.6753 29.2565 19.4665 29.406L20.3109 29.5757L26.8655 23.1147L26.6977 22.2878Z" fill="#3A9489"/>
</svg>
