<svg width="24" height="24" viewBox="0 0 24 24" fill="none" xmlns="http://www.w3.org/2000/svg">
<path fill-rule="evenodd" clip-rule="evenodd" d="M6.99881 3.35092C7.46619 3.08329 8.01924 3.09897 8.47032 3.31901C10.6791 4.39652 13.3241 4.39764 15.5338 3.32203C15.99 3.09999 16.5499 3.08706 17.0194 3.36284L20.4858 5.39865C20.8005 5.58863 20.9987 5.93672 20.9999 6.30508L20.9999 6.30656C21.0015 12.2607 17.7298 17.8809 12.5741 20.8467C12.2223 21.0489 11.7777 21.049 11.4259 20.8468C6.25378 17.8716 2.97915 12.2258 2.99998 6.25291C3.00117 5.88455 3.19938 5.53649 3.51407 5.34652L3.52395 5.34055L6.99881 3.35092ZM10.6875 8.8125C10.6875 8.4048 10.6875 8.20095 10.7541 8.04015C10.8429 7.82575 11.0133 7.65541 11.2277 7.56661C11.3885 7.5 11.5923 7.5 12 7.5C12.4077 7.5 12.6115 7.5 12.7723 7.56661C12.9867 7.65541 13.1571 7.82575 13.2459 8.04015C13.3125 8.20095 13.3125 8.4048 13.3125 8.8125V9.6455C13.3125 9.6653 13.3125 9.6752 13.3187 9.68135C13.3248 9.6875 13.3347 9.6875 13.3545 9.6875H14.1875C14.5952 9.6875 14.799 9.6875 14.9598 9.75411C15.1742 9.84291 15.3446 10.0133 15.4334 10.2277C15.5 10.3885 15.5 10.5923 15.5 11C15.5 11.4077 15.5 11.6115 15.4334 11.7723C15.3446 11.9867 15.1742 12.1571 14.9598 12.2459C14.799 12.3125 14.5952 12.3125 14.1875 12.3125H13.3545C13.3347 12.3125 13.3248 12.3125 13.3187 12.3187C13.3125 12.3248 13.3125 12.3347 13.3125 12.3545V13.1875C13.3125 13.5952 13.3125 13.799 13.2459 13.9598C13.1571 14.1742 12.9867 14.3446 12.7723 14.4334C12.6115 14.5 12.4077 14.5 12 14.5C11.5923 14.5 11.3885 14.5 11.2277 14.4334C11.0133 14.3446 10.8429 14.1742 10.7541 13.9598C10.6875 13.799 10.6875 13.5952 10.6875 13.1875V12.3545C10.6875 12.3347 10.6875 12.3248 10.6813 12.3187C10.6752 12.3125 10.6653 12.3125 10.6455 12.3125H9.8125C9.4048 12.3125 9.20095 12.3125 9.04015 12.2459C8.82575 12.1571 8.65541 11.9867 8.56661 11.7723C8.5 11.6115 8.5 11.4077 8.5 11C8.5 10.5923 8.5 10.3885 8.56661 10.2277C8.65541 10.0133 8.82575 9.84291 9.04015 9.75411C9.20095 9.6875 9.4048 9.6875 9.8125 9.6875H10.6455C10.6653 9.6875 10.6752 9.6875 10.6813 9.68135C10.6875 9.6752 10.6875 9.6653 10.6875 9.6455V8.8125Z" fill="white"/>
</svg>
