<svg width="16" height="16" viewBox="0 0 16 16" fill="none" xmlns="http://www.w3.org/2000/svg">
<path d="M11.6632 3.78935C12.1477 3.23576 12.9896 3.17868 13.544 3.66338L13.6427 3.7581C14.0725 4.21892 14.1198 4.92247 13.755 5.43681L13.671 5.54423L6.92099 13.2581L2.41416 8.96611C1.88149 8.45875 1.85981 7.6149 2.36728 7.08134L2.46591 6.98662C2.9445 6.57641 3.65089 6.55826 4.14951 6.94463L4.25302 7.03447L6.74521 9.40752L11.6632 3.78935ZM13.169 5.10576L6.87705 12.2952L2.87412 8.48271V8.48369L6.87705 12.2962L13.169 5.10576C13.1979 5.07269 13.222 5.03692 13.2433 5.00029C13.222 5.03691 13.1979 5.07269 13.169 5.10576ZM13.2638 4.95634C13.2759 4.93143 13.2882 4.90703 13.297 4.88115C13.2882 4.90703 13.2759 4.93143 13.2638 4.95634ZM13.3087 4.83427C13.3147 4.81118 13.3208 4.7884 13.3243 4.76494C13.3208 4.78841 13.3147 4.81118 13.3087 4.83427ZM13.3302 4.68974C13.3307 4.67342 13.3318 4.65722 13.3311 4.64091C13.3318 4.65723 13.3307 4.67341 13.3302 4.68974ZM13.3253 4.58427C13.3222 4.55993 13.3183 4.53593 13.3126 4.51201C13.3183 4.53594 13.3222 4.55992 13.3253 4.58427ZM13.2979 4.46318C13.2912 4.44236 13.2843 4.42184 13.2755 4.40166C13.2843 4.42184 13.2913 4.44235 13.2979 4.46318ZM13.2462 4.34404C13.2355 4.32479 13.2247 4.30569 13.212 4.2874C13.2247 4.3057 13.2355 4.32478 13.2462 4.34404ZM13.1749 4.23955C13.1676 4.23089 13.1622 4.22056 13.1544 4.2122L13.1134 4.17412C13.1359 4.19459 13.1558 4.21684 13.1749 4.23955Z" fill="#FF5858"/>
</svg>
