<svg width="20" height="20" viewBox="0 0 20 20" fill="none" xmlns="http://www.w3.org/2000/svg">
<path d="M0.545828 8.48401C0.192497 7.52961 -0.0633638 6.5549 0.0138005 5.51928C0.0625358 4.88165 0.302151 4.33744 0.769198 3.8907C1.27686 3.41147 1.75609 2.90787 2.25563 2.42052C2.90543 1.77884 3.72175 1.7829 4.37155 2.42052C4.77362 2.81446 5.17162 3.21653 5.56963 3.6186C5.95545 4.00442 6.34533 4.39024 6.73115 4.78012C7.40939 5.46648 7.41345 6.26655 6.73521 6.94884C6.24786 7.4362 5.76457 7.92761 5.26909 8.40684C5.13913 8.53274 5.12695 8.63834 5.19599 8.79673C5.52089 9.57649 5.992 10.271 6.51997 10.9208C7.58402 12.2285 8.78616 13.39 10.2198 14.2876C10.5284 14.4785 10.8655 14.6206 11.1864 14.7952C11.3529 14.8846 11.4625 14.8562 11.5966 14.7181C12.0799 14.2185 12.5753 13.7271 13.0708 13.2357C13.7206 12.594 14.5329 12.59 15.1827 13.2357C15.9787 14.0236 16.7706 14.8155 17.5585 15.6115C18.2205 16.2776 18.2164 17.0939 17.5504 17.764C17.0996 18.2189 16.6244 18.6494 16.2021 19.1246C15.5847 19.815 14.805 20.0424 13.9196 19.9937C12.6281 19.9246 11.4382 19.4941 10.2888 18.9377C7.73835 17.699 5.5615 15.9811 3.73799 13.8124C2.38965 12.2041 1.27686 10.4578 0.545828 8.48401ZM19.9993 9.93794C19.9993 4.45928 15.5401 0 10.0614 0V1.89255C14.4963 1.89255 18.1068 5.50303 18.1068 9.93794H19.9993ZM14.5572 9.93794H16.4498C16.4498 6.41682 13.5825 3.54956 10.0614 3.54956V5.44211C11.2635 5.44211 12.3926 5.90916 13.2414 6.75796C14.0902 7.60677 14.5572 8.73581 14.5572 9.93794Z" fill="#3A9489"/>
</svg>
