<svg width="24" height="24" viewBox="0 0 24 24" fill="none" xmlns="http://www.w3.org/2000/svg">
<path d="M4.92694 13.0036C4.37466 13.0036 3.92694 12.5559 3.92694 12.0036C3.92694 11.4513 4.37466 11.0036 4.92694 11.0036L19.0646 11.0036C19.6169 11.0036 20.0646 11.4513 20.0646 12.0036C20.0646 12.5559 19.6169 13.0036 19.0646 13.0036L4.92694 13.0036Z" fill="white"/>
<path d="M13.0007 19.0663C13.0007 19.6186 12.553 20.0663 12.0007 20.0663C11.4484 20.0663 11.0007 19.6186 11.0007 19.0663L11.0007 4.92862C11.0007 4.37634 11.4485 3.92862 12.0007 3.92862C12.553 3.92862 13.0007 4.37634 13.0007 4.92862L13.0007 19.0663Z" fill="white"/>
</svg>
