<svg width="72" height="72" viewBox="0 0 72 72" fill="none" xmlns="http://www.w3.org/2000/svg">
<rect width="72" height="72" rx="36" fill="#D5D9DE"/>
<path d="M43.6128 41.7228C44.1335 42.2435 44.1335 43.0878 43.6128 43.6085C43.0921 44.1292 42.2479 44.1292 41.7272 43.6085L28.398 30.2793C27.8773 29.7586 27.8773 28.9144 28.398 28.3937C28.9187 27.873 29.7629 27.873 30.2836 28.3937L43.6128 41.7228Z" fill="#5D5D5D"/>
<path d="M41.7167 28.3948C42.2374 27.8741 43.0817 27.8741 43.6024 28.3948C44.1231 28.9155 44.1231 29.7597 43.6024 30.2804L30.2732 43.6096C29.7525 44.1303 28.9083 44.1303 28.3876 43.6096C27.8669 43.0889 27.8669 42.2446 28.3876 41.7239L41.7167 28.3948Z" fill="#5D5D5D"/>
</svg>
