<svg width="34" height="26" viewBox="0 0 34 26" fill="none" xmlns="http://www.w3.org/2000/svg">
<path opacity="0.4" d="M8.36066 0C10.6831 0 12.6803 0.847826 14.3525 2.54348C16.1175 4.23913 17 6.26449 17 8.61957C17 12.1993 15.8852 15.4493 13.6557 18.3696C11.4262 21.3841 8.5929 23.9275 5.15574 26L2.5082 23.7391C3.43716 22.9855 4.27323 21.9493 5.0164 20.6304C5.75956 19.3116 6.27049 18.0399 6.54918 16.8152C4.59836 16.3442 3.01913 15.3551 1.81148 13.8478C0.603826 12.3406 0 10.5978 0 8.61957C0 6.26449 0.836066 4.23913 2.5082 2.54348C4.18033 0.847826 6.13115 0 8.36066 0ZM25.6393 0C27.9618 0 29.9126 0.847826 31.4918 2.54348C33.1639 4.23913 34 6.26449 34 8.61957C34 12.1993 32.8852 15.4493 30.6557 18.3696C28.5191 21.3841 25.7322 23.9275 22.2951 26L19.6475 23.7391C20.5765 22.8913 21.4126 21.808 22.1557 20.4891C22.9918 19.2645 23.5027 18.0399 23.6885 16.8152C21.7377 16.3442 20.112 15.3551 18.8115 13.8478C17.6038 12.3406 17 10.5978 17 8.61957C17 6.26449 17.8361 4.23913 19.5082 2.54348C21.2732 0.847826 23.3169 0 25.6393 0Z" fill="#3A9489"/>
</svg>
