<svg width="32" height="32" viewBox="0 0 32 32" fill="none" xmlns="http://www.w3.org/2000/svg">
<g clip-path="url(#clip0_2093_1074)">
<path d="M14.2844 1.96893L10.5845 10.4491L1.74422 11.092C-0.213267 11.2349 -0.440075 13.3656 0.649771 14.333L7.56239 20.469L5.45114 29.0834C5.04963 30.7215 7.08016 31.7759 8.19077 31.1242L16.1696 26.4429C16.1696 26.4429 21.197 29.559 23.7108 31.1172C25.1439 32.0054 26.77 30.3975 26.4929 29.1403C25.8291 26.1275 24.5017 20.1023 24.5017 20.1023L31.2731 14.3831C32.7744 13.1148 31.7091 11.2554 30.2563 11.1139L21.056 10.2176L17.702 2.01271C16.8285 -0.124082 14.9299 0.490021 14.2843 1.97241L14.2844 1.96893Z" fill="#3A9489"/>
</g>
<defs>
<clipPath id="clip0_2093_1074">
<rect width="32" height="32" fill="white"/>
</clipPath>
</defs>
</svg>
