<svg width="32" height="32" viewBox="0 0 32 32" fill="none" xmlns="http://www.w3.org/2000/svg">
<g clip-path="url(#clip0_2093_13721)">
<path d="M6.66284 1.82858L6.29715 0H13.1314L12.7657 1.82858C12.7143 2.09141 12.48 2.28571 12.2057 2.28571H7.22287C6.94856 2.28571 6.71429 2.09141 6.66284 1.82858ZM13.7143 12C13.7143 14.2054 11.9199 16 9.71429 16C7.50865 16 5.71429 14.2054 5.71429 12C5.71429 9.79464 7.50865 8 9.71429 8C11.9199 8 13.7143 9.79464 13.7143 12ZM12 12C12 11.6842 11.7441 11.4286 11.4286 11.4286H10.2857V10.2857C10.2857 9.96987 10.0299 9.71429 9.71429 9.71429C9.39871 9.71429 9.14286 9.96987 9.14286 10.2857V11.4286H8C7.68443 11.4286 7.42857 11.6842 7.42857 12C7.42857 12.3158 7.68443 12.5714 8 12.5714H9.14286V13.7143C9.14286 14.0301 9.39871 14.2857 9.71429 14.2857C10.0299 14.2857 10.2857 14.0301 10.2857 13.7143V12.5714H11.4286C11.7441 12.5714 12 12.3158 12 12ZM11.4286 29.1429C11.4286 30.2628 11.8914 31.2743 12.6343 32H2.28571C1.02285 32 0 30.9771 0 29.7143V2.28571C0 1.02285 1.02285 0 2.28571 0H5.13142L5.54286 2.05141C5.70285 2.85142 6.40573 3.42857 7.22286 3.42857H12.2057C13.0228 3.42857 13.7257 2.85142 13.8857 2.05141L14.2971 0H17.1429C18.4057 0 19.4286 1.02285 19.4286 2.28571V17.1429H15.4286C13.2229 17.1429 11.4286 18.9371 11.4286 21.1429L11.4286 29.1429ZM9.71429 17.1429C12.5499 17.1429 14.8571 14.8359 14.8571 12C14.8571 9.16406 12.5499 6.85714 9.71429 6.85714C6.87863 6.85714 4.57143 9.16406 4.57143 12C4.57143 14.8359 6.87863 17.1429 9.71429 17.1429ZM18.5714 25.7143C17.4687 25.7143 16.5714 26.6116 16.5714 27.7143V28H20.5714V27.7143C20.5714 26.6116 19.6741 25.7143 18.5714 25.7143ZM18.5714 24.5714C19.2017 24.5714 19.7143 24.0586 19.7143 23.4286C19.7143 22.7985 19.2017 22.2857 18.5714 22.2857C17.9411 22.2857 17.4286 22.7985 17.4286 23.4286C17.4286 24.0586 17.9411 24.5714 18.5714 24.5714ZM32 21.1429V29.1429C32 30.7182 30.7182 32 29.1429 32H15.4286C13.8532 32 12.5714 30.7182 12.5714 29.1429V21.1429C12.5714 19.5675 13.8532 18.2857 15.4286 18.2857H29.1429C30.7182 18.2857 32 19.5675 32 21.1429ZM22.8571 22.8571C22.8571 23.173 23.113 23.4286 23.4286 23.4286H24C24.3156 23.4286 24.5714 23.173 24.5714 22.8571C24.5714 22.5413 24.3156 22.2857 24 22.2857H23.4286C23.113 22.2857 22.8571 22.5413 22.8571 22.8571ZM21.7143 27.7143C21.7143 26.5774 21.1052 25.5823 20.1982 25.0304C20.6048 24.6176 20.8571 24.0525 20.8571 23.4286C20.8571 22.168 19.8318 21.1429 18.5714 21.1429C17.3111 21.1429 16.2857 22.168 16.2857 23.4286C16.2857 24.0525 16.5381 24.6176 16.9446 25.0304C16.0376 25.5823 15.4286 26.5774 15.4286 27.7143V28.5714C15.4286 28.8873 15.6844 29.1429 16 29.1429H21.1429C21.4584 29.1429 21.7143 28.8873 21.7143 28.5714V27.7143ZM29.1429 25.1429C29.1429 24.827 28.887 24.5714 28.5714 24.5714H23.4286C23.113 24.5714 22.8571 24.827 22.8571 25.1429C22.8571 25.4587 23.113 25.7143 23.4286 25.7143H28.5714C28.887 25.7143 29.1429 25.4587 29.1429 25.1429ZM29.1429 22.8571C29.1429 22.5413 28.887 22.2857 28.5714 22.2857H26.2857C25.9701 22.2857 25.7143 22.5413 25.7143 22.8571C25.7143 23.173 25.9701 23.4286 26.2857 23.4286H28.5714C28.887 23.4286 29.1429 23.173 29.1429 22.8571Z" fill="#3A9489"/>
</g>
<defs>
<clipPath id="clip0_2093_13721">
<rect width="32" height="32" fill="white"/>
</clipPath>
</defs>
</svg>
