<svg width="24" height="24" viewBox="0 0 24 24" fill="none" xmlns="http://www.w3.org/2000/svg">
<g clip-path="url(#clip0_25_440)">
<path d="M24 21C24 22.6542 22.654 24 21 24H3C1.34577 24 0 22.6542 0 21C0 20.7633 0.191893 20.5714 0.428571 20.5714H9.85714C9.97077 20.5714 10.0798 20.6166 10.1602 20.697L10.4632 21H13.5368L13.8398 20.697C13.9202 20.6166 14.0292 20.5714 14.1429 20.5714H23.5714C23.8083 20.5714 24 20.7633 24 21ZM3.42857 7.71429H2.57143C1.62428 7.71429 0.857143 8.48142 0.857143 9.42857V19.7143H3.42857V7.71429ZM23.1429 9.42857C23.1429 8.48142 22.3757 7.71429 21.4286 7.71429H20.5714V19.7143H23.1429V9.42857ZM7.71429 1.71429H5.57143C4.86428 1.71429 4.28571 2.29285 4.28571 3V3.85714H7.71429V1.71429ZM15.4286 3.85714H8.57143V1.71429H9.84856C10.0628 0.698572 10.9243 0 11.9486 0C12.9643 0 13.8257 0.698571 14.0443 1.69713L15.4286 1.71429L15.4286 3.85714ZM12.4286 2.13857C12.4286 1.90286 12.2357 1.71 12 1.71C11.7643 1.71 11.5714 1.90286 11.5714 2.13857C11.5714 2.37428 11.7643 2.56714 12 2.56714C12.2357 2.56714 12.4286 2.37428 12.4286 2.13857ZM19.7143 3C19.7143 2.29285 19.1357 1.71429 18.4286 1.71429H16.2857V3.85714H19.7143V3ZM11.5714 9.85714V11.1429H12.4286V9.85714C12.4286 9.62026 12.6205 9.42857 12.8571 9.42857H14.1429V8.57143H12.8571C12.6205 8.57143 12.4286 8.37974 12.4286 8.14286V6.85714H11.5714V8.14286C11.5714 8.37974 11.3795 8.57143 11.1429 8.57143H9.85714V9.42857H11.1429C11.3795 9.42857 11.5714 9.62026 11.5714 9.85714ZM9.85714 19.7143H4.28571V4.71429H19.7143V19.7143H14.1429C13.8 19.7143 13.4786 19.8471 13.2343 20.0914L13.1829 20.1429H10.8171L10.7657 20.0914C10.5214 19.8471 10.2 19.7143 9.85714 19.7143ZM17.1429 16.9286C17.1429 16.9286 11.3914 16.9286 11.3915 16.9286C10.827 16.9395 10.8302 17.7755 11.3914 17.7857H17.1429C17.7073 17.7748 17.7041 16.9388 17.1429 16.9286ZM17.1429 13.9286C17.1429 13.9286 11.3914 13.9286 11.3915 13.9286C10.827 13.9395 10.8302 14.7755 11.3914 14.7857H17.1429C17.7073 14.7748 17.7041 13.9388 17.1429 13.9286ZM9 9.42857C9 9.89999 9.38572 10.2857 9.85714 10.2857H10.7143V11.1429C10.7143 11.6143 11.1 12 11.5714 12H12.4286C12.9 12 13.2857 11.6143 13.2857 11.1429V10.2857H14.1429C14.6143 10.2857 15 9.89999 15 9.42857V8.57143C15 8.09998 14.6143 7.71429 14.1429 7.71429H13.2857V6.85714C13.2857 6.3857 12.9 6 12.4286 6H11.5714C11.1 6 10.7143 6.3857 10.7143 6.85714V7.71429H9.85714C9.38572 7.71429 9 8.09998 9 8.57143V9.42857ZM6.55285 14.6614L7.40999 15.5186C7.57983 15.6837 7.84874 15.6837 8.01858 15.5186L9.73287 13.8043C10.128 13.4061 9.52405 12.8004 9.12428 13.1957L7.71429 14.61L7.16144 14.0528C6.99429 13.8857 6.72 13.8857 6.55285 14.0528C6.38573 14.2243 6.38573 14.4943 6.55285 14.6614ZM9.73287 16.8043C10.128 16.4061 9.52405 15.8004 9.12428 16.1957L7.71429 17.61L7.16144 17.0528C6.99429 16.8857 6.72 16.8857 6.55285 17.0528C6.38573 17.2243 6.38573 17.4943 6.55285 17.6614L7.40999 18.5186C7.57983 18.6837 7.84874 18.6837 8.01858 18.5186L9.73287 16.8043Z" fill="#3A9489"/>
</g>
<defs>
<clipPath id="clip0_25_440">
<rect width="24" height="24" fill="white"/>
</clipPath>
</defs>
</svg>
