<svg width="22" height="22" viewBox="0 0 22 22" fill="none" xmlns="http://www.w3.org/2000/svg">
<path fill-rule="evenodd" clip-rule="evenodd" d="M10.0833 3.66732C6.53949 3.66732 3.66665 6.54016 3.66665 10.084C3.66665 13.6278 6.53949 16.5007 10.0833 16.5007C13.6271 16.5007 16.5 13.6278 16.5 10.084C16.5 6.54016 13.6271 3.66732 10.0833 3.66732ZM1.83331 10.084C1.83331 5.52764 5.52696 1.83398 10.0833 1.83398C14.6397 1.83398 18.3333 5.52764 18.3333 10.084C18.3333 14.6403 14.6397 18.334 10.0833 18.334C5.52696 18.334 1.83331 14.6403 1.83331 10.084Z" fill="#DCF5F0"/>
<path fill-rule="evenodd" clip-rule="evenodd" d="M14.9351 14.9365C15.2931 14.5785 15.8735 14.5785 16.2315 14.9365L19.8981 18.6031C20.2561 18.9611 20.2561 19.5415 19.8981 19.8995C19.5402 20.2575 18.9598 20.2575 18.6018 19.8995L14.9351 16.2328C14.5771 15.8748 14.5771 15.2944 14.9351 14.9365Z" fill="#DCF5F0"/>
</svg>
