<svg width="22" height="22" viewBox="0 0 22 22" fill="none" xmlns="http://www.w3.org/2000/svg">
<path fill-rule="evenodd" clip-rule="evenodd" d="M10.083 3.66668C6.53918 3.66668 3.66634 6.53952 3.66634 10.0833C3.66634 13.6272 6.53918 16.5 10.083 16.5C13.6268 16.5 16.4997 13.6272 16.4997 10.0833C16.4997 6.53952 13.6268 3.66668 10.083 3.66668ZM1.83301 10.0833C1.83301 5.52699 5.52666 1.83334 10.083 1.83334C14.6394 1.83334 18.333 5.52699 18.333 10.0833C18.333 14.6397 14.6394 18.3333 10.083 18.3333C5.52666 18.3333 1.83301 14.6397 1.83301 10.0833Z" fill="#3A9489"/>
<path fill-rule="evenodd" clip-rule="evenodd" d="M14.9345 14.9352C15.2925 14.5772 15.8729 14.5772 16.2309 14.9352L19.8975 18.6018C20.2555 18.9598 20.2555 19.5402 19.8975 19.8982C19.5395 20.2562 18.9591 20.2562 18.6012 19.8982L14.9345 16.2315C14.5765 15.8736 14.5765 15.2932 14.9345 14.9352Z" fill="#3A9489"/>
</svg>
