<svg width="40" height="40" viewBox="0 0 40 40" fill="none" xmlns="http://www.w3.org/2000/svg">
<path d="M35 19.9998C35 11.7156 28.2843 4.99984 20 4.99984C11.7157 4.99984 5.00002 11.7156 5.00002 19.9998C5.00002 28.2841 11.7157 34.9998 20 34.9998C28.2843 34.9998 35 28.2841 35 19.9998ZM25.3353 22.3289C25.8882 21.5958 26.9309 21.449 27.666 22.0002C28.4023 22.5524 28.5517 23.5962 27.9997 24.3325L26.6667 23.3332C27.9732 24.3131 27.9996 24.3332 27.9997 24.3341L27.9964 24.3374C27.9951 24.3392 27.9932 24.3417 27.9916 24.3439C27.9882 24.3483 27.9848 24.3542 27.9802 24.3602C27.9709 24.3722 27.9587 24.3877 27.9444 24.4058C27.9157 24.442 27.8759 24.4893 27.8272 24.5474C27.7294 24.6638 27.5912 24.8228 27.4138 25.008C27.0603 25.3767 26.5434 25.8619 25.8757 26.3475C24.5458 27.3147 22.5424 28.3332 20 28.3332C17.4576 28.3332 15.4543 27.3147 14.1244 26.3475C13.4566 25.8619 12.9397 25.3767 12.5863 25.008C12.4089 24.8228 12.2706 24.6638 12.1729 24.5474C12.1241 24.4893 12.0844 24.442 12.0557 24.4058C12.0414 24.3877 12.0291 24.3722 12.0199 24.3602C12.0153 24.3542 12.0118 24.3483 12.0085 24.3439C12.0068 24.3417 12.005 24.3392 12.0036 24.3374L12.0003 24.3341C12.0005 24.3332 12.0268 24.3131 13.3334 23.3332L12.0003 24.3325C11.4483 23.5962 11.5977 22.5524 12.334 22.0002C13.0698 21.4485 14.1122 21.5973 14.6647 22.3322H14.6664L14.6647 22.3289C14.666 22.3306 14.6675 22.3328 14.6696 22.3355C14.6795 22.348 14.6974 22.3726 14.725 22.4054C14.7801 22.4712 14.8701 22.573 14.9919 22.7C15.2373 22.9562 15.6064 23.3048 16.084 23.6522C17.0458 24.3516 18.3759 24.9998 20 24.9998C21.6241 24.9998 22.9543 24.3516 23.916 23.6522C24.3936 23.3048 24.7627 22.9562 25.0082 22.7C25.1299 22.573 25.2199 22.4712 25.2751 22.4054C25.3027 22.3726 25.3205 22.348 25.3304 22.3355C25.333 22.3322 25.334 22.329 25.3353 22.3273V22.3289ZM16.6667 13.3332C17.5872 13.3332 18.3334 14.0794 18.3334 14.9998C18.3334 15.9203 17.5872 16.6665 16.6667 16.6665H13.3334C12.4129 16.6665 11.6667 15.9203 11.6667 14.9998C11.6667 14.0794 12.4129 13.3332 13.3334 13.3332H16.6667ZM26.6667 13.3332C27.5872 13.3332 28.3334 14.0794 28.3334 14.9998C28.3334 15.9203 27.5872 16.6665 26.6667 16.6665H23.3334C22.4129 16.6665 21.6667 15.9203 21.6667 14.9998C21.6667 14.0794 22.4129 13.3332 23.3334 13.3332H26.6667ZM38.3334 19.9998C38.3334 30.1251 30.1252 38.3332 20 38.3332C9.8748 38.3332 1.66669 30.1251 1.66669 19.9998C1.66669 9.87462 9.8748 1.6665 20 1.6665C30.1252 1.6665 38.3334 9.87462 38.3334 19.9998Z" fill="#3A9489"/>
</svg>
