<svg width="20" height="20" viewBox="0 0 20 20" fill="none" xmlns="http://www.w3.org/2000/svg">
<path d="M8.92773 0.838737L6.61529 6.13887L1.09014 6.54068C-0.133292 6.63 -0.275047 7.96166 0.406107 8.56626L4.72649 12.4013L3.40696 17.7853C3.15602 18.8091 4.4251 19.4681 5.11923 19.0608L10.106 16.135C10.106 16.135 13.2482 18.0826 14.8192 19.0564C15.715 19.6115 16.7313 18.6066 16.5581 17.8208C16.1432 15.9379 15.3136 12.1721 15.3136 12.1721L19.5457 8.5976C20.484 7.80489 19.8182 6.64276 18.9102 6.55432L13.16 5.99413L11.0638 0.8661C10.5178 -0.469397 9.3312 -0.0855823 8.92769 0.840913L8.92773 0.838737Z" fill="#F6B756"/>
</svg>
