<svg width="20" height="20" viewBox="0 0 20 20" fill="none" xmlns="http://www.w3.org/2000/svg">
<g clip-path="url(#clip0_35_667)">
<path d="M10.0137 1.41406C10.0433 1.45027 10.0892 1.51716 10.1377 1.63574L12.2344 6.76367L12.4629 7.32227L13.0635 7.38086L18.8135 7.94141C18.8415 7.94418 18.8791 7.95668 18.918 7.98633C18.9582 8.01697 18.9834 8.0536 18.9941 8.08008C18.9987 8.0914 18.9997 8.09866 19 8.10156C19.0002 8.10342 19.0002 8.1045 19 8.10547C18.9998 8.1064 18.9969 8.11598 18.9854 8.13379C18.9795 8.14289 18.9707 8.15559 18.957 8.1709L18.9004 8.22559L14.668 11.7998L14.207 12.1895L14.3369 12.7793L14.3379 12.7812C14.3383 12.7831 14.3391 12.7864 14.3398 12.79C14.3414 12.7972 14.3437 12.8076 14.3467 12.8213C14.3529 12.8493 14.3613 12.8911 14.373 12.9443C14.3965 13.0509 14.4306 13.2054 14.4727 13.3965C14.5569 13.7789 14.6741 14.3091 14.8037 14.8975C15.0602 16.0616 15.3668 17.4562 15.5742 18.3975C15.5727 18.4023 15.571 18.4097 15.5674 18.418C15.5483 18.4617 15.5106 18.5156 15.459 18.5576C15.41 18.5975 15.3744 18.6059 15.3652 18.6074C15.3621 18.6063 15.3553 18.6036 15.3457 18.5977C14.5602 18.1108 13.3821 17.3809 12.4004 16.7725C11.9094 16.4682 11.4676 16.1939 11.1484 15.9961C10.9889 15.8972 10.8595 15.8169 10.7705 15.7617C10.7263 15.7343 10.6922 15.7127 10.6689 15.6982C10.6572 15.691 10.6476 15.6863 10.6416 15.6826C10.6386 15.6808 10.6363 15.6787 10.6348 15.6777L10.6338 15.6768H10.6328L10.1201 15.3584L9.59961 15.6641L4.63965 18.5732C4.63466 18.5733 4.62764 18.5741 4.61914 18.5732C4.57194 18.5686 4.50925 18.5491 4.45312 18.5127C4.42543 18.4947 4.40675 18.4773 4.39453 18.4639L4.375 18.4365C4.37514 18.4331 4.37521 18.4262 4.37793 18.415L5.69727 13.0312L5.84082 12.4453L5.39062 12.0449L1.07031 8.20996C1.04945 8.19144 1.02597 8.15882 1.01172 8.11133C0.997094 8.06254 0.998037 8.01807 1.00488 7.99023C1.00779 7.97859 1.01124 7.97224 1.0127 7.96973C1.01367 7.96811 1.01405 7.9673 1.01465 7.9668C1.01505 7.96646 1.02192 7.96053 1.04102 7.95312C1.06088 7.94546 1.09981 7.93431 1.16309 7.92969L6.6875 7.52832L7.29004 7.48438L7.53223 6.93066L9.84375 1.63086L9.84473 1.63184C9.88511 1.53914 9.94043 1.47081 9.99023 1.42969C9.99828 1.42306 10.007 1.41869 10.0137 1.41406Z" stroke="#F6B756" stroke-width="2"/>
<path d="M10.0001 16.5879L5.11927 19.4521C4.42514 19.8595 3.15641 19.2006 3.40736 18.1768L4.72669 12.793L0.406379 8.95801C-0.274742 8.35344 -0.133297 7.02205 1.08997 6.93262L6.61536 6.53027L8.92786 1.23047V1.23242C9.13898 0.747936 9.56438 0.415719 10.0001 0.396484V16.5879Z" fill="#F6B756"/>
</g>
<defs>
<clipPath id="clip0_35_667">
<rect width="20" height="20" fill="white"/>
</clipPath>
</defs>
</svg>
