<svg width="20" height="20" viewBox="0 0 20 20" fill="none" xmlns="http://www.w3.org/2000/svg">
<path d="M10.0137 1.02246C10.0433 1.05867 10.0892 1.12556 10.1377 1.24414L12.2344 6.37207L12.4629 6.93066L13.0635 6.98926L18.8135 7.5498C18.8415 7.55258 18.8791 7.56508 18.918 7.59473C18.9582 7.62536 18.9834 7.662 18.9941 7.68848C18.9987 7.6998 18.9997 7.70706 19 7.70996C19.0002 7.71182 19.0002 7.7129 19 7.71387C18.9998 7.7148 18.9969 7.72438 18.9854 7.74219C18.9795 7.75129 18.9707 7.76399 18.957 7.7793L18.9004 7.83398L14.668 11.4082L14.207 11.7979L14.3369 12.3877L14.3379 12.3896C14.3383 12.3915 14.3391 12.3948 14.3398 12.3984C14.3414 12.4056 14.3437 12.416 14.3467 12.4297C14.3529 12.4577 14.3613 12.4995 14.373 12.5527C14.3965 12.6593 14.4306 12.8138 14.4727 13.0049C14.5569 13.3873 14.6741 13.9175 14.8037 14.5059C15.0602 15.67 15.3668 17.0646 15.5742 18.0059C15.5727 18.0107 15.571 18.0181 15.5674 18.0264C15.5483 18.0701 15.5106 18.124 15.459 18.166C15.41 18.2058 15.3744 18.2143 15.3652 18.2158C15.3621 18.2147 15.3553 18.212 15.3457 18.2061C14.5602 17.7192 13.3821 16.9893 12.4004 16.3809C11.9094 16.0766 11.4676 15.8023 11.1484 15.6045C10.9889 15.5056 10.8595 15.4253 10.7705 15.3701C10.7263 15.3427 10.6922 15.3211 10.6689 15.3066C10.6572 15.2994 10.6476 15.2947 10.6416 15.291C10.6386 15.2892 10.6363 15.2871 10.6348 15.2861L10.6338 15.2852H10.6328L10.1201 14.9668L9.59961 15.2725L4.63965 18.1816C4.63466 18.1817 4.62764 18.1825 4.61914 18.1816C4.57194 18.177 4.50925 18.1575 4.45312 18.1211C4.42543 18.1031 4.40675 18.0857 4.39453 18.0723L4.375 18.0449C4.37514 18.0415 4.37521 18.0346 4.37793 18.0234L5.69727 12.6396L5.84082 12.0537L5.39062 11.6533L1.07031 7.81836C1.04945 7.79984 1.02597 7.76721 1.01172 7.71973C0.997094 7.67094 0.998037 7.62646 1.00488 7.59863C1.00779 7.58699 1.01124 7.58063 1.0127 7.57812C1.01367 7.57651 1.01405 7.57569 1.01465 7.5752C1.01505 7.57486 1.02192 7.56892 1.04102 7.56152C1.06088 7.55386 1.09981 7.54271 1.16309 7.53809L6.6875 7.13672L7.29004 7.09277L7.53223 6.53906L9.84375 1.23926L9.84473 1.24023C9.88511 1.14754 9.94043 1.07921 9.99023 1.03809C9.99828 1.03146 10.007 1.02709 10.0137 1.02246Z" stroke="#F6B756" stroke-width="2"/>
</svg>
