<svg width="24" height="24" viewBox="0 0 24 24" fill="none" xmlns="http://www.w3.org/2000/svg">
<path d="M20 13C20 12.1716 19.3284 11.5 18.5 11.5C17.6716 11.5 17 12.1716 17 13C17 13.8284 17.6716 14.5 18.5 14.5C19.3284 14.5 20 13.8284 20 13ZM8.5 4V2C8.50001 1.44772 8.94772 0.999997 9.5 1C10.0523 1.00001 10.5 1.44772 10.5 2L10.6543 2.00391C12.2394 2.08422 13.5 3.3949 13.5 5V9C13.5 11.9729 11.3376 14.4388 8.5 14.915V16.5C8.5 18.9853 10.5147 21 13 21C15.4853 21 17.5 18.9853 17.5 16.5V16.3535C16.0545 15.9231 15 14.5854 15 13C15 11.067 16.567 9.5 18.5 9.5C20.433 9.5 22 11.067 22 13C22 14.5854 20.9455 15.9231 19.5 16.3535V16.5C19.5 20.0899 16.5899 23 13 23C9.41015 23 6.5 20.0899 6.5 16.5V14.915C3.66245 14.4388 1.5 11.9729 1.5 9V5C1.5 3.34314 2.84315 2 4.5 2C4.50001 1.44772 4.94772 1 5.5 1C6.05228 1 6.49999 1.44772 6.5 2V4C6.5 4.55228 6.05228 5 5.5 5C4.98232 5 4.55621 4.60668 4.50488 4.10254L4.5 4C3.94771 4 3.5 4.44772 3.5 5V9C3.5 11.2091 5.29086 13 7.5 13C9.70914 13 11.5 11.2091 11.5 9V5C11.5 4.48233 11.1067 4.05622 10.6025 4.00488L10.5 4L10.4951 4.10254C10.4437 4.60657 10.0176 4.99998 9.5 5C8.94778 4.99999 8.50011 4.55219 8.5 4Z" fill="#3A9489"/>
</svg>
