<svg width="24" height="24" viewBox="0 0 24 24" fill="none" xmlns="http://www.w3.org/2000/svg">
<path d="M13.2487 21.0826C12.8398 21.1385 12.4191 21.167 12.0002 21.167C6.94559 21.167 2.83337 17.0547 2.83337 12.0002C2.83337 6.94559 6.94559 2.83337 12.0002 2.83337C14.8721 2.83337 16.5652 3.56398 17.9494 4.66675H16.5836C16.0767 4.66675 15.6669 5.07741 15.6669 5.58342C15.6669 6.08942 16.0767 6.50008 16.5836 6.50008H20.2503C20.7563 6.50008 21.167 6.08942 21.167 5.58342V1.91667C21.167 1.41066 20.7563 1 20.2503 1C19.7434 1 19.3336 1.41066 19.3336 1.91667V3.43009C17.6762 2.03861 15.567 1 12.0002 1C5.93447 1 1 5.93448 1 12.0002C1 18.0649 5.93447 23.0003 12.0002 23.0003C12.5025 23.0003 13.0058 22.9664 13.4971 22.8986C13.9985 22.8307 14.3496 22.3687 14.2808 21.8664C14.213 21.365 13.7483 21.0111 13.2487 21.0826Z" fill="#3A9489"/>
<path d="M21.5668 15.3219C21.1048 15.1129 20.563 15.3173 20.3531 15.7793C20.0818 16.3788 19.7435 16.9517 19.3475 17.4816C19.0441 17.8877 19.1266 18.4615 19.5327 18.7649C19.6968 18.8878 19.8893 18.9473 20.0799 18.9473C20.3595 18.9473 20.6354 18.8199 20.8151 18.5797C21.2908 17.9426 21.6978 17.2551 22.0242 16.5356C22.2332 16.0736 22.0279 15.5309 21.5668 15.3219Z" fill="#3A9489"/>
<path d="M17.4847 19.3463C16.9549 19.7423 16.381 20.0814 15.7815 20.3537C15.3204 20.5627 15.116 21.1053 15.325 21.5664C15.4781 21.9047 15.8118 22.1055 16.1601 22.1055C16.2866 22.1055 16.415 22.0789 16.5387 22.0229C17.2583 21.6966 17.9468 21.2896 18.582 20.8148C18.9881 20.5114 19.0706 19.9375 18.7672 19.5314C18.4646 19.1263 17.8908 19.0429 17.4847 19.3463Z" fill="#3A9489"/>
<path d="M22.0833 11.0831C21.5773 11.0831 21.1667 11.4937 21.1667 11.9997C21.1667 12.4196 21.1383 12.8394 21.0823 13.2483C21.0136 13.7506 21.3647 14.2126 21.867 14.2804C21.9091 14.2868 21.9504 14.2896 21.9916 14.2896C22.4436 14.2896 22.8359 13.9559 22.8992 13.4967C22.9661 13.0053 23 12.502 23 11.9997C23.0001 11.4938 22.5903 11.0831 22.0833 11.0831Z" fill="#3A9489"/>
<path d="M11.9999 5.58301C8.46148 5.58301 5.58313 8.4614 5.58313 11.9998C5.58313 15.5381 8.46152 18.4165 11.9999 18.4165C15.5382 18.4165 18.4166 15.5382 18.4166 11.9998C18.4166 8.46144 15.5382 5.58301 11.9999 5.58301ZM12.9165 11.9998C12.9165 12.119 12.8918 12.2381 12.8459 12.35C12.7992 12.4627 12.7323 12.5636 12.6479 12.6479L10.8146 14.4812C10.6358 14.66 10.4012 14.7498 10.1665 14.7498C9.9318 14.7498 9.6971 14.66 9.51835 14.4812C9.15994 14.1228 9.15994 13.5435 9.51835 13.1851L11.0831 11.6203V10.1664C11.0831 9.66042 11.4938 9.24976 11.9998 9.24976C12.5058 9.24976 12.9165 9.66042 12.9165 10.1664V11.9998H12.9165Z" fill="#3A9489"/>
</svg>
