<svg width="18" height="18" viewBox="0 0 18 18" fill="none" xmlns="http://www.w3.org/2000/svg">
<g clip-path="url(#clip0_113_8968)">
<path d="M9.93651 15.812C9.62987 15.8539 9.3143 15.8752 9.00012 15.8752C5.20919 15.8752 2.12503 12.7911 2.12503 9.00012C2.12503 5.20919 5.20919 2.12503 9.00012 2.12503C11.1541 2.12503 12.4239 2.67299 13.4621 3.50006H12.4377C12.0575 3.50006 11.7502 3.80806 11.7502 4.18756C11.7502 4.56707 12.0575 4.87506 12.4377 4.87506H15.1877C15.5672 4.87506 15.8752 4.56707 15.8752 4.18756V1.4375C15.8752 1.05799 15.5672 0.75 15.1877 0.75C14.8075 0.75 14.5002 1.05799 14.5002 1.4375V2.57257C13.2572 1.52896 11.6752 0.75 9.00012 0.75C4.45086 0.75 0.75 4.45086 0.75 9.00012C0.75 13.5487 4.45086 17.2502 9.00012 17.2502C9.37689 17.2502 9.75433 17.2248 10.1228 17.1739C10.4989 17.123 10.7622 16.7765 10.7106 16.3998C10.6598 16.0237 10.3112 15.7584 9.93651 15.812Z" fill="#DCF5F0"/>
<path d="M16.1766 11.4914C15.8301 11.3347 15.4238 11.488 15.2664 11.8345C15.0629 12.2841 14.8092 12.7138 14.5122 13.1112C14.2846 13.4158 14.3465 13.8461 14.651 14.0737C14.7741 14.1659 14.9185 14.2105 15.0615 14.2105C15.2712 14.2105 15.4781 14.115 15.6128 13.9348C15.9697 13.457 16.2749 12.9414 16.5197 12.4017C16.6765 12.0552 16.5225 11.6482 16.1766 11.4914Z" fill="#DCF5F0"/>
<path d="M13.1148 14.5097C12.7175 14.8067 12.2871 15.0611 11.8375 15.2652C11.4916 15.422 11.3383 15.829 11.4951 16.1748C11.6099 16.4285 11.8601 16.5791 12.1214 16.5791C12.2163 16.5791 12.3126 16.5591 12.4054 16.5172C12.9451 16.2724 13.4614 15.9672 13.9378 15.6111C14.2424 15.3835 14.3043 14.9531 14.0767 14.6485C13.8498 14.3447 13.4194 14.2821 13.1148 14.5097Z" fill="#DCF5F0"/>
<path d="M16.5619 8.31232C16.1824 8.31232 15.8744 8.62031 15.8744 8.99982C15.8744 9.31471 15.8531 9.62956 15.8111 9.9362C15.7596 10.313 16.0229 10.6595 16.3996 10.7103C16.4312 10.7151 16.4622 10.7172 16.4931 10.7172C16.8321 10.7172 17.1263 10.467 17.1738 10.1225C17.2239 9.75399 17.2494 9.37655 17.2494 8.99982C17.2494 8.62034 16.9421 8.31232 16.5619 8.31232Z" fill="#DCF5F0"/>
<path d="M9.00006 4.18726C6.34626 4.18726 4.1875 6.34605 4.1875 8.99982C4.1875 11.6536 6.34629 13.8124 9.00006 13.8124C11.6538 13.8124 13.8126 11.6536 13.8126 8.99985C13.8126 6.34608 11.6538 4.18726 9.00006 4.18726ZM9.68756 8.99985C9.68756 9.08921 9.669 9.17861 9.63461 9.26247C9.59955 9.34703 9.54937 9.42267 9.48611 9.4859L8.11108 10.8609C7.97701 10.995 7.80102 11.0624 7.625 11.0624C7.44901 11.0624 7.27298 10.995 7.13892 10.8609C6.87011 10.5921 6.87011 10.1576 7.13892 9.8888L8.3125 8.71522V7.62482C8.3125 7.24531 8.62049 6.93732 9 6.93732C9.3795 6.93732 9.6875 7.24531 9.6875 7.62482V8.99985H9.68756Z" fill="#DCF5F0"/>
</g>
<defs>
<clipPath id="clip0_113_8968">
<rect width="18" height="18" fill="white"/>
</clipPath>
</defs>
</svg>
