<svg width="32" height="32" viewBox="0 0 32 32" fill="none" xmlns="http://www.w3.org/2000/svg">
<path fill-rule="evenodd" clip-rule="evenodd" d="M10.7569 22.2557C11.1296 22.2557 11.5047 22.1239 11.805 21.8551L17.0491 17.1741C17.3838 16.8756 17.5745 16.4485 17.5745 16.0001V7.21418C17.5745 6.34424 16.8698 5.63963 15.9999 5.63963C15.13 5.63963 14.4254 6.34424 14.4254 7.21418V15.2945L9.70776 19.5062C9.05929 20.086 9.00306 21.0808 9.58196 21.7293C9.89298 22.0779 10.3238 22.2557 10.7569 22.2557ZM1.60002 16.0001C1.60002 8.05949 8.05942 1.6001 16 1.6001C23.9406 1.6001 30.4 8.05949 30.4 16.0001C30.4 23.9403 23.9407 30.4001 16 30.4001C8.05942 30.4 1.60002 23.9402 1.60002 16.0001Z" fill="#3A9489"/>
</svg>
