<svg width="32" height="32" viewBox="0 0 32 32" fill="none" xmlns="http://www.w3.org/2000/svg">
<path fill-rule="evenodd" clip-rule="evenodd" d="M2.66663 9.33268C2.66663 5.65078 5.65139 2.66602 9.33329 2.66602H22.6666C26.3485 2.66602 29.3333 5.65078 29.3333 9.33268V22.666C29.3333 26.3479 26.3485 29.3327 22.6666 29.3327H9.33329C5.65139 29.3327 2.66663 26.3479 2.66663 22.666V9.33268ZM9.33329 5.33268C7.12415 5.33268 5.33329 7.12354 5.33329 9.33268V22.666C5.33329 24.8752 7.12415 26.666 9.33329 26.666H22.6666C24.8758 26.666 26.6666 24.8752 26.6666 22.666V9.33268C26.6666 7.12354 24.8758 5.33268 22.6666 5.33268H9.33329Z" fill="white"/>
<path fill-rule="evenodd" clip-rule="evenodd" d="M14.6666 15.9993C14.6666 13.0538 17.0544 10.666 20 10.666H26.6666C28.1394 10.666 29.3333 11.8599 29.3333 13.3327V18.666C29.3333 20.1388 28.1394 21.3327 26.6666 21.3327H20C17.0544 21.3327 14.6666 18.9449 14.6666 15.9993ZM20 13.3327C18.5272 13.3327 17.3333 14.5266 17.3333 15.9993C17.3333 17.4721 18.5272 18.666 20 18.666H26.6666V13.3327H20Z" fill="white"/>
<path fill-rule="evenodd" clip-rule="evenodd" d="M18.6666 15.9993C18.6666 15.263 19.2636 14.666 20 14.666L20.1333 14.666C20.8697 14.666 21.4666 15.263 21.4666 15.9993C21.4666 16.7357 20.8697 17.3327 20.1333 17.3327L20 17.3327C19.2636 17.3327 18.6666 16.7357 18.6666 15.9993Z" fill="white"/>
</svg>
