<svg width="32" height="32" viewBox="0 0 32 32" fill="none" xmlns="http://www.w3.org/2000/svg">
<path d="M6.71663 25.9641C6.47307 25.8893 6.25761 25.721 6.12646 25.5059L6 25.2862V17.7126L6.1171 17.5022C6.18267 17.39 6.32787 17.2311 6.4356 17.1516L6.64169 17.0114L10.3935 16.9973C13.0398 16.988 14.2014 16.9973 14.3279 17.0347C14.4263 17.0628 14.5902 17.161 14.6886 17.2498C15.0352 17.563 15.0211 17.3573 15.0071 21.5789L14.993 25.347L14.8525 25.5527C14.7729 25.6602 14.6136 25.8051 14.5012 25.8706L14.2904 25.9874L10.5668 25.9968C8.51991 26.0015 6.78689 25.9874 6.71663 25.9641ZM11.274 22.9206C11.5176 22.8458 11.7799 22.6214 11.8829 22.3923C11.9532 22.2334 11.9719 22.0838 11.9719 21.4994C11.9719 20.7233 11.9251 20.541 11.6628 20.2979C11.4145 20.0642 11.2412 20.0268 10.4871 20.0268C9.69088 20.0268 9.51289 20.0782 9.26933 20.3774C9.05387 20.6345 9.01172 20.8589 9.03045 21.5976C9.04451 22.2053 9.05387 22.2614 9.17097 22.4671C9.30212 22.6822 9.51758 22.8505 9.76114 22.9253C9.95317 22.9861 11.0726 22.9814 11.274 22.9206Z" fill="white"/>
<path d="M17.6768 25.9454C17.4098 25.8519 17.2787 25.749 17.1335 25.534L17.007 25.3376L16.9929 21.5742C16.9789 17.362 16.9648 17.563 17.3114 17.2498C17.4098 17.161 17.5737 17.0628 17.6721 17.0347C17.7986 16.9973 18.9602 16.988 21.6065 16.9973L25.3583 17.0114L25.5644 17.1516C25.6721 17.2311 25.8173 17.39 25.8829 17.5022L26 17.7126V25.2862L25.8689 25.5059C25.7845 25.6508 25.6628 25.7724 25.5176 25.8565L25.2974 25.9874L21.5738 25.9968C18.548 26.0061 17.8173 25.9968 17.6768 25.9454ZM22.4731 22.8178C22.6183 22.7336 22.74 22.6121 22.8243 22.4671C22.9461 22.2614 22.9555 22.21 22.9695 21.5976C22.9883 20.8589 22.9461 20.6345 22.7307 20.3774C22.4871 20.0782 22.3091 20.0268 21.5129 20.0268C20.7588 20.0268 20.5855 20.0642 20.3372 20.2979C20.0749 20.541 20.0281 20.7233 20.0281 21.4994C20.0281 22.3035 20.0843 22.4905 20.3747 22.7196C20.6557 22.944 20.7869 22.972 21.5503 22.958C22.2248 22.9487 22.2623 22.944 22.4731 22.8178Z" fill="white"/>
<path d="M6.63232 14.9715C6.42623 14.8873 6.21077 14.6956 6.10304 14.4946L6 14.2983V6.72469L6.13115 6.50496C6.21546 6.36004 6.33724 6.23849 6.48244 6.15434L6.70258 6.02344H14.2904L14.5012 6.14031C14.6136 6.20576 14.7729 6.35069 14.8525 6.45821L14.993 6.66392L15.0071 10.4086C15.0164 13.0266 15.0071 14.2094 14.9696 14.3357C14.904 14.5647 14.6651 14.8312 14.4309 14.9341C14.253 15.0135 14.0234 15.0229 10.4965 15.0182C8.14989 15.0182 6.70726 14.9995 6.63232 14.9715ZM11.3864 11.8953C11.4895 11.8485 11.63 11.7504 11.7003 11.6756C11.9344 11.4278 11.9719 11.2548 11.9719 10.5021C11.9719 9.70737 11.9204 9.52971 11.6206 9.28661C11.363 9.07156 11.1382 9.02949 10.3981 9.04819C9.78456 9.06221 9.73303 9.07156 9.52694 9.19311C9.38175 9.27726 9.25996 9.39881 9.17566 9.54374C9.05387 9.74944 9.04451 9.80087 9.03046 10.4133C9.01172 11.152 9.05387 11.3764 9.26933 11.6335C9.51289 11.9327 9.69088 11.9841 10.4965 11.9841C11.082 11.9841 11.2319 11.9654 11.3864 11.8953Z" fill="white"/>
<path d="M17.5685 14.9388C17.3343 14.8313 17.0955 14.5648 17.0299 14.3357C16.9971 14.2235 16.983 13.8729 16.9924 13.4007L17.0065 12.648L17.147 12.4423C17.2266 12.3301 17.3859 12.1899 17.4983 12.1244C17.6903 12.0169 17.7699 12.0075 18.3554 11.9935L18.9971 11.9748V10.8575C18.9971 9.5999 19.0158 9.51107 19.3484 9.23524C19.592 9.03422 19.798 8.99214 20.4959 8.99214C21.1938 8.99214 21.3999 9.03422 21.6435 9.23524C21.9854 9.51575 21.9948 9.57652 21.9948 11.0398V12.3488L21.8449 12.5732C21.7606 12.6994 21.606 12.849 21.503 12.9051C21.3344 12.9986 21.25 13.0127 20.6739 13.0127H20.0369L20.0182 13.6578C20.0041 14.2375 19.9948 14.317 19.887 14.5087C19.8215 14.6209 19.681 14.7798 19.5685 14.8593L19.3624 14.9996L18.5615 15.0136C17.8589 15.0229 17.7325 15.0136 17.5685 14.9388Z" fill="white"/>
<path d="M22.5251 14.9062C22.3752 14.8314 22.2347 14.7145 22.1551 14.593C22.0192 14.4013 22.0192 14.3966 22.0052 13.5691C21.9864 12.6294 22.0239 12.4985 22.3471 12.2274C22.5907 12.0264 22.7968 11.9843 23.4946 11.9843C24.1925 11.9843 24.3986 12.0264 24.6422 12.2274C24.9654 12.4985 25.0028 12.6294 24.9841 13.5691C24.9701 14.3966 24.9701 14.4013 24.8342 14.593C24.7546 14.7145 24.6141 14.8314 24.4642 14.9062C24.2394 15.0184 24.1832 15.0231 23.4946 15.0231C22.8061 15.0231 22.7499 15.0184 22.5251 14.9062Z" fill="white"/>
<path d="M17.5685 8.95469C17.3343 8.84716 17.0955 8.58068 17.0299 8.35161C16.9971 8.2394 16.983 7.88878 16.9924 7.4166L17.0065 6.66392L17.147 6.45821C17.2266 6.34601 17.3859 6.20576 17.4983 6.14031C17.6997 6.02811 17.7418 6.02344 18.5053 6.02344C19.3718 6.02344 19.4468 6.04214 19.7184 6.30861C19.9854 6.57977 20.0041 6.65457 20.0041 7.51945C20.0041 8.28148 19.9995 8.32356 19.887 8.52458C19.8215 8.63678 19.681 8.79573 19.5685 8.87521L19.3624 9.01546L18.5615 9.02949C17.8589 9.03884 17.7325 9.02949 17.5685 8.95469Z" fill="white"/>
<path d="M22.5251 8.9219C22.3752 8.8471 22.2347 8.73022 22.1551 8.60867C22.0192 8.41699 22.0192 8.41232 22.0052 7.58484C21.9864 6.64515 22.0239 6.51425 22.3471 6.2431C22.5907 6.04207 22.7968 6 23.4946 6C24.1925 6 24.3986 6.04207 24.6422 6.2431C24.9654 6.51425 25.0028 6.64515 24.9841 7.58484C24.9701 8.41232 24.9701 8.41699 24.8342 8.60867C24.7546 8.73022 24.6141 8.8471 24.4642 8.9219C24.2394 9.0341 24.1832 9.03877 23.4946 9.03877C22.8061 9.03877 22.7499 9.0341 22.5251 8.9219Z" fill="white"/>
</svg>
