<svg width="32" height="32" viewBox="0 0 32 32" fill="none" xmlns="http://www.w3.org/2000/svg">
<path fill-rule="evenodd" clip-rule="evenodd" d="M2.66669 10.6667C2.66669 6.98477 5.65146 4 9.33335 4H22.6667C26.3486 4 29.3334 6.98477 29.3334 10.6667V16C29.3334 16.7364 28.7364 17.3333 28 17.3333C27.2636 17.3333 26.6667 16.7364 26.6667 16V10.6667C26.6667 8.45753 24.8758 6.66667 22.6667 6.66667H9.33335C7.12421 6.66667 5.33335 8.45753 5.33335 10.6667V22.6667C5.33335 24.8758 7.12421 26.6667 9.33335 26.6667H16C16.7364 26.6667 17.3334 27.2636 17.3334 28C17.3334 28.7364 16.7364 29.3333 16 29.3333H9.33335C5.65146 29.3333 2.66669 26.3486 2.66669 22.6667V10.6667Z" fill="white"/>
<path fill-rule="evenodd" clip-rule="evenodd" d="M10.6666 2.66602C11.403 2.66602 12 3.26297 12 3.99935V7.99935C12 8.73573 11.403 9.33268 10.6666 9.33268C9.93027 9.33268 9.33331 8.73573 9.33331 7.99935V3.99935C9.33331 3.26297 9.93027 2.66602 10.6666 2.66602Z" fill="white"/>
<path fill-rule="evenodd" clip-rule="evenodd" d="M8 13.3333C8 12.597 8.59695 12 9.33333 12H22.6667C23.403 12 24 12.597 24 13.3333C24 14.0697 23.403 14.6667 22.6667 14.6667H9.33333C8.59695 14.6667 8 14.0697 8 13.3333Z" fill="white"/>
<path fill-rule="evenodd" clip-rule="evenodd" d="M21.3333 2.66602C22.0697 2.66602 22.6667 3.26297 22.6667 3.99935V7.99935C22.6667 8.73573 22.0697 9.33268 21.3333 9.33268C20.597 9.33268 20 8.73573 20 7.99935V3.99935C20 3.26297 20.597 2.66602 21.3333 2.66602Z" fill="white"/>
<path fill-rule="evenodd" clip-rule="evenodd" d="M24 21.3327C22.5273 21.3327 21.3334 22.5266 21.3334 23.9993C21.3334 25.4721 22.5273 26.666 24 26.666C25.4728 26.666 26.6667 25.4721 26.6667 23.9993C26.6667 22.5266 25.4728 21.3327 24 21.3327ZM18.6667 23.9993C18.6667 21.0538 21.0545 18.666 24 18.666C26.9455 18.666 29.3334 21.0538 29.3334 23.9993C29.3334 26.9449 26.9455 29.3327 24 29.3327C21.0545 29.3327 18.6667 26.9449 18.6667 23.9993Z" fill="white"/>
</svg>
