<svg width="32" height="32" viewBox="0 0 32 32" fill="none" xmlns="http://www.w3.org/2000/svg">
<path d="M1.33334 8.89778C1.33371 7.88932 2.4101 7.24674 3.29819 7.7246L14.306 13.6517C16.1759 14.6585 16.1759 17.3401 14.306 18.347L3.29819 24.2741C2.46527 24.7223 1.46624 24.185 1.34506 23.2845L1.33334 23.1009V8.89778ZM4.00001 20.8678L13.0417 15.9993L4.00001 11.1295V20.8678Z" fill="white"/>
<path d="M13.3333 3.41601C13.3337 2.44326 14.3419 1.79868 15.2253 2.20637L28.0443 8.12174C29.0766 8.59853 29.0766 10.0668 28.0443 10.5436L15.2253 16.459C14.3972 16.8412 13.4594 16.2986 13.3451 15.4277L13.3333 15.2493V3.41601ZM16 13.1647L24.3021 9.33267L16 5.49934V13.1647Z" fill="white"/>
<path d="M13.3333 16.7493C13.3337 15.7766 14.3419 15.132 15.2253 15.5397L28.0443 21.4551C29.0766 21.9319 29.0766 23.4002 28.0443 23.8769L15.2253 29.7923C14.3972 30.1745 13.4594 29.6319 13.3451 28.7611L13.3333 28.5827V16.7493ZM16 26.498L24.3021 22.666L16 18.8327V26.498Z" fill="white"/>
</svg>
