<svg width="32" height="32" viewBox="0 0 32 32" fill="none" xmlns="http://www.w3.org/2000/svg">
<path fill-rule="evenodd" clip-rule="evenodd" d="M2.66663 10.6673C2.66663 7.7218 5.05444 5.33398 7.99996 5.33398H24C26.9455 5.33398 29.3333 7.7218 29.3333 10.6673V21.334C29.3333 24.2795 26.9455 26.6673 24 26.6673H7.99996C5.05444 26.6673 2.66663 24.2795 2.66663 21.334V10.6673ZM7.99996 8.00065C6.5272 8.00065 5.33329 9.19456 5.33329 10.6673V21.334C5.33329 22.8067 6.5272 24.0007 7.99996 24.0007H24C25.4727 24.0007 26.6666 22.8067 26.6666 21.334V10.6673C26.6666 9.19456 25.4727 8.00065 24 8.00065H7.99996Z" fill="white"/>
<path fill-rule="evenodd" clip-rule="evenodd" d="M28 14.6667H4V12H28V14.6667Z" fill="white"/>
<path fill-rule="evenodd" clip-rule="evenodd" d="M17.3334 19.9993C17.3334 19.263 17.9303 18.666 18.6667 18.666L22.6667 18.666C23.4031 18.666 24 19.263 24 19.9993C24 20.7357 23.4031 21.3327 22.6667 21.3327L18.6667 21.3327C17.9303 21.3327 17.3334 20.7357 17.3334 19.9993Z" fill="white"/>
</svg>
