<svg width="32" height="32" viewBox="0 0 32 32" fill="none" xmlns="http://www.w3.org/2000/svg">
<path d="M28 28.0002C28.7364 28.0002 29.3334 28.5972 29.3334 29.3335C29.3334 30.0699 28.7364 30.6669 28 30.6669H4.00002C3.26364 30.6669 2.66669 30.0699 2.66669 29.3335C2.66669 28.5972 3.26364 28.0002 4.00002 28.0002H28ZM6.66669 24.0002V14.6669C6.66669 13.9305 7.26364 13.3335 8.00002 13.3335C8.7364 13.3335 9.33335 13.9305 9.33335 14.6669V24.0002C9.33335 24.7366 8.7364 25.3335 8.00002 25.3335C7.26364 25.3335 6.66669 24.7366 6.66669 24.0002ZM12 24.0002V14.6669C12 13.9305 12.597 13.3335 13.3334 13.3335C14.0697 13.3335 14.6667 13.9305 14.6667 14.6669V24.0002C14.6667 24.7366 14.0697 25.3335 13.3334 25.3335C12.597 25.3335 12 24.7366 12 24.0002ZM17.3334 24.0002V14.6669C17.3334 13.9305 17.9303 13.3335 18.6667 13.3335C19.4031 13.3335 20 13.9305 20 14.6669V24.0002C20 24.7366 19.4031 25.3335 18.6667 25.3335C17.9303 25.3335 17.3334 24.7366 17.3334 24.0002ZM22.6667 24.0002V14.6669C22.6667 13.9305 23.2636 13.3335 24 13.3335C24.7364 13.3335 25.3334 13.9305 25.3334 14.6669V24.0002C25.3334 24.7366 24.7364 25.3335 24 25.3335C23.2636 25.3335 22.6667 24.7366 22.6667 24.0002ZM15.293 1.53665C15.7253 1.26643 16.2747 1.26643 16.7071 1.53665L27.3737 8.20332C27.8777 8.51861 28.1117 9.1292 27.9479 9.70072C27.784 10.2725 27.2615 10.6669 26.6667 10.6669H5.33335C4.73854 10.6669 4.21608 10.2725 4.0521 9.70072C3.88831 9.1292 4.12232 8.51861 4.62632 8.20332L15.293 1.53665ZM9.98179 8.0002H22.0182L16 4.23848L9.98179 8.0002Z" fill="white"/>
</svg>
