<svg width="40" height="40" viewBox="0 0 40 40" fill="none" xmlns="http://www.w3.org/2000/svg">
<g clip-path="url(#clip0_82_5532)">
<path d="M9.336 36.508V38.72C9.33455 39.0611 9.39416 39.3998 9.512 39.72H6.712V33.32C6.712 33.0548 6.60664 32.8004 6.41911 32.6129C6.23157 32.4253 5.97722 32.32 5.712 32.32C5.44678 32.32 5.19243 32.4253 5.00489 32.6129C4.81736 32.8004 4.712 33.0548 4.712 33.32V39.72H1C0.734784 39.72 0.48043 39.6146 0.292894 39.4271C0.105357 39.2396 6.4562e-07 38.9852 6.4562e-07 38.72V32.376C-0.000541613 30.8299 0.340506 29.3027 0.998762 27.9037C1.65702 26.5047 2.61622 25.2684 3.80781 24.2832C4.99939 23.298 6.39392 22.5882 7.8917 22.2045C9.38948 21.8209 10.9535 21.7729 12.472 22.064V22.544C12.472 22.544 12.472 22.848 12.472 22.996C12.4967 23.4355 12.561 23.872 12.664 24.3C12.692 24.408 12.72 24.516 12.752 24.62L12.796 24.776C12.8776 25.0481 12.9751 25.3152 13.088 25.576C13.144 25.7 13.204 25.824 13.272 25.976C13.34 26.128 13.392 26.204 13.452 26.304C13.512 26.404 13.544 26.46 13.592 26.54C13.7538 26.8035 13.9329 27.0561 14.128 27.296C14.188 27.372 14.252 27.448 14.316 27.52C12.8002 28.4818 11.55 29.8087 10.6799 31.379C9.80985 32.9493 9.34777 34.7128 9.336 36.508Z" fill="#3A9489"/>
<path d="M40 32.376V38.72C40 38.9852 39.8946 39.2396 39.7071 39.4271C39.5196 39.6146 39.2652 39.72 39 39.72H35.304V33.32C35.304 33.0548 35.1986 32.8004 35.0111 32.6129C34.8236 32.4253 34.5692 32.32 34.304 32.32C34.0388 32.32 33.7844 32.4253 33.5969 32.6129C33.4094 32.8004 33.304 33.0548 33.304 33.32V39.72H30.504C30.6218 39.3998 30.6814 39.0611 30.68 38.72V36.508C30.6795 34.7058 30.222 32.9331 29.3504 31.3557C28.4788 29.7783 27.2215 28.4476 25.696 27.488C25.82 27.348 25.932 27.204 26.036 27.064C26.088 26.996 26.136 26.932 26.184 26.86C26.2976 26.7 26.403 26.5345 26.5 26.364C26.548 26.284 26.596 26.204 26.648 26.108C26.7 26.012 26.732 25.952 26.768 25.868C26.82 25.76 26.872 25.652 26.916 25.544C26.96 25.436 27.028 25.272 27.08 25.144C27.132 25.016 27.176 24.864 27.22 24.704C27.264 24.544 27.296 24.452 27.328 24.304C27.36 24.156 27.384 24.052 27.408 23.928C27.432 23.804 27.44 23.736 27.456 23.632C27.472 23.528 27.48 23.46 27.488 23.372C27.496 23.284 27.488 23.264 27.488 23.212C27.488 23.16 27.488 23.052 27.488 22.968V22.912C27.488 22.796 27.488 22.684 27.488 22.568C27.488 22.452 27.488 22.244 27.488 22.084C28.137 21.9624 28.7957 21.9008 29.456 21.9C30.8363 21.8952 32.2039 22.1625 33.4809 22.6864C34.7579 23.2104 35.9191 23.9808 36.8982 24.9536C37.8774 25.9265 38.6553 27.0827 39.1875 28.3562C39.7197 29.6298 39.9958 30.9957 40 32.376Z" fill="#3A9489"/>
<path d="M19.24 26C19.4138 26.0382 19.5903 26.0623 19.768 26.072C19.5906 26.0601 19.4141 26.036 19.24 26ZM19.832 26.076H20C20.1199 26.0821 20.2401 26.0821 20.36 26.076C20.1842 26.088 20.0078 26.088 19.832 26.076Z" fill="#3A9489"/>
<path d="M25.544 22.544V22.828C25.544 22.828 25.544 22.972 25.544 23.044C25.546 23.0733 25.546 23.1027 25.544 23.132C25.544 23.188 25.544 23.244 25.524 23.296C25.504 23.348 25.5 23.46 25.484 23.54C25.468 23.62 25.448 23.728 25.424 23.824C25.4043 23.9174 25.3789 24.0096 25.348 24.1C25.32 24.212 25.28 24.328 25.24 24.44C25.2 24.552 25.164 24.64 25.12 24.74C25.076 24.84 25.04 24.916 24.996 25.004V25.032C24.972 25.084 24.944 25.132 24.916 25.184C24.888 25.236 24.848 25.304 24.812 25.364C24.743 25.487 24.6669 25.6059 24.584 25.72C24.552 25.768 24.52 25.812 24.484 25.856C24.3755 26.007 24.2579 26.1512 24.132 26.288L23.964 26.46C23.7126 26.7123 23.4366 26.9387 23.14 27.136C23.0678 27.1877 22.993 27.2358 22.916 27.28C22.739 27.3875 22.556 27.485 22.368 27.572H22.324L22.108 27.664C22.004 27.708 21.896 27.748 21.788 27.784L21.58 27.848C21.464 27.88 21.348 27.912 21.228 27.936C21.108 27.96 21.044 27.976 20.952 27.988L20.744 28.02C20.5131 28.0486 20.2807 28.0633 20.048 28.064C19.8342 28.0641 19.6205 28.052 19.408 28.028L19.144 27.988L18.8 27.952C18.684 27.928 18.572 27.9 18.46 27.868L18.252 27.804C18.0508 27.7354 17.8532 27.6566 17.66 27.568L17.6 27.536L17.376 27.424H17.34C17.268 27.384 17.196 27.344 17.128 27.3C17.051 27.2558 16.9762 27.2077 16.904 27.156L16.752 27.052C16.6027 26.9453 16.4587 26.8293 16.32 26.704L16.152 26.548C16.04 26.44 15.936 26.332 15.836 26.216C15.784 26.16 15.736 26.1 15.688 26.04C15.5417 25.8615 15.4081 25.673 15.288 25.476C15.252 25.42 15.22 25.364 15.188 25.308C15.156 25.252 15.1 25.152 15.06 25.072C15.02 24.992 14.964 24.88 14.92 24.78C14.8386 24.5935 14.7679 24.4025 14.708 24.208C14.708 24.176 14.688 24.144 14.68 24.108C14.672 24.072 14.632 23.944 14.612 23.86C14.5333 23.5426 14.4851 23.2185 14.468 22.892C14.468 22.784 14.468 22.676 14.468 22.564C14.4684 21.6417 14.6994 20.7342 15.14 19.924C15.2679 19.6888 15.4123 19.4629 15.572 19.248L15.736 19.04C15.8485 18.9001 15.9687 18.7666 16.096 18.64C16.8706 17.8644 17.8578 17.336 18.9328 17.1217C20.0077 16.9073 21.1221 17.0167 22.1349 17.436C23.1477 17.8552 24.0134 18.5655 24.6223 19.4769C25.2313 20.3883 25.5562 21.4599 25.556 22.556L25.544 22.544Z" fill="#3A9489"/>
<path d="M36.128 13.828C36.1288 15.14 35.7404 16.4228 35.012 17.514C34.2835 18.6053 33.2478 19.4559 32.0358 19.9584C30.8238 20.4608 29.49 20.5925 28.2031 20.3367C26.9163 20.081 25.7342 19.4493 24.8065 18.5215C23.8787 17.5938 23.247 16.4117 22.9912 15.1248C22.7355 13.838 22.8671 12.5042 23.3696 11.2922C23.8721 10.0802 24.7227 9.04444 25.814 8.31601C26.9052 7.58758 28.188 7.19919 29.5 7.19999C31.2569 7.20316 32.9409 7.90248 34.1832 9.14478C35.4255 10.3871 36.1248 12.0711 36.128 13.828Z" fill="#3A9489"/>
<path d="M17.128 13.828C17.1288 15.14 16.7404 16.4228 16.012 17.514C15.2835 18.6053 14.2478 19.4559 13.0358 19.9584C11.8238 20.4608 10.49 20.5925 9.20314 20.3367C7.91629 20.081 6.73421 19.4493 5.80647 18.5215C4.87873 17.5938 4.24701 16.4117 3.99124 15.1248C3.73547 13.838 3.86714 12.5042 4.3696 11.2922C4.87205 10.0802 5.72271 9.04444 6.81395 8.31601C7.90519 7.58758 9.18797 7.19919 10.5 7.19999C12.2572 7.2021 13.9418 7.90109 15.1844 9.14362C16.4269 10.3862 17.1259 12.0708 17.128 13.828Z" fill="#3A9489"/>
<path d="M20.444 9.82798C20.3067 9.89633 20.1554 9.9319 20.002 9.9319C19.8486 9.9319 19.6973 9.89633 19.56 9.82798C19.064 9.59998 14.72 7.34399 14.72 3.99999C14.7253 3.01224 15.1211 2.06669 15.821 1.36973C16.521 0.672782 17.4682 0.281028 18.456 0.279985C18.9889 0.279373 19.5156 0.393992 20 0.615985C20.5676 0.357239 21.191 0.244894 21.8132 0.28922C22.4354 0.333547 23.0366 0.533131 23.5618 0.869727C24.087 1.20632 24.5194 1.66919 24.8196 2.21602C25.1197 2.76285 25.278 3.3762 25.28 3.99999C25.28 7.34399 20.94 9.59998 20.444 9.82798Z" fill="#3A9489"/>
<path d="M28.668 36.508V38.72C28.668 38.9852 28.5626 39.2396 28.3751 39.4271C28.1876 39.6146 27.9332 39.72 27.668 39.72H24.868V35.564C24.868 35.2988 24.7626 35.0444 24.5751 34.8569C24.3876 34.6693 24.1332 34.564 23.868 34.564C23.6028 34.564 23.3484 34.6693 23.1609 34.8569C22.9734 35.0444 22.868 35.2988 22.868 35.564V39.72H17.12V35.564C17.12 35.2988 17.0146 35.0444 16.8271 34.8569C16.6396 34.6693 16.3852 34.564 16.12 34.564C15.8548 34.564 15.6004 34.6693 15.4129 34.8569C15.2254 35.0444 15.12 35.2988 15.12 35.564V39.72H12.32C12.0548 39.72 11.8004 39.6146 11.6129 39.4271C11.4254 39.2396 11.32 38.9852 11.32 38.72V36.508C11.3305 34.432 12.0816 32.4279 13.4382 30.8565C14.7948 29.285 16.6678 28.2494 18.72 27.936C18.884 27.912 19.052 27.892 19.22 27.876C19.4791 27.8493 19.7395 27.8373 20 27.84C20.2591 27.8387 20.5181 27.8508 20.776 27.876C20.944 27.876 21.108 27.908 21.272 27.936C23.3283 28.2394 25.2069 29.2722 26.5648 30.846C27.9226 32.4198 28.6691 34.4294 28.668 36.508Z" fill="#3A9489"/>
</g>
<defs>
<clipPath id="clip0_82_5532">
<rect width="40" height="40" fill="white"/>
</clipPath>
</defs>
</svg>
