<svg width="40" height="40" viewBox="0 0 40 40" fill="none" xmlns="http://www.w3.org/2000/svg">
<path d="M40 16.6165V30.6487C40 35.2413 36.2633 38.9778 31.6709 38.9778H8.3291C3.73659 38.9778 0 35.2413 0 30.6487V16.6165H40ZM17.7188 20.0002C17.5089 20.0002 17.3379 20.1713 17.3379 20.3811V24.0042H13.7139C13.5043 24.0044 13.3332 24.1755 13.333 24.385V28.9485C13.3331 29.1581 13.5043 29.3291 13.7139 29.3293H17.3379V32.9524C17.3379 33.1622 17.5089 33.3333 17.7188 33.3333H22.2812C22.4911 33.3333 22.6621 33.1622 22.6621 32.9524V29.3293H26.2861C26.4957 29.3291 26.6669 29.1581 26.667 28.9485V24.385C26.6668 24.1755 26.4957 24.0044 26.2861 24.0042H22.6621V20.3811C22.6621 20.1713 22.4911 20.0002 22.2812 20.0002H17.7188Z" fill="#3A9489"/>
<path d="M31.6717 6.89669H28.6321V5.42052C28.6321 2.99543 26.6592 1.02246 24.2341 1.02246H15.8783C13.4532 1.02246 11.4802 2.99543 11.4802 5.42052V6.89669H8.32927C4.07184 6.89669 0.550665 10.1079 0.0595703 14.2355H39.9414C39.4503 10.108 35.9292 6.89669 31.6717 6.89669ZM26.2512 6.89669H13.8612V5.42052C13.8612 4.30833 14.766 3.40348 15.8782 3.40348H24.2341C25.3463 3.40348 26.2511 4.30833 26.2511 5.42052V6.89669H26.2512Z" fill="#3A9489"/>
</svg>
