<svg width="40" height="40" viewBox="0 0 40 40" fill="none" xmlns="http://www.w3.org/2000/svg">
<g clip-path="url(#clip0_2079_8147)">
<path d="M34.0506 21.4636L33.1693 22.4703L32.2878 21.4636C31.6418 20.726 30.7107 20.303 29.7332 20.303C27.861 20.303 26.3379 21.826 26.3379 23.6982C26.3379 25.9132 28.6351 28.5213 33.1692 31.4562C37.7032 28.5213 40.0004 25.9132 40.0004 23.6982C40.0004 21.826 38.4773 20.303 36.6052 20.303C35.6277 20.303 34.6966 20.726 34.0506 21.4636Z" fill="#3A9489"/>
<path d="M26.0704 28.5913C24.6928 26.947 23.9943 25.3008 23.9943 23.6982C23.9943 20.534 26.5685 17.9598 29.7327 17.9598C30.9813 17.9598 32.1846 18.3674 33.1688 19.1037C34.1529 18.3674 35.3563 17.9598 36.6048 17.9598C36.787 17.9598 36.9671 17.9693 37.1451 17.986C37.5088 16.8226 37.6798 15.6982 37.6798 14.609C37.6798 8.67151 32.8664 3.85815 26.9288 3.85815C23.7026 3.85815 20.8105 5.28117 18.8399 7.53155C16.8692 5.28117 13.9771 3.85815 10.7509 3.85815C4.81336 3.85823 0 8.67159 0 14.6091C0 20.5349 5.03619 27.4992 18.8399 36.142C22.2311 34.0187 25.0915 31.997 27.4795 30.0669C26.9488 29.5709 26.4798 29.0798 26.0704 28.5913Z" fill="#3A9489"/>
</g>
<defs>
<clipPath id="clip0_2079_8147">
<rect width="40" height="40" fill="white"/>
</clipPath>
</defs>
</svg>
