<svg width="40" height="40" viewBox="0 0 40 40" fill="none" xmlns="http://www.w3.org/2000/svg">
<path d="M19.5967 1.71845C19.8612 1.65015 20.1388 1.65018 20.4034 1.71845L33.7364 5.05146C34.0968 5.14136 34.4176 5.34968 34.6465 5.64228C34.8752 5.9348 34.9995 6.29537 35 6.66669V24.6384C35.0046 26.0525 34.6474 27.4444 33.962 28.6813C33.2764 29.9183 32.2848 30.9591 31.0831 31.7048L20.8838 38.0798C20.6189 38.2453 20.3124 38.3337 20 38.3337C19.6878 38.3337 19.3821 38.2453 19.1172 38.0798L8.91704 31.7048C7.71532 30.9591 6.7247 29.9183 6.03911 28.6813C5.35352 27.4444 4.99546 26.0526 5.00004 24.6384V6.66669C5.00054 6.29524 5.12567 5.93485 5.35454 5.64228C5.58342 5.34971 5.90329 5.14135 6.26372 5.05146L19.5967 1.71845ZM27.7842 14.4245C27.052 13.6923 25.8651 13.6923 25.1329 14.4245L18.9581 20.5983L16.5342 18.1745C15.802 17.4423 14.6151 17.4423 13.8829 18.1745C13.1506 18.9068 13.1506 20.0936 13.8829 20.8259L17.6329 24.5759C18.3651 25.3081 19.552 25.3081 20.2842 24.5759L27.7842 17.0759C28.5165 16.3436 28.5164 15.1568 27.7842 14.4245Z" fill="#3A9489"/>
</svg>
