<svg width="22" height="30" viewBox="0 0 22 30" fill="none" xmlns="http://www.w3.org/2000/svg">
<path d="M18.6667 10.1849C15.054 10.8569 12.4244 9.64767 10.207 8.83464C8.98176 8.3854 7.90481 8.05732 6.74089 8.03125C5.61154 8.00596 4.30689 8.26547 2.66667 9.15495V20C2.66667 20.7364 3.26362 21.3333 4 21.3333H17.3333C18.0697 21.3333 18.6667 20.7364 18.6667 20V10.1849ZM12 16.0742C12 15.9826 11.9518 15.752 11.7448 15.3711C11.55 15.0127 11.2735 14.6279 10.9701 14.2591C10.8692 14.1366 10.7654 14.0212 10.6667 13.9102C10.5679 14.0212 10.4641 14.1366 10.3633 14.2591C10.0599 14.6279 9.78329 15.0127 9.58854 15.3711C9.38156 15.752 9.33333 15.9826 9.33333 16.0742C9.33338 16.5683 9.49984 16.8465 9.67969 17.0104C9.87669 17.1897 10.2045 17.3333 10.6667 17.3333C11.1288 17.3333 11.4566 17.1897 11.6536 17.0104C11.8335 16.8465 12 16.5683 12 16.0742ZM18.6667 4C18.6667 3.26362 18.0697 2.66667 17.3333 2.66667H4C3.26362 2.66667 2.66667 3.26362 2.66667 4V6.19922C4.15444 5.5747 5.51214 5.33572 6.80078 5.36458C8.42826 5.40106 9.8519 5.86475 11.1263 6.33203C13.6198 7.24635 15.6537 8.1798 18.6667 7.45573V4ZM14.6667 16.0742C14.6666 17.2465 14.2356 18.2648 13.4505 18.9805C12.6823 19.6806 11.6768 20 10.6667 20C9.65651 20 8.65102 19.6806 7.88281 18.9805C7.09772 18.2648 6.66672 17.2465 6.66667 16.0742C6.66667 15.3326 6.9518 14.6369 7.24479 14.0977C7.54996 13.5361 7.94023 13.0065 8.30339 12.5651C8.67039 12.1191 9.03358 11.7339 9.30339 11.4622C9.43901 11.3257 9.55394 11.2165 9.63542 11.1393C9.67603 11.1008 9.70835 11.0698 9.73177 11.0482C9.74349 11.0374 9.75351 11.0284 9.76042 11.0221L9.77214 11.0104H9.77344C10.281 10.5523 11.0524 10.5523 11.5599 11.0104H11.5612L11.5729 11.0221C11.5798 11.0284 11.5898 11.0374 11.6016 11.0482C11.625 11.0698 11.6573 11.1008 11.6979 11.1393C11.7794 11.2165 11.8943 11.3257 12.0299 11.4622C12.2998 11.7339 12.6629 12.1191 13.0299 12.5651C13.3931 13.0065 13.7834 13.5361 14.0885 14.0977C14.3815 14.6369 14.6667 15.3326 14.6667 16.0742ZM21.3333 20C21.3333 22.2091 19.5425 24 17.3333 24H11.9388C11.713 25.2881 10.8722 26.5095 9.90104 27.3997C8.73292 28.4705 7.09255 29.3333 5.33333 29.3333C4.59695 29.3333 4 28.7364 4 28C4 27.2636 4.59695 26.6667 5.33333 26.6667C6.24075 26.6667 7.26708 26.1961 8.09896 25.4336C8.63685 24.9405 8.98424 24.4296 9.16927 24H4C1.79086 24 0 22.2091 0 20V4C0 1.79086 1.79086 0 4 0H17.3333C19.5425 0 21.3333 1.79086 21.3333 4V20Z" fill="#3A9489"/>
</svg>
