<svg width="32" height="32" viewBox="0 0 32 32" fill="none" xmlns="http://www.w3.org/2000/svg">
<path fill-rule="evenodd" clip-rule="evenodd" d="M15.6778 1.3746C15.8893 1.32002 16.1117 1.31998 16.3233 1.3746L26.9893 4.04159C27.2776 4.11349 27.5337 4.27931 27.7168 4.51327C27.8999 4.74735 27.9997 5.0364 28 5.33359V19.7105C28.0037 20.8419 27.7175 21.9553 27.169 22.9449C26.6206 23.9344 25.8285 24.7673 24.8672 25.3639L16.7071 30.4635C16.4952 30.5959 16.2499 30.6666 16 30.6666C15.7502 30.6666 15.5058 30.5958 15.294 30.4635L7.13382 25.3639C6.17245 24.7673 5.37956 23.9345 4.83109 22.9449C4.28266 21.9554 3.99637 20.8419 4.00003 19.7105V5.33359C4.00041 5.0364 4.10013 4.74735 4.28324 4.51327C4.46631 4.27928 4.72251 4.11352 5.01078 4.04159L15.6778 1.3746ZM22.2276 11.4391C21.6418 10.8534 20.6923 10.8535 20.1065 11.4391L15.167 16.3785L13.2276 14.4391C12.6419 13.8534 11.6923 13.8536 11.1065 14.4391C10.5207 15.0248 10.5207 15.9743 11.1065 16.5601L14.1065 19.5601C14.6923 20.1459 15.6418 20.1459 16.2276 19.5601L22.2276 13.5601C22.8132 12.9743 22.8133 12.0248 22.2276 11.4391Z" fill="#3A9489"/>
</svg>
