<svg width="32" height="32" viewBox="0 0 32 32" fill="none" xmlns="http://www.w3.org/2000/svg">
<path d="M15.6778 1.3746C15.8893 1.32002 16.1117 1.31997 16.3233 1.3746L26.9893 4.04159C27.2775 4.11348 27.5337 4.27932 27.7168 4.51327C27.8999 4.74735 27.9997 5.03639 28 5.33358V19.7105C28.0037 20.8419 27.7174 21.9553 27.169 22.9449C26.6206 23.9344 25.8284 24.7673 24.8672 25.3639L16.7071 30.4644C16.4952 30.5969 16.2499 30.6666 16 30.6666C15.7502 30.6666 15.5049 30.5969 15.293 30.4644L7.13382 25.3639C6.17245 24.7673 5.37956 23.9345 4.83109 22.9449C4.28267 21.9554 3.99637 20.8419 4.00003 19.7105V5.33358C4.00041 5.03639 4.10013 4.74735 4.28324 4.51327C4.46632 4.27929 4.72252 4.1135 5.01078 4.04159L15.6778 1.3746ZM22.2276 11.439C21.6419 10.8534 20.6923 10.8535 20.1065 11.439L15.167 16.3785L13.2276 14.439C12.6419 13.8534 11.6923 13.8536 11.1065 14.439C10.5207 15.0248 10.5207 15.9743 11.1065 16.5601L14.1065 19.5611C14.6923 20.1465 15.6419 20.1467 16.2276 19.5611L22.2276 13.5601C22.8131 12.9743 22.8133 12.0248 22.2276 11.439Z" fill="#FF5858"/>
</svg>
