<svg width="32" height="32" viewBox="0 0 32 32" fill="none" xmlns="http://www.w3.org/2000/svg">
<path d="M26.6667 17.3333C26.6667 16.2288 25.7712 15.3333 24.6667 15.3333C23.5621 15.3333 22.6667 16.2288 22.6667 17.3333C22.6667 18.4379 23.5621 19.3333 24.6667 19.3333C25.7712 19.3333 26.6667 18.4379 26.6667 17.3333ZM11.3333 5.33331V2.66665C11.3333 1.93027 11.9303 1.33331 12.6667 1.33331C13.403 1.33332 14 1.93027 14 2.66665L14.2057 2.67185C16.3193 2.77894 18 4.52651 18 6.66665V12C18 15.9638 15.1167 19.2517 11.3333 19.8867V22C11.3333 25.3137 14.0196 28 17.3333 28C20.647 28 23.3333 25.3137 23.3333 22V21.8047C21.406 21.2308 20 19.4471 20 17.3333C20 14.756 22.0893 12.6666 24.6667 12.6666C27.244 12.6666 29.3333 14.756 29.3333 17.3333C29.3333 19.4471 27.9274 21.2308 26 21.8047V22C26 26.7864 22.1198 30.6666 17.3333 30.6666C12.5469 30.6666 8.66667 26.7864 8.66667 22V19.8867C4.88327 19.2517 2 15.9638 2 12V6.66665C2 4.45751 3.79086 2.66665 6 2.66665C6.00001 1.93028 6.59696 1.33331 7.33333 1.33331C8.06971 1.33331 8.66665 1.93028 8.66667 2.66665V5.33331C8.66667 6.06969 8.06971 6.66665 7.33333 6.66665C6.64309 6.66665 6.07494 6.14222 6.00651 5.47003L6 5.33331C5.26362 5.33331 4.66667 5.93027 4.66667 6.66665V12C4.66667 14.9455 7.05448 17.3333 10 17.3333C12.9455 17.3333 15.3333 14.9455 15.3333 12V6.66665C15.3333 5.97642 14.8089 5.40827 14.1367 5.33982L14 5.33331L13.9935 5.47003C13.9249 6.14207 13.3568 6.66663 12.6667 6.66665C11.9304 6.66664 11.3335 6.06957 11.3333 5.33331Z" fill="#FF5858"/>
</svg>
