<svg width="32" height="32" viewBox="0 0 32 32" fill="none" xmlns="http://www.w3.org/2000/svg">
<g clip-path="url(#clip0_104_6896)">
<path d="M0.873324 13.5744C0.307995 12.0474 -0.101382 10.4878 0.0220808 8.83084C0.100057 7.81065 0.483442 6.93991 1.23072 6.22513C2.04297 5.45836 2.80974 4.6526 3.609 3.87283C4.64869 2.84614 5.95479 2.85264 6.99448 3.87283C7.63779 4.50314 8.2746 5.14645 8.9114 5.78976C9.52872 6.40707 10.1525 7.02438 10.7698 7.6482C11.855 8.74637 11.8615 10.0265 10.7763 11.1182C9.99658 11.8979 9.22331 12.6842 8.43055 13.4509C8.22261 13.6524 8.20312 13.8213 8.31358 14.0748C8.83343 15.3224 9.5872 16.4336 10.4319 17.4732C12.1344 19.5656 14.0579 21.424 16.3517 22.8601C16.8455 23.1655 17.3849 23.393 17.8982 23.6724C18.1646 23.8153 18.3401 23.7698 18.5545 23.5489C19.3278 22.7496 20.1205 21.9634 20.9133 21.1771C21.953 20.1504 23.2526 20.1439 24.2923 21.1771C25.5659 22.4377 26.833 23.7049 28.0936 24.9785C29.1528 26.0442 29.1463 27.3503 28.0806 28.4224C27.3594 29.1502 26.5991 29.839 25.9233 30.5993C24.9356 31.704 23.688 32.0678 22.2714 31.9899C20.205 31.8794 18.3011 31.1906 16.4621 30.3004C12.3814 28.3185 8.89841 25.5698 5.98079 22.0998C3.82344 19.5266 2.04297 16.7325 0.873324 13.5744ZM31.999 15.9007C31.999 7.13485 24.8641 0 16.0982 0V3.02809C23.1941 3.02809 28.9709 8.80485 28.9709 15.9007H31.999ZM23.2916 15.9007H26.3197C26.3197 10.2669 21.732 5.67929 16.0982 5.67929V8.70738C18.0217 8.70738 19.8281 9.45465 21.1862 10.8127C22.5443 12.1708 23.2916 13.9773 23.2916 15.9007Z" fill="#FF5858"/>
</g>
<defs>
<clipPath id="clip0_104_6896">
<rect width="32" height="32" fill="white"/>
</clipPath>
</defs>
</svg>
