<svg width="32" height="32" viewBox="0 0 32 32" fill="none" xmlns="http://www.w3.org/2000/svg">
<path d="M24.0007 23.3333C24.0007 20.1941 22.1913 17.4771 19.554 16.1667C18.5592 16.8993 17.3309 17.3333 16.0007 17.3333C14.67 17.3333 13.4409 16.8997 12.446 16.1667C9.80929 17.4773 8.00065 20.1945 8.00065 23.3333V26C8.00065 26.7364 8.59761 27.3333 9.33398 27.3333H22.6673C23.4037 27.3333 24.0007 26.7364 24.0007 26V23.3333ZM14.6673 25.3333V24H13.334C12.5976 24 12.0007 23.4031 12.0007 22.6667C12.0007 21.9303 12.5976 21.3333 13.334 21.3333H14.6673V20C14.6673 19.2636 15.2643 18.6667 16.0007 18.6667C16.737 18.6667 17.334 19.2636 17.334 20V21.3333H18.6673C19.4037 21.3333 20.0007 21.9303 20.0007 22.6667C20.0007 23.4031 19.4037 24 18.6673 24H17.334V25.3333C17.334 26.0697 16.737 26.6667 16.0007 26.6667C15.2643 26.6667 14.6673 26.0697 14.6673 25.3333ZM19.334 9.33334H12.6673V11.3333C12.6673 13.1743 14.1597 14.6667 16.0007 14.6667C17.8416 14.6667 19.334 13.1743 19.334 11.3333V9.33334ZM19.334 5.33334C19.334 4.59696 18.737 4.00001 18.0007 4.00001H14.0007C13.2643 4.00001 12.6673 4.59696 12.6673 5.33334V6.66668H19.334V5.33334ZM22.0007 11.3333C22.0007 12.3282 21.756 13.2651 21.3275 14.0912C24.517 15.9333 26.6673 19.3807 26.6673 23.3333V26C26.6673 28.2091 24.8765 30 22.6673 30H9.33398C7.12485 30 5.33398 28.2091 5.33398 26V23.3333C5.33398 19.3811 7.48354 15.9334 10.6725 14.0912C10.2442 13.2653 10.0007 12.328 10.0007 11.3333V5.33334C10.0007 3.1242 11.7915 1.33334 14.0007 1.33334H18.0007C20.2098 1.33334 22.0007 3.1242 22.0007 5.33334V11.3333Z" fill="#FF5858"/>
</svg>
