<svg width="32" height="32" viewBox="0 0 32 32" fill="none" xmlns="http://www.w3.org/2000/svg">
<path d="M16.5964 30.526C16.221 30.7137 15.779 30.7137 15.4036 30.526L16 29.3333L16.5964 30.526ZM25.3333 7.59113L16 4.09113L6.66667 7.59113V16C6.66667 19.4045 8.95746 22.3992 11.5443 24.6627C12.8098 25.77 14.0823 26.646 15.0404 27.2448C15.4172 27.4803 15.7448 27.6691 16 27.8138C16.2552 27.6691 16.5828 27.4803 16.9596 27.2448C17.9177 26.646 19.1902 25.77 20.4557 24.6627C23.0425 22.3992 25.3333 19.4045 25.3333 16V7.59113ZM19.0573 12.3906C19.578 11.8699 20.422 11.8699 20.9427 12.3906C21.4634 12.9113 21.4634 13.7553 20.9427 14.276L15.6094 19.6094C15.0887 20.1301 14.2447 20.1301 13.724 19.6094L11.0573 16.9427C10.5366 16.422 10.5366 15.578 11.0573 15.0573C11.578 14.5366 12.422 14.5366 12.9427 15.0573L14.6667 16.7812L19.0573 12.3906ZM28 16C28 20.5952 24.9573 24.2675 22.2109 26.6706C20.8101 27.8962 19.4155 28.8541 18.3737 29.5052C17.8513 29.8317 17.4138 30.0838 17.1042 30.2552C16.9493 30.3409 16.8259 30.4065 16.7396 30.4518C16.6964 30.4745 16.6621 30.4929 16.638 30.5052L16.6016 30.5234L16.5977 30.5247V30.526C16.5972 30.5262 16.5963 30.5259 16 29.3333C15.4037 30.5259 15.4028 30.5262 15.4023 30.526V30.5247L15.3984 30.5234L15.362 30.5052C15.3379 30.4929 15.3036 30.4745 15.2604 30.4518C15.1741 30.4065 15.0507 30.3409 14.8958 30.2552C14.5862 30.0838 14.1487 29.8317 13.6263 29.5052C12.5845 28.8541 11.1899 27.8962 9.78906 26.6706C7.04273 24.2675 4 20.5952 4 16V6.66665C4 6.11101 4.34442 5.61322 4.86458 5.41795L15.5313 1.41795L15.6458 1.3815C15.916 1.30703 16.2044 1.31884 16.4688 1.41795L27.1354 5.41795C27.6556 5.61322 28 6.11101 28 6.66665V16Z" fill="#FF5858"/>
</svg>
