<svg width="32" height="32" viewBox="0 0 32 32" fill="none" xmlns="http://www.w3.org/2000/svg">
<path d="M22.6667 12.1111C22.6667 11.8043 22.9154 11.5556 23.2222 11.5556H27.3822C25.56 6.89667 21.0167 3.77778 16 3.77778C9.26111 3.77778 3.77778 9.26111 3.77778 16C3.77778 22.7389 9.26111 28.2222 16 28.2222C22.5526 28.2222 27.9182 23.0378 28.2097 16.5558C28.2235 16.2493 28.471 16 28.7778 16C29.0846 16 29.3345 16.2495 29.3219 16.556C29.0294 23.6514 23.166 29.3333 16 29.3333C8.64778 29.3333 2.66667 23.3522 2.66667 16C2.66667 8.64778 8.64778 2.66667 16 2.66667C21.3033 2.66667 26.12 5.86222 28.2222 10.6844V6.55555C28.2222 6.24873 28.471 6 28.7778 6C29.0846 6 29.3333 6.24873 29.3333 6.55556V11C29.3333 11.9189 28.5856 12.6667 27.6667 12.6667H23.2222C22.9154 12.6667 22.6667 12.4179 22.6667 12.1111ZM15.445 8.22278C15.138 8.22247 14.8889 8.47129 14.8889 8.77833V16.3144L20.2383 19.5243C20.5013 19.6821 20.8423 19.5968 21.0001 19.3338C21.1577 19.0709 21.0725 18.7299 20.8096 18.5722L16 15.6867V8.77833C16 8.47173 15.7516 8.22309 15.445 8.22278Z" fill="#FF5858"/>
<path d="M3.77778 16C3.77778 9.26111 9.26111 3.77778 16 3.77778C21.0167 3.77778 25.56 6.89667 27.3822 11.5556H23.2222L23.2227 10.8893H26.3581C24.4292 6.99322 20.4067 4.44401 16 4.44401C9.6293 4.44401 4.44401 9.6293 4.44401 16C4.44401 22.3707 9.6293 27.556 16 27.556V28.2222L15.3724 28.2057C8.92396 27.8779 3.77778 22.5284 3.77778 16ZM16 8.77833C16 8.47173 15.7516 8.22309 15.445 8.22278C15.138 8.22247 14.8889 8.47129 14.8889 8.77833V16.3144L20.2383 19.5243C20.5013 19.6821 20.8423 19.5968 21.0001 19.3338C21.1378 19.1038 21.09 18.8138 20.8997 18.6393L20.8096 18.5722L16 15.6867V8.77833ZM23.2222 11.5556L23.1107 11.5664C22.8574 11.618 22.6669 11.8427 22.6667 12.1111C22.6667 12.3797 22.8574 12.6033 23.1107 12.6549L23.2222 12.6667H27.6667C28.5856 12.6667 29.3333 11.9189 29.3333 11V6.55556C29.3333 6.24873 29.0846 6 28.7778 6C28.471 6 28.2222 6.24873 28.2222 6.55555V10.6844C26.12 5.86222 21.3033 2.66667 16 2.66667C8.64778 2.66667 2.66667 8.64778 2.66667 16C2.66667 23.3522 8.64778 29.3333 16 29.3333C23.166 29.3333 29.0294 23.6514 29.3219 16.556C29.3345 16.2495 29.0846 16 28.7778 16C28.471 16 28.2235 16.2493 28.2097 16.5558C27.9182 23.0378 22.5526 28.2222 16 28.2222V27.556C22.1943 27.556 27.2685 22.6536 27.5443 16.526L27.5547 16.4063C27.6385 15.8164 28.1374 15.3336 28.7773 15.3333C29.4457 15.3333 30.0171 15.8811 29.9883 16.5833C29.6812 24.0343 23.5251 30 16 30C8.27959 30 2 23.7204 2 16C2 8.27959 8.27959 2 16 2C20.6747 2 24.9856 4.36285 27.556 8.11458V6.55599C27.556 5.88112 28.1025 5.33357 28.7773 5.33333C29.4524 5.33333 30 5.88098 30 6.55599V11C30 12.2871 28.9537 13.3333 27.6667 13.3333H23.2227C22.5476 13.3333 22 12.7857 22 12.1107C22.0002 11.4359 22.5478 10.8893 23.2227 10.8893L23.2222 11.5556ZM16.6667 15.3086L21.1523 18C21.7309 18.3471 21.9187 19.0984 21.5716 19.6771C21.2245 20.2554 20.4743 20.4431 19.8958 20.0964L14.5456 16.8867L14.2227 16.6914V8.77865C14.2227 8.10327 14.77 7.55551 15.4453 7.55599C16.1199 7.55666 16.6667 8.10411 16.6667 8.77865V15.3086Z" fill="#FF5858"/>
</svg>
