<svg width="32" height="32" viewBox="0 0 32 32" fill="none" xmlns="http://www.w3.org/2000/svg">
<path d="M24.03 3.65H23.35V2.97C23.35 1.88 22.47 1 21.38 1H20.62C19.53 1 18.65 1.88 18.65 2.97V3.65H17.97C16.88 3.65 16 4.53 16 5.62V6.38C16 7.47 16.88 8.35 17.97 8.35H18.65V9.03C18.65 10.12 19.53 11 20.62 11H21.38C22.47 11 23.35 10.12 23.35 9.03V8.35H24.03C25.12 8.35 26 7.47 26 6.38V5.62C26 4.53 25.12 3.65 24.03 3.65Z" fill="#FF5858"/>
<path d="M4.5 8.5C4.5 7.67 3.83 7 3 7H2.5C1.67 7 1 7.67 1 8.5V31H4.5V27H14.5V19H4.5V8.5Z" fill="#FF5858"/>
<path d="M29.5 19H27.5V31H31V20.5C31 19.67 30.33 19 29.5 19Z" fill="#FF5858"/>
<path d="M22.5 19H25.5V29H22.5V19Z" fill="#FF5858"/>
<path d="M16.5 29C16.5 29.55 16.95 30 17.5 30C18.05 30 18.5 29.55 18.5 29H20.5V19H16.5V29Z" fill="#FF5858"/>
<path d="M12.5 15C12.5 13.9 11.6 13 10.5 13H6.5V17H12.5V15Z" fill="#FF5858"/>
</svg>
