<svg width="32" height="32" viewBox="0 0 32 32" fill="none" xmlns="http://www.w3.org/2000/svg">
<path d="M23.9056 12.6706C24.4435 12.6323 24.9522 12.9213 25.1934 13.4036L27.4915 18H30.0007C30.737 18 31.334 18.5969 31.334 19.3333C31.334 20.0697 30.737 20.6666 30.0007 20.6666H26.6673C26.1623 20.6666 25.7005 20.3814 25.4746 19.9297L24.2467 17.4739L22.5983 22.4219C22.4277 22.9331 21.9666 23.291 21.429 23.3294C20.8911 23.3676 20.3825 23.0787 20.1413 22.5963L17.8431 18H15.334C14.5976 18 14.0007 17.403 14.0007 16.6666C14.0007 15.9303 14.5976 15.3333 15.334 15.3333H18.6673C19.1723 15.3333 19.6342 15.6186 19.86 16.0703L21.0866 18.5247L22.7363 13.5781L22.8132 13.3945C23.023 12.9826 23.435 12.7042 23.9056 12.6706ZM28.0007 12C28.0007 8.68629 25.3143 5.99998 22.0007 5.99998C19.9725 5.99998 18.1786 7.0056 17.0905 8.55076C16.8407 8.9051 16.4342 9.11587 16.0007 9.11587C15.5671 9.11587 15.1606 8.9051 14.9108 8.55076C13.8227 7.0056 12.0288 5.99998 10.0007 5.99998C6.68695 5.99998 4.00065 8.68629 4.00065 12C4.00065 15.1545 5.88652 18.3337 8.5319 21.0052C10.9933 23.4909 13.9152 25.3352 15.9993 26.1341C16.9423 25.7727 18.0753 25.191 19.2754 24.4127C19.8931 24.0124 20.7185 24.1885 21.1191 24.806C21.5198 25.4238 21.3437 26.2503 20.7259 26.651C19.2097 27.6343 17.7098 28.3882 16.4212 28.8164C16.1482 28.9071 15.8531 28.9071 15.5801 28.8164C13.0111 27.9627 9.50365 25.7774 6.63607 22.8815C3.78166 19.9987 1.33398 16.1786 1.33398 12C1.33398 7.21354 5.21418 3.33331 10.0007 3.33331C12.3309 3.33331 14.4443 4.25577 16.0007 5.74998C17.557 4.25577 19.6704 3.33331 22.0007 3.33331C26.7871 3.33331 30.6673 7.21353 30.6673 12C30.6673 13.3325 30.4172 14.628 29.9889 15.862C29.7475 16.5575 28.9879 16.926 28.2923 16.6849C27.5966 16.4434 27.228 15.6826 27.4694 14.987C27.8136 13.9952 28.0007 12.996 28.0007 12Z" fill="white"/>
</svg>
