<svg width="32" height="32" viewBox="0 0 32 32" fill="none" xmlns="http://www.w3.org/2000/svg">
<path d="M24.0007 8.00004C24.0007 7.26366 23.4037 6.66671 22.6673 6.66671H22.4355C21.8861 8.21961 20.4085 9.33337 18.6673 9.33337H13.334C11.5928 9.33337 10.1152 8.21961 9.56576 6.66671H9.33398C8.5976 6.66671 8.00065 7.26366 8.00065 8.00004V25.3334C8.00065 26.0698 8.5976 26.6667 9.33398 26.6667H22.6673C23.4037 26.6667 24.0007 26.0698 24.0007 25.3334V8.00004ZM17.278 12.668C17.8026 12.6462 18.2919 12.9341 18.5267 13.4037L20.1582 16.6667H21.334C22.0704 16.6667 22.6673 17.2637 22.6673 18C22.6673 18.7364 22.0704 19.3334 21.334 19.3334H19.334C18.829 19.3334 18.3671 19.0481 18.1413 18.5964L17.4681 17.2513L15.9056 21.1615C15.7175 21.6318 15.2789 21.9556 14.7741 21.9961C14.2692 22.0366 13.7847 21.7872 13.5241 21.3529L11.9121 18.6667H10.6673C9.93096 18.6667 9.33398 18.0697 9.33398 17.3334C9.33399 16.597 9.93096 16.0001 10.6673 16H12.6673C13.1356 16 13.5696 16.2457 13.8105 16.6472L14.4264 17.6745L16.0957 13.5052L16.1816 13.3295C16.408 12.9403 16.8194 12.6873 17.278 12.668ZM13.334 4.00004C12.5976 4.00004 12.0007 4.59699 12.0007 5.33337C12.0007 6.06975 12.5976 6.66671 13.334 6.66671H18.6673C19.4037 6.66671 20.0007 6.06975 20.0007 5.33337C20.0007 4.59699 19.4037 4.00004 18.6673 4.00004H13.334ZM26.6673 25.3334C26.6673 27.5425 24.8765 29.3334 22.6673 29.3334H9.33398C7.12485 29.3334 5.33398 27.5425 5.33398 25.3334V8.00004C5.33398 5.7909 7.12485 4.00004 9.33398 4.00004H9.56576C10.1152 2.44713 11.5928 1.33337 13.334 1.33337H18.6673C20.4085 1.33337 21.8861 2.44713 22.4355 4.00004H22.6673C24.8765 4.00004 26.6673 5.7909 26.6673 8.00004V25.3334Z" fill="white"/>
</svg>
