<svg width="32" height="32" viewBox="0 0 32 32" fill="none" xmlns="http://www.w3.org/2000/svg">
<path d="M11.9024 7.37295C11.9024 6.50082 11.1954 5.79382 10.3233 5.79382C9.45114 5.79382 8.74414 6.50082 8.74414 7.37295V7.99728H11.9024V7.37295Z" fill="white"/>
<path d="M31.1921 9.99573C31.1921 8.73306 30.1687 7.70962 28.9031 7.70962H8.62205C4.31212 7.69808 0.809447 11.1864 0.80079 15.4963V15.5021V21.608C0.797904 22.4671 1.49554 23.1676 2.35755 23.1705H2.36329H3.19937C3.72692 24.9666 5.37592 26.2033 7.25268 26.2062C9.12944 26.2148 10.7842 24.9752 11.3031 23.1705H20.6754C21.203 24.9666 22.852 26.2033 24.7287 26.2062C26.6055 26.2148 28.2603 24.9752 28.7792 23.1705H29.6383C30.5003 23.1705 31.1979 22.4729 31.2008 21.6138C31.2008 21.6109 31.2008 21.608 31.2008 21.608L31.1921 9.99573ZM7.24403 23.7413C6.28115 23.7269 5.50279 22.9514 5.48836 21.9886C5.49125 21.0199 6.27538 20.2357 7.24403 20.2329C8.2069 20.2473 8.98241 21.0256 8.99681 21.9886C8.99392 22.9543 8.20979 23.7384 7.24403 23.7413ZM9.68874 16.0095H3.18205V15.5021C3.18205 12.5183 5.59791 10.0995 8.58169 10.0967H9.70025L9.68874 16.0095ZM21.8487 16.044C21.8487 16.1882 21.7305 16.3064 21.5864 16.3064H20.6091C20.462 16.3064 20.3468 16.1882 20.3468 16.044V14.4094H18.7093C18.5622 14.4094 18.4469 14.2912 18.4469 14.1471V13.1669C18.4469 13.0199 18.5622 12.9046 18.7093 12.9046H20.3468V11.2671C20.3468 11.1201 20.462 11.0047 20.6091 11.0047H21.5864C21.7305 11.0047 21.8487 11.1201 21.8487 11.2671V12.9046H23.4862C23.6303 12.9046 23.7485 13.0199 23.7485 13.1669V14.1471C23.7485 14.2912 23.6303 14.4094 23.4862 14.4094H21.8487V16.044ZM24.7201 23.7298V23.7413C23.7572 23.7413 22.9759 22.9629 22.973 22.0001C22.973 21.0372 23.7543 20.2559 24.7172 20.2559H24.7201C25.6743 20.2704 26.4469 21.043 26.4613 22.0001C26.4527 22.9572 25.6772 23.7269 24.7201 23.7298Z" fill="white"/>
</svg>
