<svg width="32" height="32" viewBox="0 0 32 32" fill="none" xmlns="http://www.w3.org/2000/svg">
<path d="M24 12.1849C20.3874 12.8569 17.7578 11.6477 15.5404 10.8346C14.3151 10.3854 13.2382 10.0573 12.0742 10.0313C10.9449 10.006 9.64023 10.2655 8.00001 11.1549V22C8.00001 22.7364 8.59696 23.3333 9.33334 23.3333H22.6667C23.4031 23.3333 24 22.7364 24 22V12.1849ZM17.3333 18.0742C17.3333 17.9826 17.2851 17.752 17.0781 17.3711C16.8834 17.0127 16.6068 16.6279 16.3034 16.2591C16.2026 16.1366 16.0987 16.0212 16 15.9102C15.9013 16.0212 15.7974 16.1366 15.6966 16.2591C15.3932 16.6279 15.1166 17.0127 14.9219 17.3711C14.7149 17.752 14.6667 17.9826 14.6667 18.0742C14.6667 18.5683 14.8332 18.8465 15.013 19.0104C15.21 19.1897 15.5378 19.3333 16 19.3333C16.4622 19.3333 16.79 19.1897 16.987 19.0104C17.1668 18.8465 17.3333 18.5683 17.3333 18.0742ZM24 6C24 5.26362 23.4031 4.66667 22.6667 4.66667H9.33334C8.59696 4.66667 8.00001 5.26362 8.00001 6V8.19922C9.48778 7.5747 10.8455 7.33572 12.1341 7.36458C13.7616 7.40106 15.1852 7.86475 16.4596 8.33203C18.9532 9.24635 20.9871 10.1798 24 9.45573V6ZM20 18.0742C20 19.2465 19.569 20.2648 18.7839 20.9805C18.0157 21.6806 17.0102 22 16 22C14.9899 22 13.9844 21.6806 13.2162 20.9805C12.4311 20.2648 12.0001 19.2465 12 18.0742C12 17.3326 12.2851 16.6369 12.5781 16.0977C12.8833 15.5361 13.2736 15.0065 13.6367 14.5651C14.0037 14.1191 14.3669 13.7339 14.6367 13.4622C14.7723 13.3257 14.8873 13.2165 14.9688 13.1393C15.0094 13.1008 15.0417 13.0698 15.0651 13.0482C15.0768 13.0374 15.0869 13.0284 15.0938 13.0221L15.1055 13.0104H15.1068C15.6143 12.5523 16.3857 12.5523 16.8932 13.0104H16.8945L16.9063 13.0221C16.9132 13.0284 16.9232 13.0374 16.9349 13.0482C16.9583 13.0698 16.9906 13.1008 17.0313 13.1393C17.1127 13.2165 17.2277 13.3257 17.3633 13.4622C17.6331 13.7339 17.9963 14.1191 18.3633 14.5651C18.7264 15.0065 19.1167 15.5361 19.4219 16.0977C19.7149 16.6369 20 17.3326 20 18.0742ZM26.6667 22C26.6667 24.2091 24.8758 26 22.6667 26H17.2721C17.0463 27.2881 16.2056 28.5095 15.2344 29.3997C14.0663 30.4705 12.4259 31.3333 10.6667 31.3333C9.9303 31.3333 9.33334 30.7364 9.33334 30C9.33334 29.2636 9.9303 28.6667 10.6667 28.6667C11.5741 28.6667 12.6004 28.1961 13.4323 27.4336C13.9702 26.9405 14.3176 26.4296 14.5026 26H9.33334C7.1242 26 5.33334 24.2091 5.33334 22V6C5.33334 3.79086 7.1242 2 9.33334 2H22.6667C24.8758 2 26.6667 3.79086 26.6667 6V22Z" fill="white"/>
</svg>
