<svg width="32" height="32" viewBox="0 0 32 32" fill="none" xmlns="http://www.w3.org/2000/svg">
<g clip-path="url(#clip0_2079_4956)">
<path d="M31.7531 23.8034C31.6556 23.6973 29.6051 21.4907 26.7084 20.3789C27.6468 18.8256 28.1875 17.0061 28.1875 15.0625V13.1875C28.1875 12.6697 27.7677 12.25 27.25 12.25H25.375C23.6032 12.25 21.9028 12.6907 20.384 13.5347C19.4707 9.76737 16.8013 7.03906 16.6653 6.90206C16.4893 6.72469 16.2498 6.625 16 6.625C15.7502 6.625 15.5107 6.72469 15.3346 6.902C15.1986 7.039 12.5292 9.76737 11.6159 13.5346C10.0972 12.6907 8.39679 12.25 6.62498 12.25H4.74998C4.23223 12.25 3.81248 12.6697 3.81248 13.1875V15.0625C3.81248 17.0061 4.35317 18.8256 5.29167 20.379C2.39492 21.4907 0.344415 23.6972 0.246915 23.8035C-0.0815222 24.1612 -0.0823972 24.7105 0.244853 25.0693C0.395853 25.2349 3.99579 29.125 8.49998 29.125C9.91992 29.125 11.2436 28.7385 12.3958 28.204C13.6117 29.7878 15.4529 30.8307 15.5422 30.8806C15.6844 30.9602 15.8422 31 16 31C16.1579 31 16.3157 30.9602 16.4579 30.8806C16.5472 30.8307 18.3883 29.7878 19.6043 28.204C20.7564 28.7385 22.08 29.125 23.5 29.125C28.0042 29.125 31.6041 25.2349 31.7552 25.0693C32.0824 24.7104 32.0815 24.1611 31.7531 23.8034ZM16.0014 8.99331C17.0114 10.2589 18.8125 12.9444 18.8125 16C18.8125 19.0435 17.0081 21.7377 15.9986 23.0067C14.9885 21.7411 13.1875 19.0556 13.1875 16C13.1875 12.9565 14.9919 10.2623 16.0014 8.99331ZM8.49998 27.25C5.82348 27.25 3.41129 25.4337 2.29104 24.4389C3.11929 23.7056 4.64954 22.5264 6.46173 21.9556C8.22692 23.9161 10.7315 25.1979 13.5317 25.3575C12.0682 26.4239 10.3099 27.25 8.49998 27.25ZM5.68748 15.0625V14.125H6.62498C8.31935 14.125 9.93273 14.6186 11.3229 15.5544C11.3162 15.702 11.3125 15.8505 11.3125 16C11.3125 19.1417 12.8423 21.8684 14.0163 23.4986C9.41379 23.4401 5.68748 19.6786 5.68748 15.0625ZM16 28.9578C15.4982 28.6241 14.6825 28.0226 14.0535 27.2765C14.8769 26.7362 15.542 26.1785 15.9999 25.7572C16.4578 26.1785 17.123 26.7362 17.9463 27.2765C17.3173 28.0227 16.5014 28.6243 16 28.9578ZM20.6875 16C20.6875 15.8505 20.6838 15.702 20.6771 15.5544C22.0672 14.6186 23.6806 14.125 25.375 14.125H26.3125V15.0625C26.3125 19.6786 22.5862 23.4401 17.9837 23.4986C19.1577 21.8684 20.6875 19.1417 20.6875 16ZM23.5 27.25C21.5356 27.25 19.7307 26.2705 18.4744 25.3571C21.2722 25.196 23.7744 23.9147 25.5383 21.9556C27.3519 22.5269 28.8829 23.7074 29.7105 24.4403C28.5939 25.4353 26.1887 27.25 23.5 27.25Z" fill="white"/>
<path d="M16 1C15.4822 1 15.0625 1.41975 15.0625 1.9375V3.8125C15.0625 4.33025 15.4822 4.75 16 4.75C16.5178 4.75 16.9375 4.33025 16.9375 3.8125V1.9375C16.9375 1.41975 16.5178 1 16 1Z" fill="white"/>
<path d="M9.82661 6.62494L8.5008 5.29913C8.13467 4.933 7.54111 4.933 7.17498 5.29913C6.80886 5.66525 6.80886 6.25882 7.17498 6.62494L8.5008 7.95075C8.86686 8.31682 9.46042 8.31694 9.82661 7.95075C10.1927 7.58463 10.1927 6.99107 9.82661 6.62494Z" fill="white"/>
<path d="M24.8266 5.29913C24.4604 4.933 23.8669 4.933 23.5007 5.29913L22.1749 6.62494C21.8089 6.99107 21.8089 7.58463 22.1749 7.95075C22.541 8.31688 23.1346 8.31688 23.5008 7.95075L24.8266 6.62494C25.1926 6.25882 25.1926 5.66525 24.8266 5.29913Z" fill="white"/>
</g>
<defs>
<clipPath id="clip0_2079_4956">
<rect width="32" height="32" fill="white"/>
</clipPath>
</defs>
</svg>
