<svg width="32" height="32" viewBox="0 0 32 32" fill="none" xmlns="http://www.w3.org/2000/svg">
<path d="M28.0007 22.6667H4.00065V24C4.00065 26.2092 5.79151 28 8.00065 28H24.0007C26.2098 28 28.0007 26.2092 28.0007 24V22.6667ZM8.13346 24C8.86984 24 9.4668 24.597 9.4668 25.3334C9.4668 26.0698 8.86984 26.6667 8.13346 26.6667H8.00065C7.26427 26.6667 6.66732 26.0698 6.66732 25.3334C6.66732 24.597 7.26427 24 8.00065 24H8.13346ZM13.4668 24C14.2032 24 14.8001 24.597 14.8001 25.3334C14.8001 26.0698 14.2032 26.6667 13.4668 26.6667H13.334C12.5976 26.6667 12.0007 26.0698 12.0007 25.3334C12.0007 24.597 12.5976 24 13.334 24H13.4668ZM17.2389 6.67061C17.7769 6.63238 18.2855 6.92134 18.5267 7.40369L20.8249 12H23.334C24.0704 12 24.6673 12.597 24.6673 13.3334C24.6673 14.0698 24.0704 14.6667 23.334 14.6667H20.0007C19.4956 14.6667 19.0338 14.3814 18.8079 13.9297L17.5801 11.474L15.9316 16.4219C15.7611 16.9331 15.2999 17.291 14.7624 17.3295C14.2244 17.3677 13.7158 17.0787 13.4746 16.5964L11.1764 12H8.66732C7.93094 12 7.33398 11.4031 7.33398 10.6667C7.33398 9.93033 7.93094 9.33337 8.66732 9.33337H12.0007C12.5057 9.33337 12.9675 9.61864 13.1934 10.0704L14.4199 12.5248L16.0697 7.57817L16.1465 7.39457C16.3564 6.98268 16.7684 6.70426 17.2389 6.67061ZM28.0007 8.00004C28.0007 5.7909 26.2098 4.00004 24.0007 4.00004H8.00065C5.79151 4.00004 4.00065 5.7909 4.00065 8.00004V20H28.0007V8.00004ZM30.6673 24C30.6673 27.6819 27.6825 30.6667 24.0007 30.6667H8.00065C4.31875 30.6667 1.33398 27.6819 1.33398 24V8.00004C1.33398 4.31814 4.31875 1.33337 8.00065 1.33337H24.0007C27.6826 1.33337 30.6673 4.31814 30.6673 8.00004V24Z" fill="white"/>
</svg>
