<svg width="32" height="32" viewBox="0 0 32 32" fill="none" xmlns="http://www.w3.org/2000/svg">
<path d="M19.2824 19.7258V19.8287C19.2824 20.8606 18.4429 21.7001 17.411 21.7001C16.3791 21.7001 15.5396 20.8606 15.5396 19.8287V19.7258L17.411 18.4192L19.2824 19.7258Z" fill="white"/>
<path d="M11.4376 15.7383L12.5046 14.9933L15.7735 17.2757L13.5804 18.8071C12.7343 19.3979 11.5653 19.1901 10.9747 18.3441C10.6885 17.9342 10.5791 17.4374 10.6665 16.9453C10.754 16.4531 11.0278 16.0245 11.4376 15.7383Z" fill="white"/>
<path d="M12.5116 8.55644C12.8815 8.55644 13.2548 8.6655 13.5804 8.89281L15.7735 10.4241L12.5046 12.7066L11.4376 11.9616C10.5916 11.3708 10.3839 10.2019 10.9746 9.35587C11.338 8.83537 11.9204 8.55644 12.5116 8.55644Z" fill="white"/>
<path d="M5.07595 10.9324C5.07145 9.13131 5.07251 9.1265 5.09839 9.00925C5.64526 6.52469 7.21589 4.22838 9.52089 2.54325C11.7631 0.904063 14.4673 0.000875 17.135 0C17.1365 0 17.1377 0 17.1391 0C20.4924 0 23.6696 1.29481 26.0856 3.64613C28.5034 5.99913 29.8828 9.14162 29.9698 12.4947C30.017 14.3174 29.6896 16.0873 28.9966 17.7549C27.6632 20.9637 26.9871 24.4401 26.9871 28.0877V32H12.6743V27.5024H9.78189C6.7742 27.5024 4.33595 25.0641 4.33595 22.0564V20.3393L3.25195 20.3448C2.39457 20.3491 1.80064 19.4906 2.10707 18.6898L5.07595 10.9324ZM10.3642 14.201C8.67045 15.3836 8.25464 17.7237 9.4372 19.4174C10.1647 20.4594 11.3306 21.0178 12.5143 21.0178C12.9443 21.0178 13.3764 20.9436 13.7909 20.7928C14.2174 22.3927 15.6785 23.5751 17.411 23.5751C19.1435 23.5751 20.6045 22.3927 21.031 20.7928C21.4455 20.9436 21.8778 21.0178 22.3077 21.0178C23.4915 21.0178 24.6571 20.4595 25.3847 19.4175C26.5673 17.7238 26.1515 15.3836 24.4578 14.2011L23.955 13.85L24.4578 13.4989C26.1515 12.3163 26.5673 9.97625 25.3847 8.2825C24.3929 6.862 22.587 6.34106 21.031 6.90731C20.6045 5.30725 19.1435 4.12494 17.411 4.12494C15.6785 4.12494 14.2174 5.30731 13.7909 6.90731C12.2349 6.341 10.4289 6.86206 9.43726 8.2825C8.86439 9.103 8.64526 10.0974 8.82039 11.0827C8.99545 12.0679 9.5437 12.9261 10.3642 13.4989L10.8669 13.85L10.3642 14.201Z" fill="white"/>
<path d="M22.3175 14.9934L23.3844 15.7384C24.2305 16.3291 24.4381 17.498 23.8474 18.344C23.2566 19.1901 22.0877 19.3978 21.2417 18.807L19.0486 17.2757L22.3175 14.9934Z" fill="white"/>
<path d="M17.411 16.1323L14.1421 13.8499L17.411 11.5676L20.6798 13.8499L17.411 16.1323ZM17.3926 12.9373C16.8671 12.9373 16.4779 13.3669 16.4551 13.8748C16.4325 14.3811 16.9023 14.8123 17.3926 14.8123C17.9182 14.8123 18.3074 14.3827 18.3301 13.8748C18.3528 13.3685 17.883 12.9373 17.3926 12.9373Z" fill="white"/>
<path d="M15.5396 7.97406V7.87119C15.5396 6.83931 16.3791 5.99981 17.411 5.99981C18.4429 5.99981 19.2824 6.83931 19.2824 7.87119V7.97406L17.411 9.28069L15.5396 7.97406Z" fill="white"/>
<path d="M23.3844 11.9615L22.3175 12.7065L19.0486 10.4241L21.2418 8.89281C21.5673 8.6655 21.9406 8.55644 22.3105 8.55644C22.9018 8.55644 23.484 8.83531 23.8475 9.35587C24.4381 10.2019 24.2304 11.3708 23.3844 11.9615Z" fill="white"/>
</svg>
