<svg width="50" height="50" viewBox="0 0 50 50" fill="none" xmlns="http://www.w3.org/2000/svg">
<circle cx="25" cy="25" r="25" fill="url(#paint0_linear_24_839)"/>
<path d="M28.459 8.5C29.3944 8.5 30.2917 8.87181 30.9531 9.5332C31.6146 10.1946 31.9863 11.0919 31.9863 12.0273V18.0137H37.9727C38.9081 18.0137 39.8054 18.3854 40.4668 19.0469C41.1282 19.7083 41.5 20.6056 41.5 21.541V28.459C41.5 29.3944 41.1282 30.2917 40.4668 30.9531C39.8053 31.6146 38.9081 31.9863 37.9727 31.9863H31.9863V37.9727C31.9863 38.9081 31.6146 39.8053 30.9531 40.4668C30.2917 41.1282 29.3944 41.5 28.459 41.5H21.541C20.6056 41.5 19.7083 41.1282 19.0469 40.4668C18.3854 39.8054 18.0137 38.9081 18.0137 37.9727V31.9863H12.0273C11.0919 31.9863 10.1946 31.6146 9.5332 30.9531C8.87181 30.2917 8.5 29.3944 8.5 28.459V21.541C8.5 20.6056 8.87181 19.7083 9.5332 19.0469C10.1946 18.3854 11.0919 18.0137 12.0273 18.0137H18.0137V12.0273C18.0137 11.0919 18.3854 10.1946 19.0469 9.5332C19.7083 8.87181 20.6056 8.5 21.541 8.5H28.459ZM21.6084 30.9326V37.9053H28.3916V30.9326L25 27.541L21.6084 30.9326ZM12.0947 28.3916H19.0664L22.458 25L19.0664 21.6084H12.0947V28.3916ZM27.541 25L30.9336 28.3916H37.9053V21.6084H30.9336L27.541 25ZM21.6084 19.0664L25 22.458L28.3916 19.0664V12.0947H21.6084V19.0664Z" fill="#D3F8F3"/>
<defs>
<linearGradient id="paint0_linear_24_839" x1="3.94737" y1="-7.23684" x2="40.1316" y2="50" gradientUnits="userSpaceOnUse">
<stop offset="0.201923" stop-color="#339E92"/>
<stop offset="1" stop-color="#87D0C8"/>
</linearGradient>
</defs>
</svg>
