<svg width="226" height="25" viewBox="0 0 226 25" fill="none" xmlns="http://www.w3.org/2000/svg">
<g clip-path="url(#clip0_42_871)">
<path fill-rule="evenodd" clip-rule="evenodd" d="M148.57 12.521C148.57 7.6533 145.262 4.74627 140.302 4.72461C135.277 4.72461 132.034 7.93067 132.034 12.4777C132.034 17.367 135.341 20.275 140.302 20.275C145.328 20.275 148.57 17.065 148.57 12.521ZM145.661 12.4993C145.661 15.6651 143.608 17.7979 140.324 17.7979V17.795C136.796 17.7734 134.944 15.4477 134.944 12.4993C134.944 9.3552 136.975 7.22242 140.281 7.20076C143.809 7.22242 145.661 9.54802 145.661 12.4993Z" fill="#FF0D65"/>
<path fill-rule="evenodd" clip-rule="evenodd" d="M182.015 12.521C182.015 7.6533 178.708 4.74627 173.747 4.72461C168.721 4.72461 165.48 7.93067 165.479 12.4777C165.479 17.367 168.786 20.275 173.747 20.275C178.773 20.275 182.015 17.065 182.015 12.521ZM179.107 12.4993C179.107 15.6651 177.054 17.7979 173.769 17.7979L173.77 17.795C170.243 17.7734 168.39 15.4477 168.389 12.4993C168.389 9.3552 170.419 7.22242 173.727 7.20076C177.254 7.22242 179.107 9.54802 179.107 12.4993Z" fill="#FF0D65"/>
<path fill-rule="evenodd" clip-rule="evenodd" d="M184.904 20.0353V4.95898H191.606C195.046 4.95898 196.81 6.20739 196.81 8.70616C196.81 10.4287 196.104 11.5709 194.517 12.174C196.413 12.4966 197.273 13.6812 197.273 15.6408C197.273 18.7643 194.98 20.0353 191.231 20.0353H184.904ZM191.21 11.3338C192.952 11.3338 194.053 10.5803 194.053 9.28756C194.053 8.08147 193.237 7.43513 191.276 7.43513H187.661V11.3338H191.21ZM191.411 17.5581C193.525 17.5581 194.497 16.8901 194.497 15.4469C194.497 14.0038 193.395 13.444 191.455 13.444H187.663V17.5581H191.411Z" fill="#FF0D65"/>
<path fill-rule="evenodd" clip-rule="evenodd" d="M205.254 9.65358H203.159V4.95898H200.404V20.0353H205.28C209.777 20.0353 212.203 18.2684 212.203 14.7583C212.203 11.3555 210.148 9.65358 205.254 9.65358ZM203.159 17.5581V12.1307H205.496C208.186 12.1307 209.354 12.841 209.354 14.6934C209.354 16.7397 208.032 17.5581 205.452 17.5581H203.159Z" fill="#FF0D65"/>
<path d="M217.843 13.509H224.943L224.946 11.0318H217.846V7.43513H225.761V4.95898H215.087V20.0353H226V17.5581H217.843V13.509Z" fill="#FF0D65"/>
<path fill-rule="evenodd" clip-rule="evenodd" d="M154.21 15.3398V20.0353H151.454V4.95898H156.59C161.462 4.95898 163.538 6.65993 163.538 10.0628C163.538 13.5739 161.114 15.3398 156.59 15.3398H154.21ZM154.21 7.43513V12.8626H156.789C159.347 12.8626 160.669 12.0441 160.669 9.99881C160.669 8.14639 159.524 7.43513 156.833 7.43513H154.21Z" fill="#FF0D65"/>
<path fill-rule="evenodd" clip-rule="evenodd" d="M116.402 17.5581C117.283 15.5119 117.923 12.6688 117.99 8.08147L118.033 4.95898H128.88V17.5581H130.666V22.8351H128.087V20.0353H117.305V22.8351H114.726V17.5581H116.402ZM119.092 17.5581H126.124V7.43513H120.548V8.14639C120.459 12.0874 119.97 15.1893 119.092 17.5581Z" fill="#FF0D65"/>
<path d="M106.789 4.74316C104.342 4.74316 102.556 5.45347 101.674 6.07812L101.672 9.82537C102.577 8.49037 104.451 7.17704 106.787 7.21931C108.419 7.26259 109.697 7.82232 109.697 9.22224C109.697 10.3428 109.013 11.2685 107.03 11.2685H104.713V13.4869H107.051C109.453 13.4869 110.468 14.1116 110.468 15.4466C110.468 16.9764 108.969 17.7515 107.095 17.7733C104.25 17.7948 102.244 16.5888 101.296 15.059V18.3763C102.116 19.2804 104.25 20.272 107.051 20.2504C111.196 20.2287 113.334 18.2258 113.334 15.6197C113.334 13.6375 112.19 12.4313 109.809 12.087C111.596 11.4623 112.543 10.2995 112.543 8.53365C112.543 5.88435 110.25 4.76483 106.789 4.74316Z" fill="#FF0D65"/>
<path d="M41.8522 17.3385C42.8543 17.344 43.8415 17.1035 44.7224 16.6394L45.4592 16.2518L47.6105 17.7915C46.191 19.2676 44.099 20.079 41.7025 20.079C39.4114 20.079 37.3175 19.2891 35.8197 17.8666C34.3218 16.4442 33.4965 14.4672 33.4965 12.3193C33.4965 10.1714 34.3339 8.22364 35.8287 6.85198C37.3235 5.48029 39.4165 4.72461 41.7236 4.72461C43.8507 4.72461 45.7105 5.35239 47.1028 6.54055L47.2607 6.6704L44.8761 8.377C43.995 7.76502 42.9353 7.4431 41.8522 7.45826C38.8556 7.45826 36.6802 9.53583 36.6802 12.3983C36.6802 15.2609 38.8556 17.3385 41.8522 17.3385Z" fill="#21A038"/>
<path fill-rule="evenodd" clip-rule="evenodd" d="M57.7979 10.7495H53.7527V7.4085H60.2095L63.6898 4.91797H50.4282V19.8799H57.3646C61.2581 19.8799 63.4907 18.1664 63.4907 15.1799C63.4947 12.3232 61.4711 10.7495 57.7979 10.7495ZM57.2189 17.3883H53.7527V13.2409H57.2189C59.33 13.2409 60.311 13.9351 60.311 15.3146C60.311 16.7245 59.2666 17.3883 57.2189 17.3883Z" fill="#21A038"/>
<path d="M78.2381 4.91797L74.7578 7.4085H69.9144V11.0667H77.0146V13.5583H69.9144V17.3883H78.2381V19.8799H66.59V4.91797H78.2381Z" fill="#21A038"/>
<path fill-rule="evenodd" clip-rule="evenodd" d="M81.3334 4.91797H87.6759C91.7221 4.91797 94.2339 6.96916 94.2339 10.272C94.2339 13.5749 91.7197 15.6416 87.6735 15.6416H84.658V19.8799H81.3334V4.91797ZM84.658 13.1502H87.6041C89.7341 13.1502 90.9061 12.1309 90.9061 10.2799C90.9061 8.42876 89.7341 7.4085 87.6041 7.4085H84.658V13.1502Z" fill="#21A038"/>
<path d="M22.9798 4.85645C23.5853 5.61913 24.1031 6.4525 24.517 7.34084L12.8289 15.7354L7.94531 12.7523V9.16363L12.8289 12.1467L22.9798 4.85645Z" fill="#21A038"/>
<path d="M2.96359 12.4993C2.96359 12.3384 2.96763 12.1784 2.97569 12.0193L0.0161178 11.875C0.00604442 12.0821 0 12.2902 0 12.4993C0 15.9505 1.43546 19.0759 3.75738 21.3385L5.85568 19.2938C4.07066 17.5525 2.96359 15.1496 2.96359 12.4993Z" fill="url(#paint0_linear_42_871)"/>
<path d="M12.8278 2.88684C12.993 2.88684 13.1572 2.89273 13.3204 2.90059L13.4685 0.0157057C13.256 0.00588987 13.0424 0 12.8278 0C9.28605 0 6.07863 1.39876 3.75671 3.66131L5.855 5.70595C7.64202 3.96462 10.108 2.88684 12.8278 2.88684Z" fill="url(#paint1_linear_42_871)"/>
<path d="M12.8283 22.1121C12.663 22.1121 12.4989 22.1082 12.3357 22.1003L12.1876 24.9842C12.4001 24.994 12.6137 24.9999 12.8283 24.9999C16.37 24.9999 19.5774 23.6011 21.8993 21.3386L19.801 19.2939C18.014 21.0333 15.548 22.1121 12.8283 22.1121Z" fill="url(#paint2_linear_42_871)"/>
<path d="M18.3906 4.56437L20.8858 2.77298C18.6838 1.03852 15.8814 0 12.8291 0V2.88783C14.8912 2.88684 16.8061 3.5072 18.3906 4.56437Z" fill="url(#paint3_linear_42_871)"/>
<path d="M25.6562 12.4998C25.6562 11.7351 25.5856 10.9871 25.4507 10.2598L22.6895 12.2426C22.6915 12.328 22.6936 12.4134 22.6936 12.4987C22.6936 15.3209 21.4384 17.8631 19.4438 19.6231L21.4354 21.7679C24.0273 19.4818 25.6562 16.1758 25.6562 12.4998Z" fill="#21A038"/>
<path d="M12.8292 22.1119C9.93308 22.1119 7.32403 20.8888 5.51787 18.9453L3.31683 20.8859C5.66393 23.4125 9.05668 24.9997 12.8292 24.9997V22.1119Z" fill="url(#paint4_linear_42_871)"/>
<path d="M6.21328 5.37523L4.22177 3.23047C1.62887 5.51756 0 8.82352 0 12.4996H2.96359C2.9646 9.67657 4.21874 7.13521 6.21328 5.37523Z" fill="url(#paint5_linear_42_871)"/>
</g>
<defs>
<linearGradient id="paint0_linear_42_871" x1="4.35762" y1="20.9765" x2="1.26645" y2="11.8068" gradientUnits="userSpaceOnUse">
<stop offset="0.1444" stop-color="#F2E913"/>
<stop offset="0.3037" stop-color="#E7E518"/>
<stop offset="0.5823" stop-color="#CADB26"/>
<stop offset="0.891" stop-color="#A3CD39"/>
</linearGradient>
<linearGradient id="paint1_linear_42_871" x1="4.6037" y1="4.1718" x2="12.8874" y2="0.932227" gradientUnits="userSpaceOnUse">
<stop offset="0.0592" stop-color="#0FA8E0"/>
<stop offset="0.5385" stop-color="#0099F9"/>
<stop offset="0.9234" stop-color="#0291EB"/>
</linearGradient>
<linearGradient id="paint2_linear_42_871" x1="11.992" y1="23.257" x2="21.3983" y2="21.0753" gradientUnits="userSpaceOnUse">
<stop offset="0.1226" stop-color="#A3CD39"/>
<stop offset="0.2846" stop-color="#86C339"/>
<stop offset="0.8693" stop-color="#21A038"/>
</linearGradient>
<linearGradient id="paint3_linear_42_871" x1="12.2091" y1="0.967242" x2="20.235" y2="3.50856" gradientUnits="userSpaceOnUse">
<stop offset="0.0566" stop-color="#0291EB"/>
<stop offset="0.79" stop-color="#0C8ACB"/>
</linearGradient>
<linearGradient id="paint4_linear_42_871" x1="4.06016" y1="20.534" x2="12.78" y2="23.8775" gradientUnits="userSpaceOnUse">
<stop offset="0.1324" stop-color="#F2E913"/>
<stop offset="0.2977" stop-color="#EBE716"/>
<stop offset="0.5306" stop-color="#D9E01F"/>
<stop offset="0.8023" stop-color="#BBD62D"/>
<stop offset="0.9829" stop-color="#A3CD39"/>
</linearGradient>
<linearGradient id="paint5_linear_42_871" x1="1.10451" y1="12.8494" x2="4.47152" y2="3.86069" gradientUnits="userSpaceOnUse">
<stop offset="0.0698" stop-color="#A3CD39"/>
<stop offset="0.2599" stop-color="#81C55F"/>
<stop offset="0.9216" stop-color="#0FA8E0"/>
</linearGradient>
<clipPath id="clip0_42_871">
<rect width="226" height="25" fill="white"/>
</clipPath>
</defs>
</svg>
