<svg width="207" height="32" viewBox="0 0 207 32" fill="none" xmlns="http://www.w3.org/2000/svg">
<g clip-path="url(#clip0_42_902)">
<path d="M45.0017 26.554H48.7745V5.44531H43.2859C37.7582 5.44531 34.8628 8.20729 34.8628 12.2791C34.8628 15.5251 36.4519 17.4423 39.2888 19.4165L34.3558 26.554H38.4504L43.9391 18.5623L42.038 17.319C39.7275 15.8003 38.6064 14.6139 38.6064 12.0608C38.6064 9.81132 40.2247 8.29271 43.3151 8.29271H45.0017V26.554ZM117.778 26.8577C119.493 26.8577 120.712 26.554 121.619 25.9086V22.9663C120.683 23.6022 119.562 24.0009 118.002 24.0009C115.35 24.0009 114.258 21.9982 114.258 18.8376C114.258 15.5251 115.594 13.8262 118.031 13.8262C119.464 13.8262 120.868 14.3102 121.619 14.7658V11.7001C120.839 11.273 119.464 10.9693 117.622 10.9693C112.884 10.9693 110.417 14.2817 110.417 18.923C110.417 24.0293 112.815 26.8577 117.778 26.8577ZM94.5654 25.5195V22.5677C93.415 23.327 91.4847 24.0009 89.6714 24.0009C86.9612 24.0009 85.9278 22.7575 85.7718 20.2043H94.7213V18.2871C94.7213 12.9719 92.3231 10.9693 88.6087 10.9693C84.0852 10.9693 81.9307 14.3387 81.9307 18.961C81.9307 24.2761 84.6214 26.8577 89.3594 26.8577C91.7284 26.8577 93.4735 26.2503 94.5654 25.5195ZM106.42 26.554H110.632L104.675 18.4389L109.92 11.273H106.176L100.931 18.4389V11.273H97.2171V26.554H100.931V19.1698L106.42 26.554ZM81.0338 23.6971H79.3765V11.273H68.5552V12.5828C68.5552 16.3129 68.3017 21.144 66.9953 23.6971H65.8352V30.0468H69.2668V26.554H77.6022V30.0468H81.0338V23.6971ZM60.561 11.273V17.319H55.6085V11.273H51.8942V26.554H55.6085V20.1758H60.561V26.554H64.2754V11.273H60.561ZM88.5503 13.8262C90.3928 13.8262 90.9485 15.3163 90.9485 17.224V17.5278H85.7718C85.8693 15.098 86.7662 13.8262 88.5503 13.8262ZM75.6621 23.6971H70.4269C71.4506 21.3907 71.7333 17.224 71.7333 14.5855V14.1299H75.6621V23.6971ZM140.99 26.554H145.387L137.685 15.4682L144.675 5.44531H140.834L134.127 15.1644V5.44531H130.354V26.554H134.127V16.6451L140.99 26.554ZM158.051 16.1325C158.051 12.4309 156.12 11.0262 152.191 11.0262C149.725 11.0262 147.795 11.7855 146.664 12.4309V15.4302C147.668 14.7088 149.852 13.9116 151.753 13.9116C153.527 13.9116 154.346 14.519 154.346 16.161V17.0152H153.751C148.068 17.0152 145.543 18.8376 145.543 21.9317C145.543 25.0354 147.483 26.7628 150.349 26.7628C152.533 26.7628 153.469 26.0605 154.19 25.3391H154.346C154.375 25.7283 154.502 26.2503 154.619 26.554H158.246C158.119 25.3012 158.051 24.0578 158.051 22.8144V16.1325ZM154.346 22.9094C153.878 23.5737 153.001 24.1242 151.694 24.1242C150.134 24.1242 149.354 23.27 149.354 21.9602C149.354 20.2328 150.632 19.5969 153.81 19.5969H154.346V22.9094ZM164.485 11.273H161.053V30.958H164.758V24.7602C165.694 26.1269 167.068 26.8577 168.657 26.8577C172.284 26.8577 174.78 24.0293 174.78 18.8945C174.78 13.7977 172.342 10.9693 168.852 10.9693C167.098 10.9693 165.664 11.757 164.67 13.2472L164.485 11.273ZM167.721 24.0009C165.762 24.0009 164.758 22.4538 164.758 18.923C164.758 15.3732 165.82 13.8262 167.916 13.8262C169.944 13.8262 170.939 15.3732 170.939 18.8945C170.939 22.4538 169.876 24.0009 167.721 24.0009ZM187.843 14.1299V11.273H175.404V14.1299H179.771V26.554H183.476V14.1299H187.843ZM190.027 11.273V26.554H195.681C199.328 26.554 201.921 24.7317 201.921 21.144C201.921 17.7461 199.61 15.9522 195.74 15.9522H193.741V11.273H190.027ZM203.286 11.273V26.554H207V11.273H203.286ZM195.457 23.6971H193.741V18.8091H195.555C197.144 18.8091 198.08 19.502 198.08 21.2674C198.08 23.0232 197.046 23.6971 195.457 23.6971Z" fill="black"/>
<path fill-rule="evenodd" clip-rule="evenodd" d="M1.19352e-05 12.7994C1.19352e-05 5.73079 5.88635 0 13.1478 0C20.4083 0 26.2947 5.73079 26.2947 12.7994C26.2947 16.3337 24.8238 19.5324 22.4466 21.8487C21.8255 22.4534 20.9846 23.1285 20.0753 23.8598C17.5008 25.9279 14.3765 28.4381 14.1333 31.0396C14.0845 31.5674 13.6918 32 13.1469 32C12.6029 32 12.2102 31.5674 12.1614 31.0396C11.9182 28.4381 8.79388 25.9279 6.21939 23.8598C5.3111 23.1285 4.47019 22.4534 3.84904 21.8487C1.38051 19.451 -0.00469079 16.1943 1.19352e-05 12.7994ZM17.7499 12.8004C17.7869 15.2746 15.7567 17.3095 13.2154 17.3456C10.674 17.3816 8.5838 15.4051 8.54678 12.9309C8.54613 12.8874 8.54613 12.8439 8.54678 12.8004C8.5838 10.3262 10.674 8.34966 13.2154 8.3857C15.7045 8.42099 17.7136 10.377 17.7499 12.8004Z" fill="url(#paint0_linear_42_902)"/>
<path fill-rule="evenodd" clip-rule="evenodd" d="M1.19352e-05 12.7994C1.19352e-05 5.73079 5.88635 0 13.1478 0C20.4083 0 26.2947 5.73079 26.2947 12.7994C26.2947 16.3337 24.8238 19.5324 22.4466 21.8487C21.8255 22.4534 20.9846 23.1285 20.0753 23.8598C17.5008 25.9279 14.3765 28.4381 14.1333 31.0396C14.0845 31.5674 13.6918 32 13.1469 32C12.6029 32 12.2102 31.5674 12.1614 31.0396C11.9182 28.4381 8.79388 25.9279 6.21939 23.8598C5.3111 23.1285 4.47019 22.4534 3.84904 21.8487C1.38051 19.451 -0.00469079 16.1943 1.19352e-05 12.7994ZM17.7499 12.8004C17.7869 15.2746 15.7567 17.3095 13.2154 17.3456C10.674 17.3816 8.5838 15.4051 8.54678 12.9309C8.54613 12.8874 8.54613 12.8439 8.54678 12.8004C8.5838 10.3262 10.674 8.34966 13.2154 8.3857C15.7045 8.42099 17.7136 10.377 17.7499 12.8004Z" fill="#FF4433"/>
</g>
<defs>
<linearGradient id="paint0_linear_42_902" x1="13.1473" y1="0" x2="13.1473" y2="32" gradientUnits="userSpaceOnUse">
<stop stop-color="#FF6122"/>
<stop offset="1" stop-color="#F22411"/>
</linearGradient>
<clipPath id="clip0_42_902">
<rect width="207" height="32" fill="white"/>
</clipPath>
</defs>
</svg>
