<svg width="32" height="32" viewBox="0 0 32 32" fill="none" xmlns="http://www.w3.org/2000/svg">
<path d="M19.2826 19.7258V19.8287C19.2826 20.8606 18.4431 21.7001 17.4112 21.7001C16.3793 21.7001 15.5398 20.8606 15.5398 19.8287V19.7258L17.4112 18.4192L19.2826 19.7258Z" fill="#3A9489"/>
<path d="M11.4378 15.7383L12.5048 14.9933L15.7736 17.2757L13.5806 18.8071C12.7344 19.3979 11.5655 19.1901 10.9749 18.3441C10.6887 17.9342 10.5793 17.4374 10.6667 16.9453C10.7541 16.4531 11.0279 16.0245 11.4378 15.7383Z" fill="#3A9489"/>
<path d="M12.5118 8.55644C12.8817 8.55644 13.2549 8.6655 13.5806 8.89281L15.7736 10.4241L12.5048 12.7066L11.4378 11.9616C10.5918 11.3708 10.3841 10.2019 10.9748 9.35587C11.3381 8.83537 11.9206 8.55644 12.5118 8.55644Z" fill="#3A9489"/>
<path d="M5.07613 10.9324C5.07163 9.13131 5.0727 9.1265 5.09857 9.00925C5.64544 6.52469 7.21607 4.22838 9.52107 2.54325C11.7633 0.904063 14.4674 0.000875 17.1352 0C17.1366 0 17.1379 0 17.1393 0C20.4926 0 23.6698 1.29481 26.0858 3.64613C28.5036 5.99913 29.883 9.14162 29.9699 12.4947C30.0172 14.3174 29.6898 16.0873 28.9968 17.7549C27.6634 20.9637 26.9873 24.4401 26.9873 28.0877V32H12.6744V27.5024H9.78207C6.77438 27.5024 4.33613 25.0641 4.33613 22.0564V20.3393L3.25213 20.3448C2.39476 20.3491 1.80082 19.4906 2.10726 18.6898L5.07613 10.9324ZM10.3644 14.201C8.67063 15.3836 8.25482 17.7237 9.43738 19.4174C10.1649 20.4594 11.3308 21.0178 12.5144 21.0178C12.9444 21.0178 13.3766 20.9436 13.7911 20.7928C14.2176 22.3927 15.6786 23.5751 17.4111 23.5751C19.1436 23.5751 20.6046 22.3927 21.0311 20.7928C21.4457 20.9436 21.8779 21.0178 22.3079 21.0178C23.4916 21.0178 24.6573 20.4595 25.3849 19.4175C26.5674 17.7238 26.1517 15.3836 24.4579 14.2011L23.9551 13.85L24.4579 13.4989C26.1517 12.3163 26.5674 9.97625 25.3849 8.2825C24.3931 6.862 22.5871 6.34106 21.0311 6.90731C20.6046 5.30725 19.1436 4.12494 17.4111 4.12494C15.6786 4.12494 14.2176 5.30731 13.7911 6.90731C12.2351 6.341 10.4291 6.86206 9.43744 8.2825C8.86457 9.103 8.64545 10.0974 8.82057 11.0827C8.99563 12.0679 9.54388 12.9261 10.3644 13.4989L10.8671 13.85L10.3644 14.201Z" fill="#3A9489"/>
<path d="M22.3176 14.9934L23.3846 15.7384C24.2306 16.3291 24.4383 17.498 23.8476 18.344C23.2568 19.1901 22.0879 19.3978 21.2419 18.807L19.0488 17.2757L22.3176 14.9934Z" fill="#3A9489"/>
<path d="M17.4112 16.1323L14.1423 13.8499L17.4112 11.5676L20.68 13.8499L17.4112 16.1323ZM17.3928 12.9373C16.8673 12.9373 16.4781 13.3669 16.4553 13.8748C16.4326 14.3811 16.9024 14.8123 17.3928 14.8123C17.9184 14.8123 18.3076 14.3827 18.3303 13.8748C18.353 13.3685 17.8832 12.9373 17.3928 12.9373Z" fill="#3A9489"/>
<path d="M15.5398 7.97406V7.87119C15.5398 6.83931 16.3793 5.99981 17.4112 5.99981C18.4431 5.99981 19.2826 6.83931 19.2826 7.87119V7.97406L17.4112 9.28069L15.5398 7.97406Z" fill="#3A9489"/>
<path d="M23.3846 11.9615L22.3176 12.7065L19.0488 10.4241L21.2419 8.89281C21.5674 8.6655 21.9408 8.55644 22.3106 8.55644C22.9019 8.55644 23.4842 8.83531 23.8476 9.35587C24.4383 10.2019 24.2306 11.3708 23.3846 11.9615Z" fill="#3A9489"/>
</svg>
