<svg width="32" height="32" viewBox="0 0 32 32" fill="none" xmlns="http://www.w3.org/2000/svg">
<path d="M15.6776 1.37456C15.8892 1.31999 16.1116 1.31994 16.3232 1.37456L26.9892 4.04156C27.2774 4.11345 27.5336 4.27929 27.7167 4.51324C27.8998 4.74731 27.9995 5.03636 27.9999 5.33355V19.7105C28.0036 20.8419 27.7173 21.9553 27.1689 22.9449C26.6205 23.9343 25.8283 24.7673 24.8671 25.3638L16.7069 30.4644C16.495 30.5968 16.2498 30.6666 15.9999 30.6666C15.7501 30.6665 15.5048 30.5968 15.2929 30.4644L7.1337 25.3638C6.17233 24.7673 5.37944 23.9345 4.83097 22.9449C4.28255 21.9553 3.99625 20.8418 3.99991 19.7105V5.33355C4.00029 5.03636 4.10001 4.74731 4.28312 4.51324C4.4662 4.27926 4.7224 4.11347 5.01065 4.04156L15.6776 1.37456ZM22.2275 11.439C21.6417 10.8534 20.6921 10.8535 20.1064 11.439L15.1669 16.3785L13.2275 14.439C12.6418 13.8534 11.6922 13.8536 11.1064 14.439C10.5206 15.0248 10.5206 15.9743 11.1064 16.5601L14.1064 19.5611C14.6921 20.1465 15.6418 20.1466 16.2275 19.5611L22.2275 13.5601C22.813 12.9743 22.8132 12.0247 22.2275 11.439Z" fill="#3A9489"/>
</svg>
