<svg width="32" height="32" viewBox="0 0 32 32" fill="none" xmlns="http://www.w3.org/2000/svg">
<g clip-path="url(#clip0_2020_305)">
<path d="M32 28C32 30.2056 30.2054 32 28 32H4C1.79437 32 0 30.2056 0 28C0 27.6844 0.255857 27.4286 0.571429 27.4286H13.1429C13.2944 27.4286 13.4397 27.4888 13.5469 27.596L13.9509 28H18.0491L18.4531 27.596C18.5603 27.4888 18.7056 27.4286 18.8571 27.4286H31.4286C31.7444 27.4286 32 27.6844 32 28ZM4.57143 10.2857H3.42857C2.1657 10.2857 1.14286 11.3086 1.14286 12.5714V26.2857H4.57143V10.2857ZM30.8571 12.5714C30.8571 11.3086 29.8343 10.2857 28.5714 10.2857H27.4286V26.2857H30.8571V12.5714ZM10.2857 2.28571H7.42857C6.4857 2.28571 5.71429 3.05713 5.71429 4V5.14286H10.2857V2.28571ZM20.5714 5.14286H11.4286V2.28571H13.1314C13.4171 0.931429 14.5657 0 15.9314 0C17.2857 0 18.4343 0.931429 18.7257 2.26283L20.5714 2.28571L20.5714 5.14286ZM16.5714 2.85142C16.5714 2.53714 16.3143 2.27999 16 2.27999C15.6857 2.27999 15.4286 2.53714 15.4286 2.85142C15.4286 3.1657 15.6857 3.42285 16 3.42285C16.3143 3.42285 16.5714 3.1657 16.5714 2.85142ZM26.2857 4C26.2857 3.05713 25.5143 2.28571 24.5714 2.28571H21.7143V5.14286H26.2857V4ZM15.4286 13.1429V14.8571H16.5714V13.1429C16.5714 12.827 16.8273 12.5714 17.1429 12.5714H18.8571V11.4286H17.1429C16.8273 11.4286 16.5714 11.173 16.5714 10.8571V9.14286H15.4286V10.8571C15.4286 11.173 15.1727 11.4286 14.8571 11.4286H13.1429V12.5714H14.8571C15.1727 12.5714 15.4286 12.827 15.4286 13.1429ZM13.1429 26.2857H5.71429V6.28571H26.2857V26.2857H18.8571C18.4 26.2857 17.9714 26.4629 17.6457 26.7886L17.5771 26.8571H14.4228L14.3543 26.7886C14.0286 26.4629 13.6 26.2857 13.1429 26.2857ZM22.8571 22.5714C22.8571 22.5714 15.1886 22.5714 15.1886 22.5714C14.436 22.586 14.4403 23.7006 15.1886 23.7143H22.8571C23.6097 23.6997 23.6054 22.5851 22.8571 22.5714ZM22.8571 18.5714C22.8571 18.5714 15.1886 18.5714 15.1886 18.5714C14.436 18.586 14.4403 19.7006 15.1886 19.7143H22.8571C23.6097 19.6997 23.6054 18.5851 22.8571 18.5714ZM12 12.5714C12 13.2 12.5143 13.7143 13.1429 13.7143H14.2857V14.8571C14.2857 15.4857 14.8 16 15.4286 16H16.5714C17.2 16 17.7143 15.4857 17.7143 14.8571V13.7143H18.8571C19.4857 13.7143 20 13.2 20 12.5714V11.4286C20 10.8 19.4857 10.2857 18.8571 10.2857H17.7143V9.14286C17.7143 8.51426 17.2 8 16.5714 8H15.4286C14.8 8 14.2857 8.51426 14.2857 9.14286V10.2857H13.1429C12.5143 10.2857 12 10.8 12 11.4286V12.5714ZM8.73713 19.5485L9.87999 20.6914C10.1064 20.9116 10.465 20.9116 10.6914 20.6914L12.9772 18.4057C13.5039 17.8748 12.6987 17.0672 12.1657 17.5943L10.2857 19.48L9.54858 18.7371C9.32572 18.5143 8.95999 18.5143 8.73713 18.7371C8.5143 18.9657 8.5143 19.3257 8.73713 19.5485ZM12.9772 22.4057C13.5039 21.8748 12.6987 21.0672 12.1657 21.5943L10.2857 23.48L9.54858 22.7371C9.32572 22.5143 8.95999 22.5143 8.73713 22.7371C8.5143 22.9657 8.5143 23.3257 8.73713 23.5486L9.87999 24.6914C10.1064 24.9116 10.465 24.9116 10.6914 24.6914L12.9772 22.4057Z" fill="#3A9489"/>
</g>
<defs>
<clipPath id="clip0_2020_305">
<rect width="32" height="32" fill="white"/>
</clipPath>
</defs>
</svg>
