<svg width="32" height="32" viewBox="0 0 32 32" fill="none" xmlns="http://www.w3.org/2000/svg">
<path d="M23.9987 8.00004C23.9987 7.26366 23.4017 6.66671 22.6654 6.66671H22.4336C21.8841 8.21961 20.4065 9.33337 18.6654 9.33337H13.332C11.5909 9.33337 10.1133 8.21961 9.5638 6.66671H9.33203C8.59565 6.66671 7.9987 7.26366 7.9987 8.00004V25.3334C7.9987 26.0698 8.59565 26.6667 9.33203 26.6667H22.6654C23.4017 26.6667 23.9987 26.0698 23.9987 25.3334V8.00004ZM17.276 12.668C17.8006 12.6462 18.2899 12.9341 18.5247 13.4037L20.1563 16.6667H21.332C22.0684 16.6667 22.6654 17.2637 22.6654 18C22.6654 18.7364 22.0684 19.3334 21.332 19.3334H19.332C18.827 19.3334 18.3652 19.0481 18.1393 18.5964L17.4661 17.2513L15.9036 21.1615C15.7155 21.6318 15.277 21.9556 14.7721 21.9961C14.2673 22.0366 13.7828 21.7872 13.5221 21.3529L11.9102 18.6667H10.6654C9.92901 18.6667 9.33203 18.0697 9.33203 17.3334C9.33203 16.597 9.92901 16.0001 10.6654 16H12.6654C13.1336 16 13.5676 16.2457 13.8086 16.6472L14.4245 17.6745L16.0938 13.5052L16.1797 13.3295C16.4061 12.9403 16.8174 12.6873 17.276 12.668ZM13.332 4.00004C12.5957 4.00004 11.9987 4.59699 11.9987 5.33337C11.9987 6.06975 12.5957 6.66671 13.332 6.66671H18.6654C19.4017 6.66671 19.9987 6.06975 19.9987 5.33337C19.9987 4.59699 19.4017 4.00004 18.6654 4.00004H13.332ZM26.6654 25.3334C26.6654 27.5425 24.8745 29.3334 22.6654 29.3334H9.33203C7.12289 29.3334 5.33203 27.5425 5.33203 25.3334V8.00004C5.33203 5.7909 7.12289 4.00004 9.33203 4.00004H9.5638C10.1133 2.44713 11.5909 1.33337 13.332 1.33337H18.6654C20.4065 1.33337 21.8841 2.44713 22.4336 4.00004H22.6654C24.8745 4.00004 26.6654 5.7909 26.6654 8.00004V25.3334Z" fill="#3A9489"/>
</svg>
