<svg width="32" height="32" viewBox="0 0 32 32" fill="none" xmlns="http://www.w3.org/2000/svg">
<path d="M25.3333 16.7395C25.3333 15.2899 24.8145 13.8884 23.8711 12.7877C22.7174 11.4417 21.0332 10.6667 19.2604 10.6666H12.7396C10.9668 10.6667 9.28265 11.4417 8.12891 12.7877C7.18553 13.8884 6.66673 15.2899 6.66667 16.7395V26.6666C6.66667 27.403 7.26362 28 8 28H24C24.7364 28 25.3333 27.403 25.3333 26.6666V16.7395ZM14.6667 23.3333V20.6666H12C11.2636 20.6666 10.6667 20.0697 10.6667 19.3333C10.6667 18.5969 11.2636 18 12 18H14.6667V15.3333C14.6667 14.5969 15.2636 14 16 14C16.7364 14 17.3333 14.5969 17.3333 15.3333V18H20C20.7364 18 21.3333 18.5969 21.3333 19.3333C21.3333 20.0697 20.7364 20.6666 20 20.6666H17.3333V23.3333C17.3333 24.0697 16.7364 24.6666 16 24.6666C15.2636 24.6666 14.6667 24.0697 14.6667 23.3333ZM21.3333 3.99996C21.3333 3.63177 21.0349 3.33329 20.6667 3.33329H11.3333C10.9651 3.33329 10.6667 3.63177 10.6667 3.99996C10.6667 4.36815 10.9651 4.66663 11.3333 4.66663H20.6667C21.0349 4.66663 21.3333 4.36815 21.3333 3.99996ZM28 26.6666C28 28.8758 26.2091 30.6666 24 30.6666H8C5.79086 30.6666 4 28.8758 4 26.6666V16.7395C4.00006 14.6533 4.74648 12.636 6.10417 11.052C7.76452 9.11497 10.1883 8.00004 12.7396 7.99996H19.2604C21.8117 8.00004 24.2355 9.11497 25.8958 11.052C27.2535 12.636 27.9999 14.6533 28 16.7395V26.6666ZM24 3.99996C24 5.84091 22.5076 7.33329 20.6667 7.33329H11.3333C9.49238 7.33329 8 5.84091 8 3.99996C8 2.15901 9.49238 0.666626 11.3333 0.666626H20.6667C22.5076 0.666626 24 2.15901 24 3.99996Z" fill="#3A9489"/>
</svg>
