<svg width="32" height="32" viewBox="0 0 32 32" fill="none" xmlns="http://www.w3.org/2000/svg">
<g clip-path="url(#clip0_2020_413)">
<path d="M7.4688 29.2064V30.976C7.46764 31.249 7.51533 31.5199 7.6096 31.776H5.3696V26.656C5.3696 26.4439 5.28532 26.2404 5.13529 26.0904C4.98526 25.9403 4.78177 25.856 4.5696 25.856C4.35743 25.856 4.15394 25.9403 4.00392 26.0904C3.85389 26.2404 3.7696 26.4439 3.7696 26.656V31.776H0.800001C0.587827 31.776 0.384344 31.6918 0.234315 31.5417C0.084286 31.3917 5.16496e-07 31.1882 5.16496e-07 30.976V25.9008C-0.00043329 24.6639 0.272405 23.4422 0.79901 22.323C1.32561 21.2038 2.09298 20.2148 3.04625 19.4266C3.99951 18.6384 5.11513 18.0706 6.31336 17.7637C7.51158 17.4568 8.76281 17.4184 9.9776 17.6512V18.0352C9.9776 18.0352 9.9776 18.2784 9.9776 18.3968C9.99738 18.7485 10.0488 19.0976 10.1312 19.44C10.1536 19.5264 10.176 19.6128 10.2016 19.696L10.2368 19.8208C10.3021 20.0385 10.3801 20.2522 10.4704 20.4608C10.5152 20.56 10.5632 20.6592 10.6176 20.7808C10.672 20.9024 10.7136 20.9632 10.7616 21.0432C10.8096 21.1232 10.8352 21.168 10.8736 21.232C11.003 21.4429 11.1463 21.6449 11.3024 21.8368C11.3504 21.8976 11.4016 21.9584 11.4528 22.016C10.2401 22.7855 9.23997 23.847 8.54393 25.1032C7.84788 26.3595 7.47821 27.7703 7.4688 29.2064Z" fill="#3A9489"/>
<path d="M32 25.9008V30.976C32 31.1882 31.9157 31.3917 31.7657 31.5417C31.6157 31.6918 31.4122 31.776 31.2 31.776H28.2432V26.656C28.2432 26.4439 28.1589 26.2404 28.0089 26.0904C27.8589 25.9403 27.6554 25.856 27.4432 25.856C27.231 25.856 27.0275 25.9403 26.8775 26.0904C26.7275 26.2404 26.6432 26.4439 26.6432 26.656V31.776H24.4032C24.4975 31.5199 24.5452 31.249 24.544 30.976V29.2064C24.5436 27.7647 24.1776 26.3465 23.4803 25.0846C22.783 23.8227 21.7772 22.7581 20.5568 21.9904C20.656 21.8784 20.7456 21.7632 20.8288 21.6512C20.8704 21.5968 20.9088 21.5456 20.9472 21.488C21.038 21.3601 21.1224 21.2276 21.2 21.0912C21.2384 21.0272 21.2768 20.9632 21.3184 20.8864C21.36 20.8096 21.3856 20.7616 21.4144 20.6944C21.456 20.608 21.4976 20.5216 21.5328 20.4352C21.568 20.3488 21.6224 20.2176 21.664 20.1152C21.7056 20.0128 21.7408 19.8912 21.776 19.7632C21.8112 19.6352 21.8368 19.5616 21.8624 19.4432C21.888 19.3248 21.9072 19.2416 21.9264 19.1424C21.9456 19.0432 21.952 18.9888 21.9648 18.9056C21.9776 18.8224 21.984 18.768 21.9904 18.6976C21.9968 18.6272 21.9904 18.6112 21.9904 18.5696C21.9904 18.528 21.9904 18.4416 21.9904 18.3744V18.3296C21.9904 18.2368 21.9904 18.1472 21.9904 18.0544C21.9904 17.9616 21.9904 17.7952 21.9904 17.6672C22.5096 17.57 23.0366 17.5207 23.5648 17.52C24.669 17.5162 25.7632 17.73 26.7847 18.1492C27.8063 18.5684 28.7353 19.1847 29.5186 19.963C30.3019 20.7412 30.9242 21.6662 31.35 22.685C31.7758 23.7039 31.9966 24.7966 32 25.9008Z" fill="#3A9489"/>
<path d="M15.392 20.8C15.531 20.8306 15.6723 20.8499 15.8144 20.8576C15.6725 20.8481 15.5313 20.8289 15.392 20.8ZM15.8656 20.8608H16C16.0959 20.8657 16.1921 20.8657 16.288 20.8608C16.1474 20.8704 16.0062 20.8704 15.8656 20.8608Z" fill="#3A9489"/>
<path d="M20.4352 18.0352V18.2624C20.4352 18.2624 20.4352 18.3776 20.4352 18.4352C20.4368 18.4587 20.4368 18.4822 20.4352 18.5056C20.4352 18.5504 20.4352 18.5952 20.4192 18.6368C20.4032 18.6784 20.4 18.768 20.3872 18.832C20.3744 18.896 20.3584 18.9824 20.3392 19.0592C20.3234 19.134 20.3031 19.2077 20.2784 19.28C20.256 19.3696 20.224 19.4624 20.192 19.552C20.16 19.6416 20.1312 19.712 20.096 19.792C20.0608 19.872 20.032 19.9328 19.9968 20.0032V20.0256C19.9776 20.0672 19.9552 20.1056 19.9328 20.1472C19.9104 20.1888 19.8784 20.2432 19.8496 20.2912C19.7944 20.3897 19.7335 20.4848 19.6672 20.576C19.6416 20.6144 19.616 20.6496 19.5872 20.6848C19.5004 20.8056 19.4064 20.921 19.3056 21.0304L19.1712 21.168C18.9701 21.3699 18.7492 21.551 18.512 21.7088C18.4542 21.7502 18.3944 21.7887 18.3328 21.824C18.1912 21.9101 18.0448 21.9881 17.8944 22.0576H17.8592L17.6864 22.1312C17.6032 22.1664 17.5168 22.1984 17.4304 22.2272L17.264 22.2784C17.1712 22.304 17.0784 22.3296 16.9824 22.3488C16.8864 22.368 16.8352 22.3808 16.7616 22.3904L16.5952 22.416C16.4105 22.4389 16.2245 22.4507 16.0384 22.4512C15.8673 22.4513 15.6964 22.4417 15.5264 22.4224L15.3152 22.3904L15.04 22.3616C14.9472 22.3424 14.8576 22.32 14.768 22.2944L14.6016 22.2432C14.4406 22.1884 14.2826 22.1253 14.128 22.0544L14.08 22.0288L13.9008 21.9392H13.872C13.8144 21.9072 13.7568 21.8752 13.7024 21.84C13.6408 21.8047 13.581 21.7662 13.5232 21.7248L13.4016 21.6416C13.2821 21.5563 13.1669 21.4635 13.056 21.3632L12.9216 21.2384C12.832 21.152 12.7488 21.0656 12.6688 20.9728C12.6272 20.928 12.5888 20.88 12.5504 20.832C12.4334 20.6892 12.3265 20.5385 12.2304 20.3808C12.2016 20.336 12.176 20.2912 12.1504 20.2464C12.1248 20.2016 12.08 20.1216 12.048 20.0576C12.016 19.9936 11.9712 19.904 11.936 19.824C11.8709 19.6748 11.8143 19.522 11.7664 19.3664C11.7664 19.3408 11.7504 19.3152 11.744 19.2864C11.7376 19.2576 11.7056 19.1552 11.6896 19.088C11.6266 18.8342 11.5881 18.5748 11.5744 18.3136C11.5744 18.2272 11.5744 18.1408 11.5744 18.0512C11.5747 17.3134 11.7596 16.5874 12.112 15.9392C12.2143 15.7511 12.3298 15.5704 12.4576 15.3984L12.5888 15.232C12.6788 15.1201 12.775 15.0133 12.8768 14.912C13.4965 14.2916 14.2862 13.8688 15.1462 13.6974C16.0062 13.5259 16.8977 13.6134 17.7079 13.9488C18.5182 14.2842 19.2107 14.8524 19.6979 15.5816C20.1851 16.3107 20.445 17.1679 20.4448 18.0448L20.4352 18.0352Z" fill="#3A9489"/>
<path d="M28.9024 11.0624C28.903 12.1121 28.5923 13.1383 28.0096 14.0113C27.4268 14.8843 26.5982 15.5648 25.6286 15.9668C24.659 16.3687 23.592 16.4741 22.5625 16.2694C21.533 16.0648 20.5874 15.5595 19.8452 14.8173C19.103 14.0751 18.5976 13.1294 18.393 12.0999C18.1884 11.0704 18.2937 10.0034 18.6957 9.03379C19.0976 8.06419 19.7782 7.2356 20.6512 6.65286C21.5242 6.07011 22.5504 5.7594 23.6 5.76004C25.0055 5.76258 26.3527 6.32203 27.3466 7.31588C28.3404 8.30972 28.8999 9.65693 28.9024 11.0624Z" fill="#3A9489"/>
<path d="M13.7024 11.0624C13.703 12.1121 13.3923 13.1383 12.8096 14.0113C12.2268 14.8843 11.3982 15.5648 10.4286 15.9668C9.45904 16.3687 8.392 16.4741 7.36251 16.2694C6.33303 16.0648 5.38737 15.5595 4.64518 14.8173C3.90298 14.0751 3.39761 13.1294 3.19299 12.0999C2.98838 11.0704 3.09371 10.0034 3.49568 9.03379C3.89764 8.06419 4.57817 7.2356 5.45116 6.65286C6.32415 6.07011 7.35038 5.7594 8.4 5.76004C9.80576 5.76173 11.1535 6.32092 12.1475 7.31494C13.1415 8.30897 13.7007 9.65667 13.7024 11.0624Z" fill="#3A9489"/>
<path d="M16.3552 7.86244C16.2453 7.91711 16.1243 7.94557 16.0016 7.94557C15.8789 7.94557 15.7579 7.91711 15.648 7.86244C15.2512 7.68004 11.776 5.87524 11.776 3.20004C11.7802 2.40984 12.0969 1.6534 12.6568 1.09584C13.2168 0.538275 13.9746 0.224871 14.7648 0.224037C15.1911 0.223547 15.6125 0.315242 16 0.492837C16.4541 0.28584 16.9528 0.195964 17.4506 0.231425C17.9483 0.266886 18.4293 0.426553 18.8494 0.69583C19.2696 0.965107 19.6155 1.3354 19.8557 1.77287C20.0958 2.21033 20.2224 2.70101 20.224 3.20004C20.224 5.87524 16.752 7.68004 16.3552 7.86244Z" fill="#3A9489"/>
<path d="M22.9344 29.2064V30.976C22.9344 31.1882 22.8501 31.3917 22.7001 31.5417C22.5501 31.6918 22.3466 31.776 22.1344 31.776H19.8944V28.4512C19.8944 28.2391 19.8101 28.0356 19.6601 27.8855C19.5101 27.7355 19.3066 27.6512 19.0944 27.6512C18.8822 27.6512 18.6787 27.7355 18.5287 27.8855C18.3787 28.0356 18.2944 28.2391 18.2944 28.4512V31.776H13.696V28.4512C13.696 28.2391 13.6117 28.0356 13.4617 27.8855C13.3117 27.7355 13.1082 27.6512 12.896 27.6512C12.6838 27.6512 12.4803 27.7355 12.3303 27.8855C12.1803 28.0356 12.096 28.2391 12.096 28.4512V31.776H9.856C9.64383 31.776 9.44034 31.6918 9.29032 31.5417C9.14029 31.3917 9.056 31.1882 9.056 30.976V29.2064C9.0644 27.5457 9.66532 25.9424 10.7506 24.6852C11.8359 23.4281 13.3342 22.5996 14.976 22.3488C15.1072 22.3296 15.2416 22.3136 15.376 22.3008C15.5833 22.2795 15.7916 22.2699 16 22.272C16.2073 22.271 16.4145 22.2807 16.6208 22.3008C16.7552 22.3008 16.8864 22.3264 17.0176 22.3488C18.6627 22.5915 20.1655 23.4178 21.2518 24.6769C22.3381 25.9359 22.9353 27.5436 22.9344 29.2064Z" fill="#3A9489"/>
</g>
<defs>
<clipPath id="clip0_2020_413">
<rect width="32" height="32" fill="white"/>
</clipPath>
</defs>
</svg>
