<svg width="32" height="32" viewBox="0 0 32 32" fill="none" xmlns="http://www.w3.org/2000/svg">
<path d="M11.6 15.3317C13.1559 15.3317 14.6481 14.7347 15.7483 13.6722C16.8486 12.6096 17.4666 11.1685 17.4666 9.66584C17.4666 8.16316 16.8486 6.72204 15.7483 5.65949C14.6481 4.59693 13.1559 4 11.6 4C10.044 4 8.55183 4.59693 7.45162 5.65949C6.35141 6.72204 5.73331 8.16316 5.73331 9.66584C5.73331 11.1685 6.35141 12.6096 7.45162 13.6722C8.55183 14.7347 10.044 15.3317 11.6 15.3317ZM9.5054 17.4564C4.99081 17.4564 1.33331 20.9887 1.33331 25.3487C1.33331 26.0746 1.9429 26.6633 2.69456 26.6633H20.5054C20.5879 26.6633 20.6658 26.6545 20.7483 26.6412C17.2512 24.2022 16.1741 20.3999 16.0229 17.7795C15.285 17.567 14.5058 17.4564 13.6991 17.4564H9.5054ZM23.6587 13.9905L18.1587 16.1152C17.7416 16.2789 17.4666 16.6685 17.4666 17.1022C17.4666 19.9042 18.6537 24.5741 23.645 26.5837C23.9154 26.6943 24.2225 26.6943 24.4929 26.5837C29.4796 24.5741 30.6666 19.9042 30.6666 17.1022C30.6666 16.6685 30.3916 16.2789 29.9746 16.1152L24.4746 13.9905C24.2133 13.8887 23.92 13.8887 23.6587 13.9905ZM28.4391 17.8105C28.2604 20.0547 27.1925 22.9761 24.0666 24.4368V16.1196L28.4391 17.8105Z" fill="#3A9489"/>
</svg>
