<svg width="48" height="48" viewBox="0 0 48 48" fill="none" xmlns="http://www.w3.org/2000/svg">
<g clip-path="url(#clip0_2079_10242)">
<path d="M11.2032 43.8097V46.4641C11.2015 46.8735 11.273 47.2799 11.4144 47.6641H8.0544V39.9841C8.0544 39.6658 7.92797 39.3606 7.70293 39.1355C7.47789 38.9105 7.17266 38.7841 6.8544 38.7841C6.53614 38.7841 6.23092 38.9105 6.00587 39.1355C5.78083 39.3606 5.6544 39.6658 5.6544 39.9841V47.6641H1.2C0.881741 47.6641 0.576516 47.5376 0.351473 47.3126C0.126429 47.0875 7.74744e-07 46.7823 7.74744e-07 46.4641V38.8513C-0.000649935 36.9959 0.408607 35.1633 1.19851 33.4845C1.98842 31.8057 3.13947 30.3221 4.56937 29.1399C5.99927 27.9576 7.6727 27.1059 9.47004 26.6455C11.2674 26.1852 13.1442 26.1276 14.9664 26.4769V27.0529C14.9664 27.0529 14.9664 27.4177 14.9664 27.5953C14.9961 28.1227 15.0732 28.6464 15.1968 29.1601C15.2304 29.2897 15.264 29.4193 15.3024 29.5441L15.3552 29.7313C15.4532 30.0578 15.5702 30.3784 15.7056 30.6913C15.7728 30.8401 15.8448 30.9889 15.9264 31.1713C16.008 31.3537 16.0704 31.4449 16.1424 31.5649C16.2144 31.6849 16.2528 31.7521 16.3104 31.8481C16.5046 32.1643 16.7194 32.4674 16.9536 32.7553C17.0256 32.8465 17.1024 32.9377 17.1792 33.0241C15.3602 34.1783 13.86 35.7705 12.8159 37.6548C11.7718 39.5392 11.2173 41.6554 11.2032 43.8097Z" fill="white"/>
<path d="M48 38.8513V46.4641C48 46.7823 47.8736 47.0875 47.6485 47.3126C47.4235 47.5376 47.1183 47.6641 46.8 47.6641H42.3648V39.9841C42.3648 39.6658 42.2384 39.3606 42.0133 39.1355C41.7883 38.9105 41.4831 38.7841 41.1648 38.7841C40.8465 38.7841 40.5413 38.9105 40.3163 39.1355C40.0912 39.3606 39.9648 39.6658 39.9648 39.9841V47.6641H36.6048C36.7462 47.2799 36.8177 46.8735 36.816 46.4641V43.8097C36.8153 41.647 36.2664 39.5198 35.2205 37.6269C34.1746 35.734 32.6658 34.1372 30.8352 32.9857C30.984 32.8177 31.1184 32.6449 31.2432 32.4769C31.3056 32.3953 31.3632 32.3185 31.4208 32.2321C31.5571 32.0401 31.6836 31.8415 31.8 31.6369C31.8576 31.5409 31.9152 31.4449 31.9776 31.3297C32.04 31.2145 32.0784 31.1425 32.1216 31.0417C32.184 30.9121 32.2464 30.7825 32.2992 30.6529C32.352 30.5233 32.4336 30.3265 32.496 30.1729C32.5584 30.0193 32.6112 29.8369 32.664 29.6449C32.7168 29.4529 32.7552 29.3425 32.7936 29.1649C32.832 28.9873 32.8608 28.8625 32.8896 28.7137C32.9184 28.5649 32.928 28.4833 32.9472 28.3585C32.9664 28.2337 32.976 28.1521 32.9856 28.0465C32.9952 27.9409 32.9856 27.9169 32.9856 27.8545C32.9856 27.7921 32.9856 27.6625 32.9856 27.5617V27.4945C32.9856 27.3553 32.9856 27.2209 32.9856 27.0817C32.9856 26.9425 32.9856 26.6929 32.9856 26.5009C33.7644 26.3549 34.5549 26.281 35.3472 26.2801C37.0035 26.2744 38.6447 26.5951 40.1771 27.2238C41.7094 27.8526 43.1029 28.777 44.2779 29.9444C45.4529 31.1119 46.3864 32.4993 47.025 34.0276C47.6637 35.5558 47.995 37.1949 48 38.8513Z" fill="white"/>
<path d="M23.088 31.2001C23.2965 31.246 23.5084 31.2748 23.7216 31.2865C23.5087 31.2722 23.297 31.2433 23.088 31.2001ZM23.7984 31.2913H24C24.1439 31.2986 24.2881 31.2986 24.432 31.2913C24.221 31.3056 24.0094 31.3056 23.7984 31.2913Z" fill="white"/>
<path d="M30.6528 27.0529V27.3937C30.6528 27.3937 30.6528 27.5665 30.6528 27.6529C30.6552 27.688 30.6552 27.7233 30.6528 27.7585C30.6528 27.8257 30.6528 27.8929 30.6288 27.9553C30.6048 28.0177 30.6 28.1521 30.5808 28.2481C30.5616 28.3441 30.5376 28.4737 30.5088 28.5889C30.4851 28.701 30.4547 28.8116 30.4176 28.9201C30.384 29.0545 30.336 29.1937 30.288 29.3281C30.24 29.4625 30.1968 29.5681 30.144 29.6881C30.0912 29.8081 30.048 29.8993 29.9952 30.0049V30.0385C29.9664 30.1009 29.9328 30.1585 29.8992 30.2209C29.8656 30.2833 29.8176 30.3649 29.7744 30.4369C29.6916 30.5845 29.6003 30.7271 29.5008 30.8641C29.4624 30.9217 29.424 30.9745 29.3808 31.0273C29.2506 31.2084 29.1095 31.3815 28.9584 31.5457L28.7568 31.7521C28.4551 32.0548 28.1239 32.3266 27.768 32.5633C27.6813 32.6253 27.5916 32.683 27.4992 32.7361C27.2867 32.8651 27.0672 32.9821 26.8416 33.0865H26.7888L26.5296 33.1969C26.4048 33.2497 26.2752 33.2977 26.1456 33.3409L25.896 33.4177C25.7568 33.4561 25.6176 33.4945 25.4736 33.5233C25.3296 33.5521 25.2528 33.5713 25.1424 33.5857L24.8928 33.6241C24.6157 33.6584 24.3368 33.676 24.0576 33.6769C23.801 33.677 23.5446 33.6625 23.2896 33.6337L22.9728 33.5857L22.56 33.5425C22.4208 33.5137 22.2864 33.4801 22.152 33.4417L21.9024 33.3649C21.661 33.2825 21.4239 33.188 21.192 33.0817L21.12 33.0433L20.8512 32.9089H20.808C20.7216 32.8609 20.6352 32.8129 20.5536 32.7601C20.4612 32.707 20.3715 32.6493 20.2848 32.5873L20.1024 32.4625C19.9232 32.3345 19.7504 32.1953 19.584 32.0449L19.3824 31.8577C19.248 31.7281 19.1232 31.5985 19.0032 31.4593C18.9408 31.3921 18.8832 31.3201 18.8256 31.2481C18.6501 31.0339 18.4897 30.8077 18.3456 30.5713C18.3024 30.5041 18.264 30.4369 18.2256 30.3697C18.1872 30.3025 18.12 30.1825 18.072 30.0865C18.024 29.9905 17.9568 29.8561 17.904 29.7361C17.8064 29.5122 17.7214 29.2831 17.6496 29.0497C17.6496 29.0113 17.6256 28.9729 17.616 28.9297C17.6064 28.8865 17.5584 28.7329 17.5344 28.6321C17.44 28.2512 17.3821 27.8623 17.3616 27.4705C17.3616 27.3409 17.3616 27.2113 17.3616 27.0769C17.3621 25.9701 17.6393 24.8811 18.168 23.9089C18.3215 23.6266 18.4947 23.3555 18.6864 23.0977L18.8832 22.8481C19.0182 22.6802 19.1625 22.52 19.3152 22.3681C20.2447 21.4373 21.4294 20.8033 22.7193 20.5461C24.0093 20.2889 25.3466 20.4201 26.5619 20.9232C27.7773 21.4263 28.816 22.2786 29.5468 23.3723C30.2776 24.466 30.6675 25.7519 30.6672 27.0673L30.6528 27.0529Z" fill="white"/>
<path d="M43.3536 16.5937C43.3545 18.1681 42.8885 19.7074 42.0144 21.0169C41.1403 22.3264 39.8974 23.3472 38.443 23.9501C36.9886 24.5531 35.388 24.7111 33.8438 24.4042C32.2995 24.0972 30.8811 23.3392 29.7678 22.2259C28.6545 21.1126 27.8964 19.6941 27.5895 18.1499C27.2826 16.6057 27.4406 15.0051 28.0435 13.5507C28.6465 12.0963 29.6673 10.8534 30.9767 9.97929C32.2862 9.10517 33.8256 8.63911 35.4 8.64006C37.5083 8.64386 39.5291 9.48305 41.0198 10.9738C42.5106 12.4646 43.3498 14.4854 43.3536 16.5937Z" fill="white"/>
<path d="M20.5536 16.5937C20.5545 18.1681 20.0885 19.7074 19.2144 21.0169C18.3403 22.3264 17.0974 23.3472 15.643 23.9501C14.1886 24.5531 12.588 24.7111 11.0438 24.4042C9.49955 24.0972 8.08105 23.3392 6.96776 22.2259C5.85447 21.1126 5.09641 19.6941 4.78949 18.1499C4.48256 16.6057 4.64057 15.0051 5.24352 13.5507C5.84647 12.0963 6.86726 10.8534 8.17674 9.97929C9.48623 9.10517 11.0256 8.63911 12.6 8.64006C14.7086 8.6426 16.7302 9.48138 18.2212 10.9724C19.7123 12.4635 20.5511 14.485 20.5536 16.5937Z" fill="white"/>
<path d="M24.5328 11.7937C24.368 11.8757 24.1865 11.9184 24.0024 11.9184C23.8183 11.9184 23.6368 11.8757 23.472 11.7937C22.8768 11.5201 17.664 8.81286 17.664 4.80006C17.6703 3.61476 18.1453 2.4801 18.9853 1.64376C19.8252 0.807412 20.9619 0.337306 22.1472 0.336056C22.7866 0.33532 23.4187 0.472863 24 0.739256C24.6811 0.42876 25.4292 0.293946 26.1759 0.347138C26.9225 0.400329 27.6439 0.63983 28.2742 1.04375C28.9044 1.44766 29.4233 2.0031 29.7835 2.6593C30.1437 3.3155 30.3336 4.05151 30.336 4.80006C30.336 8.81286 25.128 11.5201 24.5328 11.7937Z" fill="white"/>
<path d="M34.4016 43.8097V46.4641C34.4016 46.7823 34.2752 47.0875 34.0501 47.3126C33.8251 47.5376 33.5199 47.6641 33.2016 47.6641H29.8416V42.6769C29.8416 42.3586 29.7152 42.0534 29.4901 41.8283C29.2651 41.6033 28.9599 41.4769 28.6416 41.4769C28.3233 41.4769 28.0181 41.6033 27.7931 41.8283C27.568 42.0534 27.4416 42.3586 27.4416 42.6769V47.6641H20.544V42.6769C20.544 42.3586 20.4176 42.0534 20.1925 41.8283C19.9675 41.6033 19.6623 41.4769 19.344 41.4769C19.0257 41.4769 18.7205 41.6033 18.4955 41.8283C18.2704 42.0534 18.144 42.3586 18.144 42.6769V47.6641H14.784C14.4657 47.6641 14.1605 47.5376 13.9355 47.3126C13.7104 47.0875 13.584 46.7823 13.584 46.4641V43.8097C13.5966 41.3185 14.498 38.9136 16.1259 37.0279C17.7538 35.1421 20.0013 33.8994 22.464 33.5233C22.6608 33.4945 22.8624 33.4705 23.064 33.4513C23.3749 33.4192 23.6874 33.4048 24 33.4081C24.3109 33.4066 24.6217 33.421 24.9312 33.4513C25.1328 33.4513 25.3296 33.4897 25.5264 33.5233C27.994 33.8873 30.2483 35.1268 31.8777 37.0153C33.5071 38.9038 34.403 41.3154 34.4016 43.8097Z" fill="white"/>
</g>
<defs>
<clipPath id="clip0_2079_10242">
<rect width="48" height="48" fill="white"/>
</clipPath>
</defs>
</svg>
