<svg width="48" height="48" viewBox="0 0 48 48" fill="none" xmlns="http://www.w3.org/2000/svg">
<path d="M35.8574 19.0059C36.6643 18.9485 37.4273 19.3819 37.7891 20.1055L41.2363 27H45C46.1046 27 47 27.8954 47 29C47 30.1046 46.1046 31 45 31H40C39.2425 31 38.5497 30.5721 38.2109 29.8945L36.3691 26.2109L33.8965 33.6328C33.6406 34.3996 32.9489 34.9365 32.1426 34.9941C31.3357 35.0515 30.5727 34.6181 30.2109 33.8945L26.7637 27H23C21.8954 27 21 26.1046 21 25C21 23.8954 21.8954 23 23 23H28C28.7575 23 29.4503 23.4279 29.7891 24.1055L31.6289 27.7871L34.1035 20.3672L34.2188 20.0918C34.5336 19.474 35.1516 19.0563 35.8574 19.0059ZM42 18C42 13.0295 37.9705 9 33 9C29.9578 9 27.2669 10.5084 25.6348 12.8262C25.2601 13.3577 24.6503 13.6738 24 13.6738C23.3497 13.6738 22.7399 13.3577 22.3652 12.8262C20.7331 10.5084 18.0422 9 15 9C10.0294 9 6 13.0295 6 18C6 22.7318 8.8288 27.5005 12.7969 31.5078C16.489 35.2364 20.8719 38.0028 23.998 39.2012C25.4124 38.6591 27.112 37.7866 28.9121 36.6191C29.8386 36.0187 31.0767 36.2828 31.6777 37.209C32.2788 38.1357 32.0146 39.3755 31.0879 39.9766C28.8135 41.4515 26.5637 42.5823 24.6309 43.2246C24.2214 43.3607 23.7786 43.3607 23.3691 43.2246C19.5156 41.944 14.2545 38.6662 9.95312 34.3223C5.67151 29.9981 2 24.2679 2 18C2 10.8203 7.8203 5 15 5C18.4954 5 21.6655 6.38368 24 8.625C26.3345 6.38368 29.5046 5 33 5C40.1797 5 46 10.8203 46 18C46 19.9988 45.6248 21.942 44.9824 23.793C44.6203 24.8362 43.4808 25.3891 42.4375 25.0273C41.394 24.6652 40.841 23.524 41.2031 22.4805C41.7194 20.9929 42 19.494 42 18Z" fill="white"/>
</svg>
