<svg width="48" height="48" viewBox="0 0 48 48" fill="none" xmlns="http://www.w3.org/2000/svg">
<g clip-path="url(#clip0_2079_6395)">
<path d="M8.83753 26.9126H17.875V39.1626H8.83753V26.9126Z" fill="white"/>
<path d="M13.3563 1.40627C13.3563 0.629648 12.7267 2.3447e-05 11.95 2.3447e-05H5.925C5.14838 2.3447e-05 4.51875 0.629648 4.51875 1.40627V10.5438H13.3563V1.40627Z" fill="white"/>
<path d="M13.3563 15.8862V13.3563H4.51875V15.8862L0.411938 19.9931C0.148125 20.2569 0 20.6146 0 20.9876V46.5938C0 47.3704 0.629625 48 1.40625 48H16.4688C17.2454 48 17.875 47.3704 17.875 46.5938V41.975H7.43128C6.65466 41.975 6.02503 41.3454 6.02503 40.5687V25.5063C6.02503 24.7297 6.65466 24.1001 7.43128 24.1001H17.875V20.9876C17.875 20.6146 17.7269 20.257 17.4631 19.9932L13.3563 15.8862Z" fill="white"/>
<path d="M43.6736 9.79062L47.6398 5.82443C48.1201 5.34424 48.1201 4.56565 47.6398 4.08546L43.9145 0.360211C43.4343 -0.12007 42.6557 -0.12007 42.1755 0.360211L38.2093 4.3264L34.2432 0.360211C33.763 -0.12007 32.9844 -0.12007 32.5042 0.360211L28.7789 4.08555C28.2986 4.56574 28.2986 5.34434 28.7789 5.82452L32.7451 9.79071L28.7789 13.7569C28.2986 14.2371 28.2986 15.0157 28.7789 15.4959L32.5042 19.2212C32.9844 19.7015 33.763 19.7015 34.2432 19.2212L38.2094 15.255L42.1756 19.2212C42.6558 19.7015 43.4344 19.7015 43.9146 19.2212L47.6399 15.4959C48.1202 15.0157 48.1202 14.2371 47.6399 13.7569L43.6736 9.79062Z" fill="white"/>
<path d="M21.0876 28.5188C21.0876 32.1356 23.6853 35.1554 27.1126 35.8148V45.1875H24C22.1362 45.2567 22.1376 47.9315 24 48H33.0375C34.9013 47.9308 34.8999 45.2561 33.0375 45.1875H29.925V35.8149C33.3523 35.1555 35.95 32.1356 35.95 28.5189V26.9126H21.0876V28.5188Z" fill="white"/>
<path d="M30.5154 21.2097L27.3807 18.075H22.4937C21.7171 18.075 21.0875 18.7046 21.0875 19.4813V24.1001H35.9499V21.4662C34.4163 22.7876 31.9226 22.6746 30.5154 21.2097Z" fill="white"/>
</g>
<defs>
<clipPath id="clip0_2079_6395">
<rect width="48" height="48" fill="white"/>
</clipPath>
</defs>
</svg>
