<svg width="48" height="48" viewBox="0 0 48 48" fill="none" xmlns="http://www.w3.org/2000/svg">
<path d="M14.4356 20.5714H10.9565V17.1429H14.4348L14.4356 20.5714ZM37.0435 17.1429H33.5652V20.5714H37.0443L37.0435 17.1429ZM25.7391 17.1429H22.2609V20.5714H25.74L25.7391 17.1429ZM44 7.71429V12H4V7.71429C4 5.34856 5.94782 3.42857 8.34783 3.42857H11.913C12.313 1.47426 14.0696 0 16.1739 0C18.2782 0 20.0348 1.47426 20.4348 3.42857C20.4956 3.70287 20.5217 3.99426 20.5217 4.28571C20.5217 6.40283 18.9652 8.15997 16.913 8.51142C16.4869 8.58001 16.1739 8.93141 16.1739 9.3514C16.1739 9.87425 16.6435 10.2943 17.1652 10.2085C20.0522 9.73713 22.2609 7.25997 22.2609 4.28571C22.2609 3.99426 22.2435 3.71139 22.1913 3.42857H27.5652C27.9652 1.47426 29.7217 0 31.8261 0C33.9304 0 35.6869 1.47426 36.087 3.42857C36.1478 3.70287 36.1739 3.99426 36.1739 4.28571C36.1739 6.40283 34.6174 8.15997 32.5652 8.51142C32.1391 8.58001 31.8261 8.93141 31.8261 9.3514C31.8261 9.87425 32.2956 10.2943 32.8174 10.2085C35.7044 9.73713 37.913 7.25997 37.913 4.28571C37.913 3.99426 37.8956 3.71139 37.8435 3.42857H39.6522C42.0522 3.42857 44 5.34856 44 7.71429ZM13.7217 3.42857H18.6261C18.2695 2.43426 17.3043 1.71429 16.1739 1.71429C15.0435 1.71429 14.0783 2.43426 13.7217 3.42857ZM29.3739 3.42857H34.2783C33.9217 2.43426 32.9565 1.71429 31.8261 1.71429C30.6956 1.71429 29.7305 2.43426 29.3739 3.42857ZM4 13.7143H44V35.88L41.8957 33.8057L41.7565 33.0943C41.4522 31.5943 40.7044 30.2229 39.6087 29.1343L37.0435 26.6143C35.8869 25.4743 34.3652 24.8571 32.7391 24.8571C31.1131 24.8571 29.5826 25.4743 28.4348 26.6143L27.2 27.8228L24.6174 25.2771C23.8783 24.5486 22.8957 24.1457 21.8522 24.1457C20.8087 24.1457 19.8261 24.5486 19.087 25.2771C17.5652 26.7857 17.5652 29.2286 19.087 30.7286L21.7305 33.3428C21.6522 33.42 21.574 33.5057 21.5131 33.6C19.9131 35.9572 20.2435 39.12 22.2783 41.1429H8.34783C5.94782 41.1429 4 39.2229 4 36.8572V13.7143ZM31.8261 20.5714C31.8261 21.5169 32.6065 22.2857 33.5652 22.2857H37.0435C38.0022 22.2857 38.7826 21.5169 38.7826 20.5714V17.1429C38.7826 16.1974 38.0022 15.4286 37.0435 15.4286H33.5652C32.6065 15.4286 31.8261 16.1974 31.8261 17.1429V20.5714ZM20.5217 20.5714C20.5217 21.5169 21.3021 22.2857 22.2609 22.2857H25.7391C26.6979 22.2857 27.4783 21.5169 27.4783 20.5714V17.1429C27.4783 16.1974 26.6979 15.4286 25.7391 15.4286H22.2609C21.3021 15.4286 20.5217 16.1974 20.5217 17.1429V20.5714ZM9.21739 20.5714C9.21739 21.5169 9.99779 22.2857 10.9565 22.2857H14.4348C15.3935 22.2857 16.1739 21.5169 16.1739 20.5714V17.1429C16.1739 16.1974 15.3935 15.4286 14.4348 15.4286H10.9565C9.99779 15.4286 9.21739 16.1974 9.21739 17.1429V20.5714ZM9.21739 28.2857C9.21739 28.7591 9.60632 29.1429 10.087 29.1429H11.8261V30.8571C11.8261 31.3305 12.215 31.7143 12.6957 31.7143C13.1763 31.7143 13.5652 31.3305 13.5652 30.8571V29.1429H15.3043C15.785 29.1429 16.1739 28.7591 16.1739 28.2857C16.1739 27.8124 15.785 27.4286 15.3043 27.4286H13.5652V25.7143C13.5652 25.2409 13.1763 24.8571 12.6957 24.8571C12.215 24.8571 11.8261 25.2409 11.8261 25.7143V27.4286H10.087C9.60632 27.4286 9.21739 27.8124 9.21739 28.2857ZM31.6971 45.5757L34.1566 48L44 38.2972L41.5405 35.8728L31.6971 45.5757ZM40.0476 33.4318C39.8106 32.2645 39.2285 31.1924 38.3746 30.3506L35.8106 27.8232C34.1127 26.1496 31.3598 26.1495 29.6618 27.8232L27.2023 30.2476L23.3901 26.4898C22.5411 25.653 21.1647 25.653 20.3158 26.4898C19.4667 27.3267 19.4667 28.6835 20.3158 29.5203L27.2023 36.3085C27.5405 36.6419 27.5467 37.1813 27.2085 37.5146C26.8641 37.8541 26.3108 37.8541 25.9788 37.5146L22.9597 34.5509C21.8406 36.1994 22.0312 38.4722 23.5193 39.939L26.0833 42.4785C26.938 43.3089 28.0139 43.8847 29.2007 44.109L30.4673 44.3635L40.2992 34.6721L40.0476 33.4318Z" fill="white"/>
</svg>
