<svg width="48" height="48" viewBox="0 0 48 48" fill="none" xmlns="http://www.w3.org/2000/svg">
<path d="M4 44V10C4 5.58172 7.58172 2 12 2H38C39.1046 2 40 2.89543 40 4C40 5.10457 39.1046 6 38 6H32V9H38C41.3137 9 44 11.6863 44 15V34C43.9999 37.3136 41.3136 40 38 40H31.6484C31.2224 41.2543 30.4522 42.4239 29.5723 43.3457C28.223 44.7592 26.2345 46 24 46C22.8954 46 22 45.1046 22 44C22 42.8954 22.8954 42 24 42C24.7653 42 25.7771 41.5272 26.6777 40.584C26.8609 40.3921 27.0207 40.1938 27.1641 40H22C18.6864 40 16.0001 37.3136 16 34V15C16 11.6863 18.6863 9 22 9H28V6H12C9.79086 6 8 7.79086 8 10V44C8 45.1046 7.10457 46 6 46C4.89543 46 4 45.1046 4 44ZM40 24.3789C35.545 24.8615 32.2105 23.477 29.3613 22.5156C27.6673 21.944 26.1767 21.5235 24.5645 21.4902C23.2513 21.4632 21.7741 21.6971 20 22.4355V34C20.0001 35.1045 20.8955 36 22 36H38C39.1045 36 39.9999 35.1045 40 34V24.3789ZM40 15C40 13.8954 39.1046 13 38 13H22C20.8954 13 20 13.8954 20 15V18.1777C21.648 17.6618 23.181 17.462 24.6465 17.4922C26.8993 17.5386 28.8713 18.1283 30.6387 18.7246C33.782 19.7852 36.402 20.8716 40 20.3574V15Z" fill="white"/>
</svg>
