<svg width="48" height="48" viewBox="0 0 48 48" fill="none" xmlns="http://www.w3.org/2000/svg">
<g clip-path="url(#clip0_2079_10285)">
<path d="M47.6297 35.7052C47.4834 35.5459 44.4077 32.236 40.0625 30.5684C41.4702 28.2383 42.2812 25.5091 42.2812 22.5938V19.7812C42.2812 19.0046 41.6516 18.375 40.875 18.375H38.0625C35.4047 18.375 32.8542 19.036 30.5761 20.302C29.206 14.6511 25.2019 10.5586 24.9979 10.3531C24.7339 10.087 24.3747 9.9375 24 9.9375C23.6252 9.9375 23.266 10.087 23.0019 10.353C22.7979 10.5585 18.7938 14.6511 17.4238 20.3019C15.1457 19.036 12.5952 18.375 9.93747 18.375H7.12497C6.34834 18.375 5.71872 19.0046 5.71872 19.7812V22.5938C5.71872 25.5091 6.52975 28.2383 7.9375 30.5685C3.59237 32.236 0.516623 35.5459 0.370373 35.7052C-0.122283 36.2418 -0.123596 37.0658 0.367279 37.604C0.593779 37.8523 5.99369 43.6875 12.75 43.6875C14.8799 43.6875 16.8654 43.1078 18.5937 42.306C20.4176 44.6817 23.1794 46.246 23.3132 46.3209C23.5266 46.4404 23.7633 46.5 24.0001 46.5C24.2368 46.5 24.4735 46.4403 24.6869 46.3209C24.8207 46.246 27.5824 44.6817 29.4064 42.306C31.1345 43.1078 33.1201 43.6875 35.25 43.6875C42.0062 43.6875 47.4062 37.8523 47.6327 37.6039C48.1236 37.0657 48.1223 36.2417 47.6297 35.7052ZM24.002 13.49C25.5171 15.3884 28.2187 19.4167 28.2187 24C28.2187 28.5652 25.5122 32.6065 23.9979 34.51C22.4828 32.6116 19.7812 28.5833 19.7812 24C19.7812 19.4348 22.4878 15.3935 24.002 13.49ZM12.75 40.875C8.73522 40.875 5.11694 38.1505 3.43656 36.6584C4.67894 35.5584 6.97431 33.7897 9.69259 32.9334C12.3404 35.8741 16.0972 37.7968 20.2976 38.0363C18.1022 39.6358 15.4649 40.875 12.75 40.875ZM8.53122 22.5938V21.1875H9.93747C12.479 21.1875 14.8991 21.9279 16.9843 23.3317C16.9742 23.553 16.9687 23.7758 16.9687 24C16.9687 28.7125 19.2634 32.8027 21.0244 35.2479C14.1207 35.1602 8.53122 29.5179 8.53122 22.5938ZM24 43.4366C23.2473 42.9362 22.0238 42.0338 21.0803 40.9148C22.3153 40.1043 23.3131 39.2677 23.9999 38.6359C24.6867 39.2677 25.6845 40.1043 26.9194 40.9148C25.9759 42.034 24.7521 42.9365 24 43.4366ZM31.0312 24C31.0312 23.7758 31.0257 23.553 31.0157 23.3317C33.1008 21.9279 35.5209 21.1875 38.0625 21.1875H39.4687V22.5938C39.4687 29.5179 33.8792 35.1602 26.9755 35.2479C28.7365 32.8027 31.0312 28.7125 31.0312 24ZM35.25 40.875C32.3034 40.875 29.596 39.4057 27.7115 38.0357C31.9082 37.794 35.6615 35.872 38.3074 32.9334C41.0278 33.7903 43.3244 35.5611 44.5657 36.6604C42.8908 38.153 39.283 40.875 35.25 40.875Z" fill="white"/>
<path d="M24 1.5C23.2234 1.5 22.5938 2.12962 22.5938 2.90625V5.71875C22.5938 6.49538 23.2234 7.125 24 7.125C24.7766 7.125 25.4062 6.49538 25.4062 5.71875V2.90625C25.4062 2.12962 24.7766 1.5 24 1.5Z" fill="white"/>
<path d="M14.7389 9.93747L12.7502 7.94876C12.201 7.39957 11.3107 7.39957 10.7615 7.94876C10.2123 8.49794 10.2123 9.38829 10.7615 9.93747L12.7502 11.9262C13.2993 12.4753 14.1897 12.4755 14.7389 11.9262C15.2881 11.377 15.2881 10.4867 14.7389 9.93747Z" fill="white"/>
<path d="M37.2389 7.94876C36.6897 7.39957 35.7993 7.39957 35.2501 7.94876L33.2614 9.93747C32.7123 10.4867 32.7123 11.377 33.2614 11.9262C33.8105 12.4754 34.701 12.4754 35.2501 11.9262L37.2389 9.93747C37.788 9.38829 37.788 8.49794 37.2389 7.94876Z" fill="white"/>
</g>
<defs>
<clipPath id="clip0_2079_10285">
<rect width="48" height="48" fill="white"/>
</clipPath>
</defs>
</svg>
